%TF.GenerationSoftware,KiCad,Pcbnew,8.0.1*%
%TF.CreationDate,2024-04-06T14:18:41+01:00*%
%TF.ProjectId,RemoteStartInterface,52656d6f-7465-4537-9461-7274496e7465,rev?*%
%TF.SameCoordinates,Original*%
%TF.FileFunction,Soldermask,Bot*%
%TF.FilePolarity,Negative*%
%FSLAX46Y46*%
G04 Gerber Fmt 4.6, Leading zero omitted, Abs format (unit mm)*
G04 Created by KiCad (PCBNEW 8.0.1) date 2024-04-06 14:18:41*
%MOMM*%
%LPD*%
G01*
G04 APERTURE LIST*
%ADD10C,1.600000*%
%ADD11O,1.600000X1.600000*%
%ADD12R,1.600000X1.600000*%
%ADD13C,1.701800*%
G04 APERTURE END LIST*
D10*
%TO.C,R4*%
X43136000Y-5385000D03*
D11*
X53296000Y-5385000D03*
%TD*%
D12*
%TO.C,U1*%
X38300000Y-20625000D03*
D11*
X38300000Y-18085000D03*
X38300000Y-15545000D03*
X38300000Y-13005000D03*
X38300000Y-10465000D03*
X38300000Y-7925000D03*
X38300000Y-5385000D03*
X30680000Y-5385000D03*
X30680000Y-7925000D03*
X30680000Y-10465000D03*
X30680000Y-13005000D03*
X30680000Y-15545000D03*
X30680000Y-18085000D03*
X30680000Y-20625000D03*
%TD*%
D10*
%TO.C,R6*%
X43136000Y-12420000D03*
D11*
X43136000Y-22580000D03*
%TD*%
D13*
%TO.C,J2*%
X43135900Y-26000000D03*
X46945900Y-26000000D03*
X50755900Y-26000000D03*
X54565900Y-26000000D03*
%TD*%
D10*
%TO.C,R9*%
X14434000Y-22580000D03*
D11*
X14434000Y-12420000D03*
%TD*%
D10*
%TO.C,R5*%
X43136000Y-9195000D03*
D11*
X53296000Y-9195000D03*
%TD*%
D10*
%TO.C,C1*%
X37000000Y-24500000D03*
X32000000Y-24500000D03*
%TD*%
%TO.C,R1*%
X22054000Y-22580000D03*
D11*
X22054000Y-12420000D03*
%TD*%
D10*
%TO.C,R3*%
X14434000Y-5385000D03*
D11*
X24594000Y-5385000D03*
%TD*%
D10*
%TO.C,R2*%
X25864000Y-12420000D03*
D11*
X25864000Y-22580000D03*
%TD*%
D10*
%TO.C,R10*%
X18244000Y-12420000D03*
D11*
X18244000Y-22580000D03*
%TD*%
D13*
%TO.C,J1*%
X14433900Y-26000000D03*
X18243900Y-26000000D03*
X22053900Y-26000000D03*
X25863900Y-26000000D03*
%TD*%
D10*
%TO.C,R7*%
X46946000Y-12420000D03*
D11*
X46946000Y-22580000D03*
%TD*%
D10*
%TO.C,R8*%
X50756000Y-12420000D03*
D11*
X50756000Y-22580000D03*
%TD*%
M02*
