%TF.GenerationSoftware,KiCad,Pcbnew,8.0.1*%
%TF.CreationDate,2024-04-06T13:55:48+01:00*%
%TF.ProjectId,RemoteStartInterface,52656d6f-7465-4537-9461-7274496e7465,rev?*%
%TF.SameCoordinates,Original*%
%TF.FileFunction,Legend,Top*%
%TF.FilePolarity,Positive*%
%FSLAX46Y46*%
G04 Gerber Fmt 4.6, Leading zero omitted, Abs format (unit mm)*
G04 Created by KiCad (PCBNEW 8.0.1) date 2024-04-06 13:55:48*
%MOMM*%
%LPD*%
G01*
G04 APERTURE LIST*
%ADD10C,0.150000*%
%ADD11C,0.000000*%
%ADD12C,0.120000*%
%ADD13C,0.152400*%
%ADD14C,0.508000*%
G04 APERTURE END LIST*
D10*
X20261904Y-1203152D02*
X20261904Y-2012676D01*
X20261904Y-2012676D02*
X20214285Y-2107914D01*
X20214285Y-2107914D02*
X20166666Y-2155533D01*
X20166666Y-2155533D02*
X20071428Y-2203152D01*
X20071428Y-2203152D02*
X19928571Y-2203152D01*
X19928571Y-2203152D02*
X19833333Y-2155533D01*
X20261904Y-1822200D02*
X20166666Y-1869819D01*
X20166666Y-1869819D02*
X19976190Y-1869819D01*
X19976190Y-1869819D02*
X19880952Y-1822200D01*
X19880952Y-1822200D02*
X19833333Y-1774580D01*
X19833333Y-1774580D02*
X19785714Y-1679342D01*
X19785714Y-1679342D02*
X19785714Y-1393628D01*
X19785714Y-1393628D02*
X19833333Y-1298390D01*
X19833333Y-1298390D02*
X19880952Y-1250771D01*
X19880952Y-1250771D02*
X19976190Y-1203152D01*
X19976190Y-1203152D02*
X20166666Y-1203152D01*
X20166666Y-1203152D02*
X20261904Y-1250771D01*
X20738095Y-1869819D02*
X20738095Y-1203152D01*
X20738095Y-869819D02*
X20690476Y-917438D01*
X20690476Y-917438D02*
X20738095Y-965057D01*
X20738095Y-965057D02*
X20785714Y-917438D01*
X20785714Y-917438D02*
X20738095Y-869819D01*
X20738095Y-869819D02*
X20738095Y-965057D01*
X21071428Y-1203152D02*
X21452380Y-1203152D01*
X21214285Y-869819D02*
X21214285Y-1726961D01*
X21214285Y-1726961D02*
X21261904Y-1822200D01*
X21261904Y-1822200D02*
X21357142Y-1869819D01*
X21357142Y-1869819D02*
X21452380Y-1869819D01*
X21785714Y-1869819D02*
X21785714Y-869819D01*
X22214285Y-1869819D02*
X22214285Y-1346009D01*
X22214285Y-1346009D02*
X22166666Y-1250771D01*
X22166666Y-1250771D02*
X22071428Y-1203152D01*
X22071428Y-1203152D02*
X21928571Y-1203152D01*
X21928571Y-1203152D02*
X21833333Y-1250771D01*
X21833333Y-1250771D02*
X21785714Y-1298390D01*
X23119047Y-1203152D02*
X23119047Y-1869819D01*
X22690476Y-1203152D02*
X22690476Y-1726961D01*
X22690476Y-1726961D02*
X22738095Y-1822200D01*
X22738095Y-1822200D02*
X22833333Y-1869819D01*
X22833333Y-1869819D02*
X22976190Y-1869819D01*
X22976190Y-1869819D02*
X23071428Y-1822200D01*
X23071428Y-1822200D02*
X23119047Y-1774580D01*
X23595238Y-1869819D02*
X23595238Y-869819D01*
X23595238Y-1250771D02*
X23690476Y-1203152D01*
X23690476Y-1203152D02*
X23880952Y-1203152D01*
X23880952Y-1203152D02*
X23976190Y-1250771D01*
X23976190Y-1250771D02*
X24023809Y-1298390D01*
X24023809Y-1298390D02*
X24071428Y-1393628D01*
X24071428Y-1393628D02*
X24071428Y-1679342D01*
X24071428Y-1679342D02*
X24023809Y-1774580D01*
X24023809Y-1774580D02*
X23976190Y-1822200D01*
X23976190Y-1822200D02*
X23880952Y-1869819D01*
X23880952Y-1869819D02*
X23690476Y-1869819D01*
X23690476Y-1869819D02*
X23595238Y-1822200D01*
X24500000Y-1774580D02*
X24547619Y-1822200D01*
X24547619Y-1822200D02*
X24500000Y-1869819D01*
X24500000Y-1869819D02*
X24452381Y-1822200D01*
X24452381Y-1822200D02*
X24500000Y-1774580D01*
X24500000Y-1774580D02*
X24500000Y-1869819D01*
X25404761Y-1822200D02*
X25309523Y-1869819D01*
X25309523Y-1869819D02*
X25119047Y-1869819D01*
X25119047Y-1869819D02*
X25023809Y-1822200D01*
X25023809Y-1822200D02*
X24976190Y-1774580D01*
X24976190Y-1774580D02*
X24928571Y-1679342D01*
X24928571Y-1679342D02*
X24928571Y-1393628D01*
X24928571Y-1393628D02*
X24976190Y-1298390D01*
X24976190Y-1298390D02*
X25023809Y-1250771D01*
X25023809Y-1250771D02*
X25119047Y-1203152D01*
X25119047Y-1203152D02*
X25309523Y-1203152D01*
X25309523Y-1203152D02*
X25404761Y-1250771D01*
X25976190Y-1869819D02*
X25880952Y-1822200D01*
X25880952Y-1822200D02*
X25833333Y-1774580D01*
X25833333Y-1774580D02*
X25785714Y-1679342D01*
X25785714Y-1679342D02*
X25785714Y-1393628D01*
X25785714Y-1393628D02*
X25833333Y-1298390D01*
X25833333Y-1298390D02*
X25880952Y-1250771D01*
X25880952Y-1250771D02*
X25976190Y-1203152D01*
X25976190Y-1203152D02*
X26119047Y-1203152D01*
X26119047Y-1203152D02*
X26214285Y-1250771D01*
X26214285Y-1250771D02*
X26261904Y-1298390D01*
X26261904Y-1298390D02*
X26309523Y-1393628D01*
X26309523Y-1393628D02*
X26309523Y-1679342D01*
X26309523Y-1679342D02*
X26261904Y-1774580D01*
X26261904Y-1774580D02*
X26214285Y-1822200D01*
X26214285Y-1822200D02*
X26119047Y-1869819D01*
X26119047Y-1869819D02*
X25976190Y-1869819D01*
X26738095Y-1869819D02*
X26738095Y-1203152D01*
X26738095Y-1298390D02*
X26785714Y-1250771D01*
X26785714Y-1250771D02*
X26880952Y-1203152D01*
X26880952Y-1203152D02*
X27023809Y-1203152D01*
X27023809Y-1203152D02*
X27119047Y-1250771D01*
X27119047Y-1250771D02*
X27166666Y-1346009D01*
X27166666Y-1346009D02*
X27166666Y-1869819D01*
X27166666Y-1346009D02*
X27214285Y-1250771D01*
X27214285Y-1250771D02*
X27309523Y-1203152D01*
X27309523Y-1203152D02*
X27452380Y-1203152D01*
X27452380Y-1203152D02*
X27547619Y-1250771D01*
X27547619Y-1250771D02*
X27595238Y-1346009D01*
X27595238Y-1346009D02*
X27595238Y-1869819D01*
X28785713Y-822200D02*
X27928571Y-2107914D01*
X29119047Y-1869819D02*
X29119047Y-869819D01*
X29119047Y-869819D02*
X29357142Y-869819D01*
X29357142Y-869819D02*
X29499999Y-917438D01*
X29499999Y-917438D02*
X29595237Y-1012676D01*
X29595237Y-1012676D02*
X29642856Y-1107914D01*
X29642856Y-1107914D02*
X29690475Y-1298390D01*
X29690475Y-1298390D02*
X29690475Y-1441247D01*
X29690475Y-1441247D02*
X29642856Y-1631723D01*
X29642856Y-1631723D02*
X29595237Y-1726961D01*
X29595237Y-1726961D02*
X29499999Y-1822200D01*
X29499999Y-1822200D02*
X29357142Y-1869819D01*
X29357142Y-1869819D02*
X29119047Y-1869819D01*
X30547618Y-1869819D02*
X30547618Y-1346009D01*
X30547618Y-1346009D02*
X30499999Y-1250771D01*
X30499999Y-1250771D02*
X30404761Y-1203152D01*
X30404761Y-1203152D02*
X30214285Y-1203152D01*
X30214285Y-1203152D02*
X30119047Y-1250771D01*
X30547618Y-1822200D02*
X30452380Y-1869819D01*
X30452380Y-1869819D02*
X30214285Y-1869819D01*
X30214285Y-1869819D02*
X30119047Y-1822200D01*
X30119047Y-1822200D02*
X30071428Y-1726961D01*
X30071428Y-1726961D02*
X30071428Y-1631723D01*
X30071428Y-1631723D02*
X30119047Y-1536485D01*
X30119047Y-1536485D02*
X30214285Y-1488866D01*
X30214285Y-1488866D02*
X30452380Y-1488866D01*
X30452380Y-1488866D02*
X30547618Y-1441247D01*
X30928571Y-1203152D02*
X31166666Y-1869819D01*
X31166666Y-1869819D02*
X31404761Y-1203152D01*
X31785714Y-1869819D02*
X31785714Y-1203152D01*
X31785714Y-869819D02*
X31738095Y-917438D01*
X31738095Y-917438D02*
X31785714Y-965057D01*
X31785714Y-965057D02*
X31833333Y-917438D01*
X31833333Y-917438D02*
X31785714Y-869819D01*
X31785714Y-869819D02*
X31785714Y-965057D01*
X32690475Y-1869819D02*
X32690475Y-869819D01*
X32690475Y-1822200D02*
X32595237Y-1869819D01*
X32595237Y-1869819D02*
X32404761Y-1869819D01*
X32404761Y-1869819D02*
X32309523Y-1822200D01*
X32309523Y-1822200D02*
X32261904Y-1774580D01*
X32261904Y-1774580D02*
X32214285Y-1679342D01*
X32214285Y-1679342D02*
X32214285Y-1393628D01*
X32214285Y-1393628D02*
X32261904Y-1298390D01*
X32261904Y-1298390D02*
X32309523Y-1250771D01*
X32309523Y-1250771D02*
X32404761Y-1203152D01*
X32404761Y-1203152D02*
X32595237Y-1203152D01*
X32595237Y-1203152D02*
X32690475Y-1250771D01*
X33119047Y-1584104D02*
X33595237Y-1584104D01*
X33023809Y-1869819D02*
X33357142Y-869819D01*
X33357142Y-869819D02*
X33690475Y-1869819D01*
X34023809Y-1203152D02*
X34023809Y-1869819D01*
X34023809Y-1298390D02*
X34071428Y-1250771D01*
X34071428Y-1250771D02*
X34166666Y-1203152D01*
X34166666Y-1203152D02*
X34309523Y-1203152D01*
X34309523Y-1203152D02*
X34404761Y-1250771D01*
X34404761Y-1250771D02*
X34452380Y-1346009D01*
X34452380Y-1346009D02*
X34452380Y-1869819D01*
X34928571Y-1203152D02*
X34928571Y-1869819D01*
X34928571Y-1298390D02*
X34976190Y-1250771D01*
X34976190Y-1250771D02*
X35071428Y-1203152D01*
X35071428Y-1203152D02*
X35214285Y-1203152D01*
X35214285Y-1203152D02*
X35309523Y-1250771D01*
X35309523Y-1250771D02*
X35357142Y-1346009D01*
X35357142Y-1346009D02*
X35357142Y-1869819D01*
X35833333Y-1869819D02*
X35833333Y-1203152D01*
X35833333Y-869819D02*
X35785714Y-917438D01*
X35785714Y-917438D02*
X35833333Y-965057D01*
X35833333Y-965057D02*
X35880952Y-917438D01*
X35880952Y-917438D02*
X35833333Y-869819D01*
X35833333Y-869819D02*
X35833333Y-965057D01*
X36214285Y-1203152D02*
X36404761Y-1869819D01*
X36404761Y-1869819D02*
X36595237Y-1393628D01*
X36595237Y-1393628D02*
X36785713Y-1869819D01*
X36785713Y-1869819D02*
X36976189Y-1203152D01*
X37738094Y-1822200D02*
X37642856Y-1869819D01*
X37642856Y-1869819D02*
X37452380Y-1869819D01*
X37452380Y-1869819D02*
X37357142Y-1822200D01*
X37357142Y-1822200D02*
X37309523Y-1726961D01*
X37309523Y-1726961D02*
X37309523Y-1346009D01*
X37309523Y-1346009D02*
X37357142Y-1250771D01*
X37357142Y-1250771D02*
X37452380Y-1203152D01*
X37452380Y-1203152D02*
X37642856Y-1203152D01*
X37642856Y-1203152D02*
X37738094Y-1250771D01*
X37738094Y-1250771D02*
X37785713Y-1346009D01*
X37785713Y-1346009D02*
X37785713Y-1441247D01*
X37785713Y-1441247D02*
X37309523Y-1536485D01*
X38357142Y-1869819D02*
X38261904Y-1822200D01*
X38261904Y-1822200D02*
X38214285Y-1726961D01*
X38214285Y-1726961D02*
X38214285Y-869819D01*
X38880952Y-1869819D02*
X38785714Y-1822200D01*
X38785714Y-1822200D02*
X38738095Y-1726961D01*
X38738095Y-1726961D02*
X38738095Y-869819D01*
X39976190Y-822200D02*
X39119048Y-2107914D01*
X40309524Y-1869819D02*
X40309524Y-869819D01*
X40309524Y-869819D02*
X40690476Y-869819D01*
X40690476Y-869819D02*
X40785714Y-917438D01*
X40785714Y-917438D02*
X40833333Y-965057D01*
X40833333Y-965057D02*
X40880952Y-1060295D01*
X40880952Y-1060295D02*
X40880952Y-1203152D01*
X40880952Y-1203152D02*
X40833333Y-1298390D01*
X40833333Y-1298390D02*
X40785714Y-1346009D01*
X40785714Y-1346009D02*
X40690476Y-1393628D01*
X40690476Y-1393628D02*
X40309524Y-1393628D01*
X41309524Y-869819D02*
X41309524Y-1679342D01*
X41309524Y-1679342D02*
X41357143Y-1774580D01*
X41357143Y-1774580D02*
X41404762Y-1822200D01*
X41404762Y-1822200D02*
X41500000Y-1869819D01*
X41500000Y-1869819D02*
X41690476Y-1869819D01*
X41690476Y-1869819D02*
X41785714Y-1822200D01*
X41785714Y-1822200D02*
X41833333Y-1774580D01*
X41833333Y-1774580D02*
X41880952Y-1679342D01*
X41880952Y-1679342D02*
X41880952Y-869819D01*
X42833333Y-1869819D02*
X42357143Y-1869819D01*
X42357143Y-1869819D02*
X42357143Y-869819D01*
X43119048Y-1822200D02*
X43261905Y-1869819D01*
X43261905Y-1869819D02*
X43500000Y-1869819D01*
X43500000Y-1869819D02*
X43595238Y-1822200D01*
X43595238Y-1822200D02*
X43642857Y-1774580D01*
X43642857Y-1774580D02*
X43690476Y-1679342D01*
X43690476Y-1679342D02*
X43690476Y-1584104D01*
X43690476Y-1584104D02*
X43642857Y-1488866D01*
X43642857Y-1488866D02*
X43595238Y-1441247D01*
X43595238Y-1441247D02*
X43500000Y-1393628D01*
X43500000Y-1393628D02*
X43309524Y-1346009D01*
X43309524Y-1346009D02*
X43214286Y-1298390D01*
X43214286Y-1298390D02*
X43166667Y-1250771D01*
X43166667Y-1250771D02*
X43119048Y-1155533D01*
X43119048Y-1155533D02*
X43119048Y-1060295D01*
X43119048Y-1060295D02*
X43166667Y-965057D01*
X43166667Y-965057D02*
X43214286Y-917438D01*
X43214286Y-917438D02*
X43309524Y-869819D01*
X43309524Y-869819D02*
X43547619Y-869819D01*
X43547619Y-869819D02*
X43690476Y-917438D01*
X44071429Y-1584104D02*
X44547619Y-1584104D01*
X43976191Y-1869819D02*
X44309524Y-869819D01*
X44309524Y-869819D02*
X44642857Y-1869819D01*
X45547619Y-1869819D02*
X45214286Y-1393628D01*
X44976191Y-1869819D02*
X44976191Y-869819D01*
X44976191Y-869819D02*
X45357143Y-869819D01*
X45357143Y-869819D02*
X45452381Y-917438D01*
X45452381Y-917438D02*
X45500000Y-965057D01*
X45500000Y-965057D02*
X45547619Y-1060295D01*
X45547619Y-1060295D02*
X45547619Y-1203152D01*
X45547619Y-1203152D02*
X45500000Y-1298390D01*
X45500000Y-1298390D02*
X45452381Y-1346009D01*
X45452381Y-1346009D02*
X45357143Y-1393628D01*
X45357143Y-1393628D02*
X44976191Y-1393628D01*
X45976191Y-1488866D02*
X46738096Y-1488866D01*
X47785714Y-1869819D02*
X47452381Y-1393628D01*
X47214286Y-1869819D02*
X47214286Y-869819D01*
X47214286Y-869819D02*
X47595238Y-869819D01*
X47595238Y-869819D02*
X47690476Y-917438D01*
X47690476Y-917438D02*
X47738095Y-965057D01*
X47738095Y-965057D02*
X47785714Y-1060295D01*
X47785714Y-1060295D02*
X47785714Y-1203152D01*
X47785714Y-1203152D02*
X47738095Y-1298390D01*
X47738095Y-1298390D02*
X47690476Y-1346009D01*
X47690476Y-1346009D02*
X47595238Y-1393628D01*
X47595238Y-1393628D02*
X47214286Y-1393628D01*
X48166667Y-1822200D02*
X48309524Y-1869819D01*
X48309524Y-1869819D02*
X48547619Y-1869819D01*
X48547619Y-1869819D02*
X48642857Y-1822200D01*
X48642857Y-1822200D02*
X48690476Y-1774580D01*
X48690476Y-1774580D02*
X48738095Y-1679342D01*
X48738095Y-1679342D02*
X48738095Y-1584104D01*
X48738095Y-1584104D02*
X48690476Y-1488866D01*
X48690476Y-1488866D02*
X48642857Y-1441247D01*
X48642857Y-1441247D02*
X48547619Y-1393628D01*
X48547619Y-1393628D02*
X48357143Y-1346009D01*
X48357143Y-1346009D02*
X48261905Y-1298390D01*
X48261905Y-1298390D02*
X48214286Y-1250771D01*
X48214286Y-1250771D02*
X48166667Y-1155533D01*
X48166667Y-1155533D02*
X48166667Y-1060295D01*
X48166667Y-1060295D02*
X48214286Y-965057D01*
X48214286Y-965057D02*
X48261905Y-917438D01*
X48261905Y-917438D02*
X48357143Y-869819D01*
X48357143Y-869819D02*
X48595238Y-869819D01*
X48595238Y-869819D02*
X48738095Y-917438D01*
X49166667Y-1869819D02*
X49166667Y-869819D01*
D11*
G36*
X60253186Y-18846426D02*
G01*
X60302364Y-18848236D01*
X60323521Y-18849671D01*
X60342649Y-18851494D01*
X60359940Y-18853728D01*
X60375587Y-18856398D01*
X60389784Y-18859529D01*
X60402725Y-18863146D01*
X60414602Y-18867273D01*
X60425608Y-18871935D01*
X60435937Y-18877157D01*
X60445783Y-18882963D01*
X60455337Y-18889379D01*
X60464794Y-18896428D01*
X60474640Y-18904335D01*
X60484119Y-18912772D01*
X60493194Y-18921741D01*
X60501829Y-18931244D01*
X60509986Y-18941283D01*
X60517629Y-18951859D01*
X60524719Y-18962975D01*
X60531221Y-18974632D01*
X60537097Y-18986833D01*
X60539789Y-18993137D01*
X60542310Y-18999578D01*
X60544656Y-19006156D01*
X60546822Y-19012871D01*
X60548804Y-19019723D01*
X60550597Y-19026712D01*
X60552197Y-19033839D01*
X60553598Y-19041104D01*
X60554797Y-19048507D01*
X60555788Y-19056049D01*
X60556566Y-19063729D01*
X60557128Y-19071548D01*
X60557469Y-19079505D01*
X60557584Y-19087603D01*
X60557192Y-19101131D01*
X60556035Y-19114313D01*
X60554137Y-19127166D01*
X60551522Y-19139705D01*
X60548215Y-19151947D01*
X60544241Y-19163910D01*
X60539625Y-19175608D01*
X60534391Y-19187060D01*
X60528564Y-19198280D01*
X60522169Y-19209287D01*
X60515230Y-19220096D01*
X60507773Y-19230723D01*
X60499821Y-19241186D01*
X60491400Y-19251501D01*
X60482534Y-19261684D01*
X60473247Y-19271753D01*
X61038001Y-19272269D01*
X61027793Y-19263113D01*
X61018242Y-19253570D01*
X61009349Y-19243648D01*
X61001115Y-19233356D01*
X60993538Y-19222702D01*
X60986620Y-19211693D01*
X60980360Y-19200339D01*
X60974759Y-19188647D01*
X60969816Y-19176626D01*
X60965531Y-19164284D01*
X60961906Y-19151629D01*
X60958939Y-19138669D01*
X60956632Y-19125414D01*
X60954984Y-19111870D01*
X60953994Y-19098046D01*
X60953665Y-19083951D01*
X60953916Y-19073500D01*
X60954667Y-19062984D01*
X60955917Y-19052430D01*
X60957664Y-19041863D01*
X60959906Y-19031309D01*
X60962641Y-19020796D01*
X60965868Y-19010347D01*
X60969584Y-18999990D01*
X60973789Y-18989750D01*
X60978479Y-18979654D01*
X60983654Y-18969728D01*
X60989311Y-18959996D01*
X60995449Y-18950486D01*
X61002066Y-18941224D01*
X61009159Y-18932234D01*
X61016728Y-18923544D01*
X61024771Y-18915180D01*
X61033285Y-18907167D01*
X61042269Y-18899531D01*
X61051721Y-18892298D01*
X61061639Y-18885495D01*
X61072022Y-18879146D01*
X61082867Y-18873280D01*
X61094174Y-18867920D01*
X61105939Y-18863094D01*
X61118161Y-18858826D01*
X61130839Y-18855144D01*
X61143971Y-18852073D01*
X61157554Y-18849640D01*
X61171588Y-18847869D01*
X61186069Y-18846788D01*
X61200997Y-18846422D01*
X61674707Y-18846422D01*
X61674707Y-18989773D01*
X61250250Y-18989773D01*
X61241273Y-18989949D01*
X61232538Y-18990471D01*
X61224048Y-18991333D01*
X61215806Y-18992527D01*
X61207814Y-18994044D01*
X61200075Y-18995879D01*
X61192593Y-18998023D01*
X61185370Y-19000469D01*
X61178409Y-19003210D01*
X61171712Y-19006237D01*
X61165282Y-19009544D01*
X61159123Y-19013123D01*
X61153237Y-19016967D01*
X61147627Y-19021068D01*
X61142295Y-19025418D01*
X61137245Y-19030011D01*
X61132479Y-19034839D01*
X61128000Y-19039893D01*
X61123811Y-19045168D01*
X61119915Y-19050655D01*
X61116314Y-19056347D01*
X61113012Y-19062236D01*
X61110011Y-19068315D01*
X61107314Y-19074577D01*
X61104923Y-19081014D01*
X61102843Y-19087618D01*
X61101074Y-19094383D01*
X61099621Y-19101300D01*
X61098486Y-19108362D01*
X61097672Y-19115563D01*
X61097181Y-19122893D01*
X61097017Y-19130346D01*
X61097181Y-19137925D01*
X61097672Y-19145374D01*
X61098486Y-19152684D01*
X61099621Y-19159849D01*
X61101074Y-19166861D01*
X61102843Y-19173714D01*
X61104923Y-19180400D01*
X61107314Y-19186912D01*
X61110011Y-19193242D01*
X61113012Y-19199385D01*
X61116315Y-19205331D01*
X61119915Y-19211075D01*
X61123811Y-19216608D01*
X61128000Y-19221924D01*
X61132479Y-19227016D01*
X61137245Y-19231877D01*
X61142295Y-19236498D01*
X61147627Y-19240873D01*
X61153237Y-19244996D01*
X61159123Y-19248857D01*
X61165283Y-19252452D01*
X61171712Y-19255771D01*
X61178409Y-19258808D01*
X61185370Y-19261557D01*
X61192594Y-19264008D01*
X61200076Y-19266157D01*
X61207814Y-19267994D01*
X61215806Y-19269514D01*
X61224048Y-19270708D01*
X61232538Y-19271570D01*
X61241273Y-19272093D01*
X61250250Y-19272269D01*
X61674708Y-19272269D01*
X61674708Y-19415659D01*
X60193530Y-19415659D01*
X59836541Y-19415659D01*
X59836541Y-19271753D01*
X59911035Y-19271753D01*
X59901993Y-19263071D01*
X59893341Y-19253917D01*
X59885105Y-19244310D01*
X59877313Y-19234273D01*
X59869990Y-19223824D01*
X59863163Y-19212984D01*
X59856860Y-19201774D01*
X59851106Y-19190215D01*
X59845930Y-19178326D01*
X59841357Y-19166128D01*
X59837414Y-19153642D01*
X59834128Y-19140888D01*
X59832184Y-19131179D01*
X59971439Y-19131179D01*
X59971781Y-19143329D01*
X59972790Y-19154760D01*
X59974443Y-19165493D01*
X59976715Y-19175551D01*
X59979583Y-19184956D01*
X59983021Y-19193729D01*
X59987006Y-19201892D01*
X59991513Y-19209468D01*
X59996518Y-19216477D01*
X60001998Y-19222943D01*
X60007928Y-19228886D01*
X60014283Y-19234328D01*
X60021040Y-19239292D01*
X60028174Y-19243800D01*
X60035661Y-19247872D01*
X60043477Y-19251532D01*
X60051598Y-19254800D01*
X60059999Y-19257699D01*
X60068657Y-19260251D01*
X60077547Y-19262477D01*
X60086645Y-19264399D01*
X60095927Y-19266040D01*
X60114945Y-19268563D01*
X60134408Y-19270220D01*
X60154122Y-19271188D01*
X60173894Y-19271641D01*
X60193530Y-19271752D01*
X60232480Y-19271190D01*
X60252009Y-19270224D01*
X60271313Y-19268568D01*
X60290196Y-19266048D01*
X60308464Y-19262487D01*
X60325920Y-19257712D01*
X60334282Y-19254814D01*
X60342369Y-19251547D01*
X60350154Y-19247888D01*
X60357615Y-19243816D01*
X60364725Y-19239309D01*
X60371462Y-19234346D01*
X60377801Y-19228903D01*
X60383716Y-19222960D01*
X60389184Y-19216495D01*
X60394181Y-19209485D01*
X60398681Y-19201908D01*
X60402660Y-19193744D01*
X60406094Y-19184969D01*
X60408959Y-19175563D01*
X60411229Y-19165502D01*
X60412882Y-19154766D01*
X60413891Y-19143332D01*
X60414233Y-19131179D01*
X60413911Y-19118900D01*
X60412958Y-19107348D01*
X60411396Y-19096501D01*
X60409245Y-19086338D01*
X60406526Y-19076835D01*
X60403258Y-19067971D01*
X60399464Y-19059724D01*
X60395163Y-19052071D01*
X60390375Y-19044991D01*
X60385123Y-19038461D01*
X60379425Y-19032459D01*
X60373304Y-19026963D01*
X60366779Y-19021951D01*
X60359870Y-19017401D01*
X60352600Y-19013290D01*
X60344988Y-19009597D01*
X60337054Y-19006299D01*
X60328820Y-19003374D01*
X60320306Y-19000800D01*
X60311533Y-18998556D01*
X60302521Y-18996618D01*
X60293291Y-18994964D01*
X60274259Y-18992423D01*
X60254602Y-18990755D01*
X60234485Y-18989783D01*
X60214073Y-18989329D01*
X60193530Y-18989217D01*
X60152093Y-18989783D01*
X60131784Y-18990755D01*
X60111964Y-18992423D01*
X60092796Y-18994964D01*
X60074442Y-18998556D01*
X60057065Y-19003374D01*
X60048794Y-19006299D01*
X60040828Y-19009597D01*
X60033187Y-19013290D01*
X60025892Y-19017401D01*
X60018963Y-19021951D01*
X60012420Y-19026963D01*
X60006284Y-19032459D01*
X60000575Y-19038461D01*
X59995313Y-19044991D01*
X59990519Y-19052071D01*
X59986213Y-19059724D01*
X59982415Y-19067971D01*
X59979146Y-19076835D01*
X59976426Y-19086338D01*
X59974274Y-19096501D01*
X59972713Y-19107348D01*
X59971761Y-19118900D01*
X59971439Y-19131179D01*
X59832184Y-19131179D01*
X59831525Y-19127887D01*
X59829634Y-19114658D01*
X59828479Y-19101223D01*
X59828088Y-19087603D01*
X59828543Y-19071547D01*
X59829884Y-19056049D01*
X59832073Y-19041104D01*
X59835074Y-19026712D01*
X59838849Y-19012871D01*
X59843362Y-18999578D01*
X59848575Y-18986833D01*
X59854450Y-18974632D01*
X59860952Y-18962975D01*
X59868043Y-18951859D01*
X59875685Y-18941283D01*
X59883843Y-18931244D01*
X59892478Y-18921741D01*
X59901553Y-18912772D01*
X59911032Y-18904335D01*
X59920877Y-18896428D01*
X59930348Y-18889379D01*
X59939915Y-18882963D01*
X59949773Y-18877157D01*
X59960120Y-18871935D01*
X59965537Y-18869536D01*
X59971150Y-18867273D01*
X59976982Y-18865144D01*
X59983059Y-18863146D01*
X59989404Y-18861275D01*
X59996043Y-18859529D01*
X60010298Y-18856398D01*
X60026019Y-18853728D01*
X60043402Y-18851494D01*
X60062644Y-18849671D01*
X60083939Y-18848236D01*
X60107483Y-18847162D01*
X60133472Y-18846426D01*
X60162103Y-18846002D01*
X60193570Y-18845866D01*
X60253186Y-18846426D01*
G37*
G36*
X60246949Y-13733441D02*
G01*
X60257719Y-13733233D01*
X60268151Y-13732613D01*
X60278245Y-13731589D01*
X60288000Y-13730171D01*
X60297417Y-13728366D01*
X60306495Y-13726181D01*
X60315233Y-13723627D01*
X60323633Y-13720710D01*
X60331692Y-13717439D01*
X60339411Y-13713823D01*
X60346790Y-13709868D01*
X60353829Y-13705585D01*
X60360527Y-13700980D01*
X60366883Y-13696062D01*
X60372899Y-13690839D01*
X60378572Y-13685320D01*
X60383904Y-13679512D01*
X60388894Y-13673425D01*
X60393542Y-13667065D01*
X60397847Y-13660441D01*
X60401809Y-13653563D01*
X60405427Y-13646436D01*
X60408703Y-13639071D01*
X60411635Y-13631475D01*
X60414222Y-13623656D01*
X60416466Y-13615623D01*
X60418365Y-13607383D01*
X60419920Y-13598946D01*
X60421129Y-13590318D01*
X60421993Y-13581510D01*
X60422512Y-13572527D01*
X60422685Y-13563380D01*
X60422390Y-13553060D01*
X60421512Y-13542672D01*
X60420061Y-13532249D01*
X60418048Y-13521820D01*
X60415483Y-13511416D01*
X60412376Y-13501068D01*
X60408737Y-13490806D01*
X60404578Y-13480662D01*
X60399908Y-13470665D01*
X60394738Y-13460847D01*
X60389077Y-13451238D01*
X60382937Y-13441870D01*
X60376328Y-13432771D01*
X60369260Y-13423975D01*
X60361743Y-13415510D01*
X60353788Y-13407408D01*
X60442291Y-13303387D01*
X60457019Y-13316795D01*
X60470648Y-13330675D01*
X60483198Y-13345002D01*
X60494690Y-13359750D01*
X60505144Y-13374896D01*
X60514581Y-13390413D01*
X60523022Y-13406278D01*
X60530487Y-13422464D01*
X60536996Y-13438948D01*
X60542571Y-13455704D01*
X60547232Y-13472708D01*
X60550999Y-13489934D01*
X60553893Y-13507357D01*
X60555935Y-13524953D01*
X60557145Y-13542696D01*
X60557544Y-13560562D01*
X60556682Y-13588209D01*
X60553951Y-13616130D01*
X60549127Y-13644042D01*
X60541988Y-13671661D01*
X60532312Y-13698703D01*
X60526454Y-13711919D01*
X60519878Y-13724884D01*
X60512557Y-13737562D01*
X60504462Y-13749919D01*
X60495567Y-13761919D01*
X60485843Y-13773525D01*
X60475263Y-13784703D01*
X60463799Y-13795418D01*
X60451423Y-13805633D01*
X60438107Y-13815313D01*
X60423824Y-13824423D01*
X60408546Y-13832927D01*
X60392245Y-13840790D01*
X60374893Y-13847975D01*
X60356462Y-13854448D01*
X60336926Y-13860174D01*
X60316255Y-13865116D01*
X60294422Y-13869239D01*
X60271400Y-13872507D01*
X60247161Y-13874886D01*
X60221676Y-13876339D01*
X60194919Y-13876832D01*
X60169508Y-13876380D01*
X60145174Y-13875047D01*
X60128919Y-13873522D01*
X60121899Y-13872864D01*
X60099666Y-13869862D01*
X60078457Y-13866075D01*
X60058254Y-13861533D01*
X60039039Y-13856269D01*
X60020795Y-13850314D01*
X60003504Y-13843700D01*
X59987149Y-13836460D01*
X59971711Y-13828624D01*
X59957172Y-13820225D01*
X59943516Y-13811295D01*
X59930723Y-13801866D01*
X59918778Y-13791969D01*
X59907661Y-13781637D01*
X59897356Y-13770900D01*
X59887843Y-13759792D01*
X59879107Y-13748343D01*
X59871128Y-13736587D01*
X59863890Y-13724554D01*
X59857374Y-13712276D01*
X59851562Y-13699786D01*
X59846438Y-13687115D01*
X59841983Y-13674296D01*
X59838180Y-13661359D01*
X59835010Y-13648337D01*
X59832456Y-13635262D01*
X59829126Y-13609079D01*
X59828048Y-13583066D01*
X59963026Y-13583066D01*
X59963194Y-13590909D01*
X59963699Y-13598622D01*
X59964539Y-13606197D01*
X59965712Y-13613627D01*
X59967217Y-13620904D01*
X59969054Y-13628022D01*
X59971221Y-13634973D01*
X59973716Y-13641750D01*
X59976539Y-13648346D01*
X59979687Y-13654754D01*
X59983161Y-13660966D01*
X59986958Y-13666975D01*
X59991077Y-13672774D01*
X59995518Y-13678355D01*
X60000278Y-13683712D01*
X60005357Y-13688838D01*
X60010754Y-13693724D01*
X60016466Y-13698364D01*
X60022493Y-13702751D01*
X60028834Y-13706878D01*
X60035486Y-13710736D01*
X60042450Y-13714320D01*
X60049724Y-13717621D01*
X60057306Y-13720633D01*
X60065196Y-13723348D01*
X60073391Y-13725760D01*
X60081891Y-13727860D01*
X60090695Y-13729642D01*
X60099801Y-13731098D01*
X60109208Y-13732222D01*
X60118914Y-13733005D01*
X60128919Y-13733442D01*
X60128919Y-13432689D01*
X60118914Y-13433255D01*
X60109208Y-13434152D01*
X60099801Y-13435372D01*
X60090695Y-13436911D01*
X60081892Y-13438761D01*
X60073391Y-13440917D01*
X60065196Y-13443371D01*
X60057307Y-13446118D01*
X60049724Y-13449150D01*
X60042451Y-13452462D01*
X60035487Y-13456047D01*
X60028834Y-13459899D01*
X60022493Y-13464011D01*
X60016466Y-13468377D01*
X60010754Y-13472990D01*
X60005358Y-13477844D01*
X60000279Y-13482933D01*
X59995518Y-13488250D01*
X59991078Y-13493789D01*
X59986958Y-13499544D01*
X59983161Y-13505507D01*
X59979687Y-13511673D01*
X59976539Y-13518036D01*
X59973716Y-13524588D01*
X59971221Y-13531323D01*
X59969054Y-13538235D01*
X59967217Y-13545318D01*
X59965712Y-13552565D01*
X59964539Y-13559970D01*
X59963699Y-13567526D01*
X59963194Y-13575227D01*
X59963026Y-13583066D01*
X59828048Y-13583066D01*
X59828048Y-13583065D01*
X59828388Y-13568381D01*
X59829403Y-13553840D01*
X59831083Y-13539464D01*
X59833420Y-13525274D01*
X59836404Y-13511291D01*
X59840026Y-13497536D01*
X59844278Y-13484030D01*
X59849151Y-13470794D01*
X59854635Y-13457850D01*
X59860722Y-13445219D01*
X59867402Y-13432922D01*
X59874667Y-13420980D01*
X59882508Y-13409414D01*
X59890915Y-13398246D01*
X59899879Y-13387496D01*
X59909392Y-13377186D01*
X59919445Y-13367337D01*
X59930029Y-13357970D01*
X59941134Y-13349106D01*
X59952752Y-13340767D01*
X59964873Y-13332973D01*
X59977489Y-13325746D01*
X59990591Y-13319106D01*
X60004169Y-13313076D01*
X60018216Y-13307676D01*
X60032720Y-13302927D01*
X60047675Y-13298851D01*
X60063070Y-13295469D01*
X60078897Y-13292801D01*
X60095147Y-13290869D01*
X60111811Y-13289695D01*
X60128879Y-13289298D01*
X60246949Y-13289298D01*
X60246949Y-13733441D01*
G37*
G36*
X60447104Y-13925166D02*
G01*
X60459785Y-13937587D01*
X60471912Y-13950568D01*
X60483438Y-13964105D01*
X60494315Y-13978196D01*
X60504496Y-13992839D01*
X60513933Y-14008032D01*
X60522579Y-14023771D01*
X60530385Y-14040055D01*
X60537305Y-14056881D01*
X60543291Y-14074247D01*
X60548295Y-14092150D01*
X60552270Y-14110589D01*
X60555168Y-14129560D01*
X60556942Y-14149062D01*
X60557544Y-14169092D01*
X60556313Y-14199818D01*
X60552569Y-14230189D01*
X60546236Y-14259980D01*
X60537238Y-14288967D01*
X60531715Y-14303088D01*
X60525497Y-14316925D01*
X60518574Y-14330447D01*
X60510937Y-14343629D01*
X60502576Y-14356440D01*
X60493481Y-14368855D01*
X60483644Y-14380843D01*
X60473054Y-14392378D01*
X60461702Y-14403432D01*
X60449578Y-14413975D01*
X60436672Y-14423981D01*
X60422976Y-14433421D01*
X60408480Y-14442267D01*
X60393173Y-14450491D01*
X60377047Y-14458065D01*
X60360092Y-14464960D01*
X60342298Y-14471150D01*
X60323655Y-14476605D01*
X60304155Y-14481298D01*
X60283787Y-14485201D01*
X60262543Y-14488285D01*
X60240411Y-14490523D01*
X60217384Y-14491886D01*
X60193451Y-14492346D01*
X60169406Y-14491886D01*
X60146273Y-14490523D01*
X60124042Y-14488285D01*
X60102705Y-14485201D01*
X60082250Y-14481298D01*
X60062669Y-14476605D01*
X60043951Y-14471150D01*
X60026086Y-14464960D01*
X60009066Y-14458065D01*
X59992879Y-14450491D01*
X59977517Y-14442267D01*
X59962970Y-14433421D01*
X59949227Y-14423981D01*
X59936280Y-14413975D01*
X59924118Y-14403432D01*
X59912731Y-14392378D01*
X59902110Y-14380843D01*
X59892245Y-14368855D01*
X59883127Y-14356440D01*
X59874745Y-14343629D01*
X59867089Y-14330447D01*
X59860151Y-14316925D01*
X59853919Y-14303088D01*
X59848385Y-14288967D01*
X59843539Y-14274588D01*
X59839370Y-14259980D01*
X59835870Y-14245171D01*
X59833028Y-14230189D01*
X59830835Y-14215062D01*
X59829280Y-14199818D01*
X59828048Y-14169092D01*
X59828199Y-14159014D01*
X59828649Y-14149069D01*
X59829392Y-14139255D01*
X59830422Y-14129573D01*
X59833319Y-14110607D01*
X59837292Y-14092173D01*
X59842295Y-14074272D01*
X59848280Y-14056909D01*
X59855200Y-14040084D01*
X59863008Y-14023800D01*
X59871656Y-14008060D01*
X59881097Y-13992867D01*
X59891284Y-13978221D01*
X59902170Y-13964127D01*
X59913707Y-13950586D01*
X59925848Y-13937600D01*
X59938546Y-13925172D01*
X59951754Y-13913305D01*
X60045933Y-14018716D01*
X60037915Y-14025474D01*
X60030220Y-14032587D01*
X60022876Y-14040043D01*
X60015909Y-14047832D01*
X60009345Y-14055944D01*
X60003212Y-14064367D01*
X59997536Y-14073091D01*
X59992344Y-14082106D01*
X59987663Y-14091401D01*
X59983519Y-14100965D01*
X59979939Y-14110788D01*
X59976951Y-14120860D01*
X59974579Y-14131169D01*
X59972853Y-14141705D01*
X59971797Y-14152457D01*
X59971439Y-14163416D01*
X59972219Y-14184729D01*
X59974581Y-14204890D01*
X59976367Y-14214530D01*
X59978562Y-14223870D01*
X59981169Y-14232907D01*
X59984195Y-14241638D01*
X59987642Y-14250057D01*
X59991516Y-14258161D01*
X59995820Y-14265947D01*
X60000560Y-14273410D01*
X60005738Y-14280547D01*
X60011361Y-14287354D01*
X60017432Y-14293826D01*
X60023956Y-14299961D01*
X60030936Y-14305753D01*
X60038378Y-14311200D01*
X60046285Y-14316298D01*
X60054663Y-14321042D01*
X60063515Y-14325429D01*
X60072845Y-14329454D01*
X60082659Y-14333114D01*
X60092961Y-14336406D01*
X60103755Y-14339325D01*
X60115044Y-14341867D01*
X60126835Y-14344029D01*
X60139130Y-14345806D01*
X60165254Y-14348192D01*
X60193451Y-14348994D01*
X60207692Y-14348793D01*
X60221418Y-14348192D01*
X60234634Y-14347194D01*
X60247343Y-14345804D01*
X60259549Y-14344026D01*
X60271258Y-14341864D01*
X60282472Y-14339320D01*
X60293196Y-14336400D01*
X60303434Y-14333108D01*
X60313191Y-14329446D01*
X60322469Y-14325419D01*
X60331274Y-14321031D01*
X60339610Y-14316286D01*
X60347480Y-14311187D01*
X60354889Y-14305739D01*
X60361840Y-14299946D01*
X60368338Y-14293810D01*
X60374388Y-14287337D01*
X60379992Y-14280530D01*
X60385156Y-14273393D01*
X60389883Y-14265929D01*
X60394177Y-14258143D01*
X60398043Y-14250039D01*
X60401485Y-14241621D01*
X60404506Y-14232891D01*
X60407111Y-14223855D01*
X60409304Y-14214517D01*
X60411089Y-14204879D01*
X60412471Y-14194946D01*
X60413452Y-14184722D01*
X60414038Y-14174211D01*
X60414233Y-14163416D01*
X60414143Y-14157912D01*
X60413875Y-14152458D01*
X60413432Y-14147056D01*
X60412819Y-14141706D01*
X60411092Y-14131172D01*
X60408721Y-14120865D01*
X60405732Y-14110796D01*
X60402152Y-14100976D01*
X60398009Y-14091414D01*
X60393327Y-14082121D01*
X60388135Y-14073108D01*
X60382459Y-14064384D01*
X60376326Y-14055961D01*
X60369763Y-14047849D01*
X60362796Y-14040058D01*
X60355451Y-14032598D01*
X60347757Y-14025481D01*
X60339739Y-14018716D01*
X60433917Y-13913305D01*
X60447104Y-13925166D01*
G37*
G36*
X60006563Y-14579301D02*
G01*
X60002003Y-14585516D01*
X59997796Y-14591532D01*
X59993934Y-14597383D01*
X59990410Y-14603102D01*
X59987215Y-14608722D01*
X59984340Y-14614276D01*
X59981778Y-14619797D01*
X59979521Y-14625319D01*
X59977560Y-14630874D01*
X59975887Y-14636495D01*
X59974494Y-14642217D01*
X59973372Y-14648071D01*
X59972515Y-14654091D01*
X59971912Y-14660311D01*
X59971556Y-14666762D01*
X59971440Y-14673480D01*
X59971970Y-14686632D01*
X59973575Y-14699650D01*
X59976275Y-14712435D01*
X59980091Y-14724890D01*
X59982424Y-14730962D01*
X59985043Y-14736914D01*
X59987952Y-14742735D01*
X59991153Y-14748411D01*
X59994648Y-14753930D01*
X59998440Y-14759280D01*
X60002531Y-14764449D01*
X60006925Y-14769424D01*
X60011624Y-14774193D01*
X60016630Y-14778744D01*
X60021946Y-14783064D01*
X60027574Y-14787141D01*
X60033517Y-14790962D01*
X60039778Y-14794516D01*
X60046360Y-14797790D01*
X60053264Y-14800772D01*
X60060493Y-14803449D01*
X60068050Y-14805809D01*
X60075938Y-14807840D01*
X60084159Y-14809529D01*
X60092716Y-14810865D01*
X60101611Y-14811834D01*
X60110847Y-14812424D01*
X60120427Y-14812624D01*
X60549091Y-14812624D01*
X60549091Y-14956015D01*
X59836502Y-14956015D01*
X59836502Y-14812624D01*
X59912385Y-14812624D01*
X59912385Y-14809845D01*
X59902176Y-14801185D01*
X59892626Y-14792073D01*
X59883733Y-14782524D01*
X59875499Y-14772550D01*
X59867922Y-14762162D01*
X59861004Y-14751375D01*
X59854744Y-14740200D01*
X59849143Y-14728650D01*
X59844200Y-14716738D01*
X59839915Y-14704476D01*
X59836290Y-14691877D01*
X59833323Y-14678953D01*
X59831016Y-14665718D01*
X59829367Y-14652183D01*
X59828378Y-14638362D01*
X59828048Y-14624267D01*
X59828293Y-14613570D01*
X59829020Y-14603099D01*
X59830216Y-14592845D01*
X59831868Y-14582799D01*
X59833966Y-14572952D01*
X59836495Y-14563296D01*
X59839445Y-14553821D01*
X59842802Y-14544520D01*
X59846555Y-14535382D01*
X59850690Y-14526400D01*
X59855197Y-14517565D01*
X59860061Y-14508867D01*
X59865272Y-14500299D01*
X59870816Y-14491851D01*
X59876682Y-14483514D01*
X59882857Y-14475280D01*
X60006563Y-14579301D01*
G37*
G36*
X60549170Y-15256568D02*
G01*
X60473208Y-15256568D01*
X60473208Y-15259346D01*
X60483416Y-15268006D01*
X60492967Y-15277115D01*
X60501859Y-15286658D01*
X60510094Y-15296619D01*
X60517670Y-15306984D01*
X60524588Y-15317739D01*
X60530848Y-15328869D01*
X60536450Y-15340358D01*
X60541393Y-15352193D01*
X60545677Y-15364358D01*
X60549302Y-15376838D01*
X60552269Y-15389619D01*
X60554576Y-15402686D01*
X60556225Y-15416025D01*
X60557214Y-15429620D01*
X60557544Y-15443456D01*
X60557293Y-15454034D01*
X60556541Y-15464669D01*
X60553544Y-15486005D01*
X60548567Y-15507260D01*
X60545340Y-15517792D01*
X60541624Y-15528227D01*
X60537420Y-15538538D01*
X60532729Y-15548700D01*
X60527555Y-15558688D01*
X60521898Y-15568474D01*
X60515760Y-15578034D01*
X60509143Y-15587342D01*
X60502049Y-15596372D01*
X60494480Y-15605099D01*
X60486438Y-15613496D01*
X60477924Y-15621538D01*
X60468940Y-15629199D01*
X60459488Y-15636453D01*
X60449570Y-15643275D01*
X60439187Y-15649639D01*
X60428342Y-15655519D01*
X60417035Y-15660889D01*
X60405270Y-15665724D01*
X60393048Y-15669998D01*
X60380370Y-15673685D01*
X60367238Y-15676759D01*
X60353655Y-15679195D01*
X60339621Y-15680967D01*
X60325140Y-15682049D01*
X60310212Y-15682415D01*
X59836501Y-15682415D01*
X59836501Y-15539103D01*
X60260960Y-15539103D01*
X60269930Y-15538927D01*
X60278658Y-15538405D01*
X60287143Y-15537542D01*
X60295381Y-15536347D01*
X60303369Y-15534827D01*
X60311104Y-15532988D01*
X60318584Y-15530839D01*
X60325806Y-15528386D01*
X60332766Y-15525636D01*
X60339462Y-15522598D01*
X60345892Y-15519277D01*
X60352051Y-15515682D01*
X60357938Y-15511819D01*
X60363550Y-15507695D01*
X60368883Y-15503319D01*
X60373935Y-15498696D01*
X60378702Y-15493835D01*
X60383183Y-15488743D01*
X60387375Y-15483426D01*
X60391273Y-15477892D01*
X60394876Y-15472148D01*
X60398181Y-15466202D01*
X60401185Y-15460060D01*
X60403884Y-15453730D01*
X60406277Y-15447219D01*
X60408360Y-15440534D01*
X60410130Y-15433683D01*
X60411585Y-15426672D01*
X60412722Y-15419509D01*
X60413537Y-15412202D01*
X60414028Y-15404757D01*
X60414193Y-15397181D01*
X60414028Y-15389724D01*
X60413537Y-15382390D01*
X60412722Y-15375187D01*
X60411585Y-15368122D01*
X60410130Y-15361202D01*
X60408360Y-15354435D01*
X60406277Y-15347828D01*
X60403884Y-15341389D01*
X60401185Y-15335125D01*
X60398181Y-15329044D01*
X60394876Y-15323153D01*
X60391273Y-15317460D01*
X60387375Y-15311971D01*
X60383183Y-15306696D01*
X60378702Y-15301640D01*
X60373935Y-15296811D01*
X60368883Y-15292218D01*
X60363550Y-15287866D01*
X60357938Y-15283765D01*
X60352051Y-15279921D01*
X60345892Y-15276341D01*
X60339462Y-15273034D01*
X60332766Y-15270006D01*
X60325806Y-15267265D01*
X60318584Y-15264819D01*
X60311104Y-15262675D01*
X60303369Y-15260840D01*
X60295381Y-15259322D01*
X60287143Y-15258128D01*
X60278658Y-15257266D01*
X60269930Y-15256744D01*
X60260960Y-15256568D01*
X59836501Y-15256568D01*
X59836501Y-15113257D01*
X60549170Y-15113257D01*
X60549170Y-15256568D01*
G37*
G36*
X60220024Y-15805077D02*
G01*
X60245810Y-15805884D01*
X60269644Y-15807246D01*
X60291665Y-15809178D01*
X60312017Y-15811694D01*
X60330840Y-15814809D01*
X60348277Y-15818538D01*
X60364470Y-15822894D01*
X60379560Y-15827893D01*
X60393689Y-15833548D01*
X60406999Y-15839875D01*
X60419631Y-15846887D01*
X60431728Y-15854599D01*
X60443431Y-15863027D01*
X60454883Y-15872183D01*
X60466224Y-15882083D01*
X60474430Y-15889782D01*
X60482659Y-15898133D01*
X60490833Y-15907162D01*
X60498876Y-15916898D01*
X60506713Y-15927366D01*
X60514268Y-15938594D01*
X60521464Y-15950609D01*
X60528225Y-15963437D01*
X60534476Y-15977106D01*
X60540140Y-15991642D01*
X60545141Y-16007072D01*
X60549403Y-16023423D01*
X60552851Y-16040722D01*
X60555407Y-16058997D01*
X60556997Y-16078273D01*
X60557544Y-16098578D01*
X60557406Y-16108854D01*
X60556997Y-16118869D01*
X60556328Y-16128628D01*
X60555407Y-16138133D01*
X60554245Y-16147389D01*
X60552851Y-16156397D01*
X60551234Y-16165162D01*
X60549403Y-16173688D01*
X60547369Y-16181976D01*
X60545141Y-16190031D01*
X60542728Y-16197856D01*
X60540140Y-16205455D01*
X60537386Y-16212830D01*
X60534476Y-16219985D01*
X60531419Y-16226924D01*
X60528225Y-16233650D01*
X60521464Y-16246475D01*
X60514268Y-16258487D01*
X60506713Y-16269713D01*
X60498876Y-16280180D01*
X60490833Y-16289915D01*
X60482659Y-16298945D01*
X60474430Y-16307295D01*
X60466224Y-16314994D01*
X60454883Y-16324895D01*
X60443433Y-16334054D01*
X60431731Y-16342485D01*
X60419637Y-16350203D01*
X60407007Y-16357221D01*
X60393699Y-16363554D01*
X60379572Y-16369217D01*
X60364485Y-16374223D01*
X60348294Y-16378586D01*
X60330857Y-16382322D01*
X60312034Y-16385444D01*
X60291682Y-16387966D01*
X60269658Y-16389903D01*
X60245822Y-16391269D01*
X60220030Y-16392078D01*
X60192142Y-16392345D01*
X60164491Y-16392078D01*
X60138910Y-16391269D01*
X60115258Y-16389903D01*
X60093393Y-16387966D01*
X60073177Y-16385444D01*
X60054468Y-16382322D01*
X60037127Y-16378586D01*
X60021014Y-16374223D01*
X60005987Y-16369217D01*
X59991907Y-16363554D01*
X59978633Y-16357221D01*
X59966025Y-16350203D01*
X59953943Y-16342485D01*
X59942246Y-16334054D01*
X59930795Y-16324895D01*
X59919448Y-16314994D01*
X59911241Y-16307295D01*
X59903010Y-16298945D01*
X59894832Y-16289915D01*
X59886783Y-16280180D01*
X59878940Y-16269713D01*
X59871379Y-16258487D01*
X59864176Y-16246474D01*
X59857407Y-16233650D01*
X59851149Y-16219985D01*
X59845478Y-16205455D01*
X59840470Y-16190031D01*
X59836202Y-16173687D01*
X59832749Y-16156397D01*
X59830189Y-16138133D01*
X59828596Y-16118869D01*
X59828048Y-16098579D01*
X59971439Y-16098579D01*
X59971699Y-16107738D01*
X59972464Y-16116773D01*
X59973710Y-16125653D01*
X59975416Y-16134350D01*
X59977559Y-16142834D01*
X59980116Y-16151076D01*
X59983064Y-16159047D01*
X59986381Y-16166717D01*
X59990044Y-16174057D01*
X59994031Y-16181039D01*
X59998318Y-16187632D01*
X60002883Y-16193808D01*
X60007703Y-16199537D01*
X60012756Y-16204790D01*
X60018019Y-16209538D01*
X60020722Y-16211714D01*
X60023470Y-16213752D01*
X60030482Y-16218555D01*
X60037390Y-16222944D01*
X60044315Y-16226933D01*
X60051382Y-16230537D01*
X60058713Y-16233769D01*
X60066433Y-16236645D01*
X60074665Y-16239179D01*
X60083532Y-16241384D01*
X60093157Y-16243276D01*
X60103665Y-16244869D01*
X60115177Y-16246178D01*
X60127819Y-16247216D01*
X60141713Y-16247998D01*
X60156982Y-16248539D01*
X60192142Y-16248954D01*
X60210776Y-16248853D01*
X60227757Y-16248539D01*
X60243208Y-16247998D01*
X60257256Y-16247216D01*
X60270028Y-16246178D01*
X60281648Y-16244869D01*
X60292242Y-16243276D01*
X60301937Y-16241384D01*
X60310858Y-16239179D01*
X60319131Y-16236645D01*
X60326881Y-16233769D01*
X60334235Y-16230537D01*
X60341319Y-16226933D01*
X60348257Y-16222944D01*
X60355176Y-16218555D01*
X60362203Y-16213752D01*
X60367660Y-16209538D01*
X60372927Y-16204790D01*
X60377984Y-16199537D01*
X60382806Y-16193808D01*
X60387372Y-16187632D01*
X60391659Y-16181039D01*
X60395644Y-16174057D01*
X60399306Y-16166717D01*
X60402621Y-16159047D01*
X60405566Y-16151076D01*
X60408121Y-16142834D01*
X60410261Y-16134350D01*
X60411965Y-16125653D01*
X60413210Y-16116773D01*
X60413974Y-16107738D01*
X60414233Y-16098579D01*
X60413973Y-16089406D01*
X60413209Y-16080361D01*
X60411962Y-16071474D01*
X60410256Y-16062772D01*
X60408113Y-16054285D01*
X60405556Y-16046042D01*
X60402608Y-16038071D01*
X60399291Y-16030400D01*
X60395628Y-16023060D01*
X60391641Y-16016078D01*
X60387354Y-16009483D01*
X60382789Y-16003304D01*
X60377969Y-15997570D01*
X60372916Y-15992310D01*
X60367653Y-15987553D01*
X60364950Y-15985371D01*
X60362203Y-15983326D01*
X60355177Y-15978523D01*
X60348260Y-15974137D01*
X60341328Y-15970152D01*
X60334257Y-15966553D01*
X60326924Y-15963327D01*
X60319204Y-15960458D01*
X60310974Y-15957931D01*
X60302111Y-15955733D01*
X60292490Y-15953848D01*
X60281987Y-15952263D01*
X60270479Y-15950961D01*
X60257843Y-15949929D01*
X60243953Y-15949151D01*
X60228687Y-15948614D01*
X60193531Y-15948202D01*
X60174895Y-15948303D01*
X60157913Y-15948614D01*
X60142458Y-15949151D01*
X60128405Y-15949929D01*
X60115629Y-15950961D01*
X60104004Y-15952263D01*
X60093404Y-15953848D01*
X60083705Y-15955733D01*
X60074781Y-15957931D01*
X60066507Y-15960458D01*
X60058756Y-15963327D01*
X60051403Y-15966553D01*
X60044324Y-15970152D01*
X60037392Y-15974137D01*
X60030483Y-15978523D01*
X60023470Y-15983326D01*
X60018013Y-15987553D01*
X60012745Y-15992310D01*
X60007688Y-15997570D01*
X60002866Y-16003304D01*
X59998300Y-16009483D01*
X59994013Y-16016078D01*
X59990028Y-16023060D01*
X59986366Y-16030400D01*
X59983052Y-16038071D01*
X59980106Y-16046042D01*
X59977551Y-16054285D01*
X59975411Y-16062772D01*
X59973707Y-16071474D01*
X59972462Y-16080361D01*
X59971698Y-16089406D01*
X59971439Y-16098579D01*
X59828048Y-16098579D01*
X59828048Y-16098578D01*
X59828187Y-16088295D01*
X59828596Y-16078273D01*
X59829267Y-16068508D01*
X59830188Y-16058997D01*
X59831353Y-16049736D01*
X59832749Y-16040722D01*
X59834369Y-16031953D01*
X59836202Y-16023423D01*
X59838239Y-16015131D01*
X59840470Y-16007072D01*
X59842886Y-15999243D01*
X59845478Y-15991642D01*
X59848235Y-15984264D01*
X59851149Y-15977106D01*
X59854210Y-15970165D01*
X59857407Y-15963437D01*
X59864176Y-15950609D01*
X59871379Y-15938594D01*
X59878940Y-15927366D01*
X59886783Y-15916898D01*
X59894832Y-15907162D01*
X59903010Y-15898132D01*
X59911241Y-15889782D01*
X59919448Y-15882083D01*
X59930788Y-15872183D01*
X59942235Y-15863027D01*
X59953928Y-15854599D01*
X59966008Y-15846887D01*
X59978615Y-15839875D01*
X59991889Y-15833548D01*
X60005970Y-15827893D01*
X60020999Y-15822894D01*
X60037115Y-15818538D01*
X60054458Y-15814809D01*
X60073169Y-15811694D01*
X60093388Y-15809178D01*
X60115254Y-15807246D01*
X60138909Y-15805884D01*
X60164491Y-15805077D01*
X60192142Y-15804811D01*
X60220024Y-15805077D01*
G37*
G36*
X60351186Y-16474239D02*
G01*
X60363711Y-16475356D01*
X60375881Y-16477196D01*
X60387694Y-16479743D01*
X60399145Y-16482980D01*
X60410231Y-16486889D01*
X60420948Y-16491454D01*
X60431291Y-16496658D01*
X60441257Y-16502484D01*
X60450842Y-16508914D01*
X60460043Y-16515932D01*
X60468855Y-16523521D01*
X60477275Y-16531664D01*
X60485299Y-16540344D01*
X60492922Y-16549543D01*
X60500142Y-16559246D01*
X60506953Y-16569434D01*
X60513354Y-16580091D01*
X60524904Y-16602745D01*
X60534761Y-16627070D01*
X60542895Y-16652931D01*
X60549276Y-16680193D01*
X60553871Y-16708718D01*
X60556651Y-16738372D01*
X60557584Y-16769019D01*
X60557089Y-16790528D01*
X60555604Y-16811830D01*
X60553126Y-16832915D01*
X60549653Y-16853770D01*
X60545183Y-16874388D01*
X60539715Y-16894756D01*
X60533246Y-16914865D01*
X60525775Y-16934704D01*
X60517298Y-16954264D01*
X60507816Y-16973533D01*
X60497325Y-16992501D01*
X60485823Y-17011159D01*
X60473309Y-17029495D01*
X60459780Y-17047499D01*
X60445235Y-17065161D01*
X60429671Y-17082471D01*
X60331326Y-16982696D01*
X60342319Y-16971031D01*
X60352615Y-16959201D01*
X60362213Y-16947173D01*
X60371111Y-16934914D01*
X60379307Y-16922391D01*
X60386800Y-16909572D01*
X60393587Y-16896423D01*
X60399667Y-16882912D01*
X60405039Y-16869005D01*
X60409700Y-16854671D01*
X60413648Y-16839875D01*
X60416883Y-16824585D01*
X60419402Y-16808768D01*
X60421203Y-16792391D01*
X60422285Y-16775422D01*
X60422646Y-16757827D01*
X60422556Y-16750255D01*
X60422285Y-16742821D01*
X60421833Y-16735532D01*
X60421201Y-16728393D01*
X60420390Y-16721413D01*
X60419398Y-16714598D01*
X60418227Y-16707954D01*
X60416877Y-16701489D01*
X60415348Y-16695208D01*
X60413640Y-16689119D01*
X60411754Y-16683228D01*
X60409689Y-16677543D01*
X60407447Y-16672069D01*
X60405026Y-16666814D01*
X60402428Y-16661784D01*
X60399652Y-16656986D01*
X60396700Y-16652427D01*
X60393571Y-16648113D01*
X60390265Y-16644051D01*
X60386782Y-16640248D01*
X60383124Y-16636711D01*
X60379290Y-16633446D01*
X60375280Y-16630460D01*
X60371094Y-16627760D01*
X60366734Y-16625353D01*
X60362198Y-16623244D01*
X60357488Y-16621442D01*
X60352604Y-16619952D01*
X60347545Y-16618782D01*
X60342312Y-16617937D01*
X60336906Y-16617426D01*
X60331326Y-16617254D01*
X60326684Y-16617364D01*
X60322243Y-16617691D01*
X60318000Y-16618231D01*
X60313949Y-16618978D01*
X60310086Y-16619928D01*
X60306406Y-16621076D01*
X60302907Y-16622417D01*
X60299582Y-16623945D01*
X60296428Y-16625657D01*
X60293441Y-16627547D01*
X60290616Y-16629611D01*
X60287949Y-16631843D01*
X60285435Y-16634239D01*
X60283070Y-16636794D01*
X60280850Y-16639503D01*
X60278770Y-16642361D01*
X60276826Y-16645363D01*
X60275014Y-16648505D01*
X60271768Y-16655188D01*
X60268996Y-16662369D01*
X60266664Y-16670012D01*
X60264737Y-16678075D01*
X60263180Y-16686522D01*
X60261959Y-16695312D01*
X60261039Y-16704408D01*
X60249807Y-16830931D01*
X60247255Y-16852687D01*
X60243298Y-16873636D01*
X60240796Y-16883782D01*
X60237948Y-16893696D01*
X60234755Y-16903367D01*
X60231219Y-16912786D01*
X60227340Y-16921940D01*
X60223122Y-16930822D01*
X60218564Y-16939419D01*
X60213670Y-16947722D01*
X60208440Y-16955720D01*
X60202876Y-16963404D01*
X60196980Y-16970762D01*
X60190752Y-16977785D01*
X60184196Y-16984462D01*
X60177311Y-16990783D01*
X60170101Y-16996738D01*
X60162566Y-17002315D01*
X60154708Y-17007506D01*
X60146529Y-17012300D01*
X60138029Y-17016686D01*
X60129212Y-17020654D01*
X60120077Y-17024193D01*
X60110628Y-17027295D01*
X60100865Y-17029947D01*
X60090790Y-17032140D01*
X60080404Y-17033864D01*
X60069710Y-17035108D01*
X60058708Y-17035862D01*
X60047401Y-17036116D01*
X60034034Y-17035781D01*
X60021079Y-17034785D01*
X60008538Y-17033143D01*
X59996411Y-17030870D01*
X59984699Y-17027980D01*
X59973403Y-17024488D01*
X59962523Y-17020409D01*
X59952060Y-17015758D01*
X59942016Y-17010548D01*
X59932390Y-17004796D01*
X59923184Y-16998514D01*
X59914398Y-16991719D01*
X59906033Y-16984425D01*
X59898090Y-16976646D01*
X59890569Y-16968397D01*
X59883472Y-16959692D01*
X59876799Y-16950548D01*
X59870551Y-16940977D01*
X59864729Y-16930995D01*
X59859333Y-16920617D01*
X59854364Y-16909857D01*
X59849824Y-16898729D01*
X59842030Y-16875432D01*
X59835957Y-16850841D01*
X59831612Y-16825075D01*
X59829000Y-16798252D01*
X59828128Y-16770487D01*
X59828569Y-16747490D01*
X59829875Y-16725411D01*
X59832022Y-16704211D01*
X59834985Y-16683851D01*
X59838739Y-16664292D01*
X59843260Y-16645495D01*
X59848522Y-16627419D01*
X59854500Y-16610026D01*
X59861171Y-16593276D01*
X59868509Y-16577130D01*
X59876490Y-16561548D01*
X59885088Y-16546492D01*
X59894280Y-16531921D01*
X59904039Y-16517797D01*
X59914342Y-16504080D01*
X59925164Y-16490730D01*
X60029106Y-16579234D01*
X60021889Y-16589792D01*
X60014987Y-16600412D01*
X60008421Y-16611120D01*
X60002211Y-16621942D01*
X59996378Y-16632905D01*
X59990944Y-16644036D01*
X59985928Y-16655361D01*
X59981352Y-16666908D01*
X59977236Y-16678703D01*
X59973601Y-16690772D01*
X59970469Y-16703143D01*
X59967859Y-16715841D01*
X59965793Y-16728894D01*
X59964292Y-16742328D01*
X59963376Y-16756171D01*
X59963066Y-16770448D01*
X59963172Y-16778833D01*
X59963489Y-16786870D01*
X59964011Y-16794563D01*
X59964734Y-16801919D01*
X59965654Y-16808943D01*
X59966767Y-16815640D01*
X59968067Y-16822015D01*
X59969551Y-16828074D01*
X59971214Y-16833822D01*
X59973052Y-16839265D01*
X59975060Y-16844408D01*
X59977235Y-16849256D01*
X59979571Y-16853815D01*
X59982064Y-16858091D01*
X59984709Y-16862088D01*
X59987503Y-16865812D01*
X59990441Y-16869269D01*
X59993519Y-16872463D01*
X59996732Y-16875401D01*
X60000075Y-16878088D01*
X60003545Y-16880528D01*
X60007137Y-16882728D01*
X60010846Y-16884693D01*
X60014668Y-16886428D01*
X60018599Y-16887939D01*
X60022635Y-16889230D01*
X60026770Y-16890309D01*
X60031001Y-16891179D01*
X60035323Y-16891846D01*
X60039731Y-16892316D01*
X60044222Y-16892594D01*
X60048791Y-16892686D01*
X60054581Y-16892416D01*
X60060335Y-16891580D01*
X60066015Y-16890140D01*
X60071584Y-16888056D01*
X60077005Y-16885288D01*
X60082241Y-16881798D01*
X60087255Y-16877547D01*
X60089667Y-16875123D01*
X60092010Y-16872494D01*
X60094280Y-16869656D01*
X60096470Y-16866602D01*
X60098577Y-16863329D01*
X60100597Y-16859831D01*
X60102524Y-16856103D01*
X60104354Y-16852141D01*
X60107704Y-16843494D01*
X60110611Y-16833850D01*
X60113037Y-16823170D01*
X60114946Y-16811416D01*
X60116299Y-16798547D01*
X60124674Y-16680476D01*
X60125829Y-16666894D01*
X60127445Y-16653826D01*
X60129509Y-16641267D01*
X60132012Y-16629210D01*
X60134944Y-16617652D01*
X60138294Y-16606586D01*
X60142051Y-16596006D01*
X60146206Y-16585908D01*
X60150748Y-16576287D01*
X60155667Y-16567135D01*
X60160952Y-16558449D01*
X60166593Y-16550223D01*
X60172581Y-16542451D01*
X60178903Y-16535128D01*
X60185551Y-16528248D01*
X60192514Y-16521806D01*
X60199781Y-16515796D01*
X60207343Y-16510214D01*
X60215188Y-16505053D01*
X60223307Y-16500309D01*
X60231689Y-16495975D01*
X60240324Y-16492047D01*
X60249202Y-16488519D01*
X60258312Y-16485385D01*
X60267643Y-16482640D01*
X60277187Y-16480279D01*
X60296867Y-16476686D01*
X60317269Y-16474562D01*
X60338311Y-16473863D01*
X60351186Y-16474239D01*
G37*
G36*
X60549091Y-17613450D02*
G01*
X60124713Y-17613450D01*
X60115736Y-17613626D01*
X60107001Y-17614149D01*
X60098511Y-17615010D01*
X60090269Y-17616204D01*
X60082277Y-17617722D01*
X60074539Y-17619556D01*
X60067057Y-17621701D01*
X60059833Y-17624147D01*
X60052872Y-17626887D01*
X60046175Y-17629914D01*
X60039746Y-17633221D01*
X60033586Y-17636801D01*
X60027700Y-17640644D01*
X60022090Y-17644745D01*
X60016758Y-17649096D01*
X60011708Y-17653688D01*
X60006942Y-17658516D01*
X60002463Y-17663571D01*
X59998274Y-17668845D01*
X59994378Y-17674332D01*
X59990777Y-17680024D01*
X59987475Y-17685913D01*
X59984474Y-17691992D01*
X59981777Y-17698254D01*
X59979386Y-17704691D01*
X59977305Y-17711295D01*
X59975537Y-17718060D01*
X59974084Y-17724977D01*
X59972949Y-17732040D01*
X59972134Y-17739240D01*
X59971644Y-17746570D01*
X59971480Y-17754023D01*
X59971644Y-17761603D01*
X59972134Y-17769051D01*
X59972949Y-17776362D01*
X59974084Y-17783528D01*
X59975537Y-17790541D01*
X59977305Y-17797395D01*
X59979386Y-17804082D01*
X59981777Y-17810595D01*
X59984474Y-17816927D01*
X59987475Y-17823071D01*
X59990777Y-17829019D01*
X59994378Y-17834764D01*
X59998274Y-17840300D01*
X60002463Y-17845618D01*
X60006942Y-17850712D01*
X60011708Y-17855574D01*
X60016758Y-17860197D01*
X60022089Y-17864574D01*
X60027700Y-17868698D01*
X60033586Y-17872562D01*
X60039745Y-17876158D01*
X60046175Y-17879479D01*
X60052872Y-17882518D01*
X60059833Y-17885267D01*
X60067056Y-17887721D01*
X60074538Y-17889870D01*
X60082277Y-17891709D01*
X60090269Y-17893229D01*
X60098511Y-17894424D01*
X60107001Y-17895287D01*
X60115736Y-17895810D01*
X60124713Y-17895985D01*
X60549091Y-17895985D01*
X60549091Y-18039337D01*
X59836502Y-18039337D01*
X59836502Y-17895985D01*
X59912385Y-17895985D01*
X59912385Y-17893128D01*
X59902176Y-17884475D01*
X59892626Y-17875371D01*
X59883733Y-17865829D01*
X59875499Y-17855861D01*
X59867922Y-17845481D01*
X59861004Y-17834700D01*
X59854744Y-17823531D01*
X59849143Y-17811987D01*
X59844200Y-17800080D01*
X59839915Y-17787823D01*
X59836290Y-17775228D01*
X59833323Y-17762308D01*
X59831016Y-17749076D01*
X59829367Y-17735543D01*
X59828378Y-17721723D01*
X59828048Y-17707629D01*
X59828299Y-17697177D01*
X59829051Y-17686661D01*
X59832048Y-17665540D01*
X59837025Y-17644473D01*
X59843969Y-17623667D01*
X59848174Y-17613428D01*
X59852865Y-17603332D01*
X59858041Y-17593405D01*
X59863699Y-17583673D01*
X59869838Y-17574163D01*
X59876456Y-17564901D01*
X59883551Y-17555912D01*
X59891122Y-17547222D01*
X59899166Y-17538857D01*
X59907682Y-17530844D01*
X59916669Y-17523208D01*
X59926124Y-17515975D01*
X59936045Y-17509172D01*
X59946431Y-17502824D01*
X59957280Y-17496957D01*
X59968590Y-17491597D01*
X59980360Y-17486771D01*
X59992587Y-17482503D01*
X60005270Y-17478821D01*
X60018407Y-17475751D01*
X60031997Y-17473317D01*
X60046036Y-17471546D01*
X60060525Y-17470465D01*
X60075460Y-17470099D01*
X60549091Y-17470099D01*
X60549091Y-17613450D01*
G37*
G36*
X60246949Y-18605836D02*
G01*
X60257719Y-18605627D01*
X60268151Y-18605007D01*
X60278245Y-18603983D01*
X60288000Y-18602564D01*
X60297417Y-18600758D01*
X60306495Y-18598573D01*
X60315233Y-18596017D01*
X60323633Y-18593099D01*
X60331692Y-18589827D01*
X60339411Y-18586208D01*
X60346790Y-18582252D01*
X60353829Y-18577967D01*
X60360527Y-18573360D01*
X60366883Y-18568441D01*
X60372899Y-18563216D01*
X60378572Y-18557695D01*
X60383904Y-18551886D01*
X60388894Y-18545796D01*
X60393542Y-18539435D01*
X60397847Y-18532809D01*
X60401809Y-18525929D01*
X60405427Y-18518801D01*
X60408703Y-18511434D01*
X60411635Y-18503837D01*
X60414222Y-18496016D01*
X60416466Y-18487982D01*
X60418365Y-18479742D01*
X60419920Y-18471303D01*
X60421129Y-18462675D01*
X60421993Y-18453866D01*
X60422512Y-18444883D01*
X60422685Y-18435735D01*
X60422390Y-18425415D01*
X60421512Y-18415026D01*
X60420061Y-18404601D01*
X60418048Y-18394169D01*
X60415483Y-18383763D01*
X60412376Y-18373412D01*
X60408737Y-18363148D01*
X60404578Y-18353002D01*
X60399908Y-18343004D01*
X60394738Y-18333185D01*
X60389077Y-18323576D01*
X60382937Y-18314208D01*
X60376328Y-18305112D01*
X60369260Y-18296319D01*
X60361743Y-18287859D01*
X60353788Y-18279764D01*
X60442291Y-18175743D01*
X60457019Y-18189164D01*
X60470648Y-18203053D01*
X60483198Y-18217387D01*
X60494690Y-18232140D01*
X60505144Y-18247288D01*
X60514581Y-18262806D01*
X60523022Y-18278670D01*
X60530487Y-18294855D01*
X60536996Y-18311337D01*
X60542571Y-18328091D01*
X60547232Y-18345092D01*
X60550999Y-18362317D01*
X60553893Y-18379741D01*
X60555935Y-18397338D01*
X60557145Y-18415085D01*
X60557544Y-18432957D01*
X60556682Y-18460597D01*
X60553951Y-18488512D01*
X60549127Y-18516419D01*
X60541988Y-18544033D01*
X60532312Y-18571071D01*
X60526454Y-18584285D01*
X60519878Y-18597249D01*
X60512557Y-18609926D01*
X60504462Y-18622282D01*
X60495567Y-18634280D01*
X60485843Y-18645886D01*
X60475263Y-18657063D01*
X60463799Y-18667777D01*
X60451423Y-18677991D01*
X60438107Y-18687671D01*
X60423824Y-18696780D01*
X60408546Y-18705284D01*
X60392245Y-18713146D01*
X60374893Y-18720331D01*
X60356462Y-18726804D01*
X60336926Y-18732530D01*
X60316255Y-18737471D01*
X60294422Y-18741594D01*
X60271400Y-18744863D01*
X60247161Y-18747242D01*
X60221676Y-18748695D01*
X60194919Y-18749187D01*
X60169508Y-18748736D01*
X60145174Y-18747402D01*
X60128919Y-18745877D01*
X60121899Y-18745218D01*
X60099666Y-18742216D01*
X60078457Y-18738428D01*
X60058254Y-18733885D01*
X60039039Y-18728620D01*
X60020795Y-18722664D01*
X60003504Y-18716049D01*
X59987149Y-18708807D01*
X59971711Y-18700970D01*
X59957172Y-18692570D01*
X59943516Y-18683639D01*
X59930723Y-18674208D01*
X59918778Y-18664310D01*
X59907661Y-18653977D01*
X59897356Y-18643240D01*
X59887843Y-18632130D01*
X59879107Y-18620681D01*
X59871128Y-18608924D01*
X59863890Y-18596891D01*
X59857374Y-18584614D01*
X59851562Y-18572124D01*
X59846438Y-18559454D01*
X59841983Y-18546635D01*
X59838180Y-18533699D01*
X59835010Y-18520679D01*
X59832456Y-18507605D01*
X59829126Y-18481427D01*
X59828048Y-18455420D01*
X59963026Y-18455420D01*
X59963194Y-18463264D01*
X59963699Y-18470977D01*
X59964539Y-18478552D01*
X59965712Y-18485982D01*
X59967217Y-18493259D01*
X59969054Y-18500377D01*
X59971221Y-18507328D01*
X59973716Y-18514106D01*
X59976539Y-18520702D01*
X59979687Y-18527110D01*
X59983161Y-18533322D01*
X59986958Y-18539331D01*
X59991077Y-18545131D01*
X59995518Y-18550713D01*
X60000278Y-18556071D01*
X60005357Y-18561197D01*
X60010754Y-18566085D01*
X60016466Y-18570726D01*
X60022493Y-18575115D01*
X60028834Y-18579242D01*
X60035486Y-18583102D01*
X60042450Y-18586688D01*
X60049724Y-18589991D01*
X60057306Y-18593005D01*
X60065196Y-18595722D01*
X60073391Y-18598136D01*
X60081891Y-18600238D01*
X60090695Y-18602023D01*
X60099801Y-18603482D01*
X60109208Y-18604609D01*
X60118914Y-18605396D01*
X60128919Y-18605836D01*
X60128919Y-18305044D01*
X60118914Y-18305607D01*
X60109208Y-18306500D01*
X60099801Y-18307718D01*
X60090695Y-18309255D01*
X60081892Y-18311103D01*
X60073391Y-18313257D01*
X60065196Y-18315710D01*
X60057307Y-18318456D01*
X60049724Y-18321488D01*
X60042451Y-18324799D01*
X60035487Y-18328384D01*
X60028834Y-18332236D01*
X60022493Y-18336348D01*
X60016466Y-18340715D01*
X60010754Y-18345329D01*
X60005358Y-18350184D01*
X60000279Y-18355274D01*
X59995518Y-18360592D01*
X59991078Y-18366132D01*
X59986958Y-18371888D01*
X59983161Y-18377853D01*
X59979687Y-18384020D01*
X59976539Y-18390383D01*
X59973716Y-18396936D01*
X59971221Y-18403673D01*
X59969054Y-18410586D01*
X59967217Y-18417670D01*
X59965712Y-18424918D01*
X59964539Y-18432323D01*
X59963699Y-18439880D01*
X59963194Y-18447581D01*
X59963026Y-18455420D01*
X59828048Y-18455420D01*
X59828388Y-18440729D01*
X59829403Y-18426183D01*
X59831083Y-18411802D01*
X59833420Y-18397608D01*
X59836404Y-18383622D01*
X59840026Y-18369865D01*
X59844278Y-18356358D01*
X59849151Y-18343122D01*
X59854635Y-18330179D01*
X59860722Y-18317548D01*
X59867402Y-18305253D01*
X59874667Y-18293313D01*
X59882508Y-18281750D01*
X59890915Y-18270584D01*
X59899879Y-18259838D01*
X59909392Y-18249531D01*
X59919445Y-18239686D01*
X59930029Y-18230323D01*
X59941134Y-18221463D01*
X59952752Y-18213128D01*
X59964873Y-18205338D01*
X59977489Y-18198115D01*
X59990591Y-18191480D01*
X60004169Y-18185454D01*
X60018216Y-18180057D01*
X60032720Y-18175312D01*
X60047675Y-18171238D01*
X60063070Y-18167858D01*
X60078897Y-18165193D01*
X60095147Y-18163263D01*
X60111811Y-18162089D01*
X60128879Y-18161693D01*
X60246949Y-18161693D01*
X60246949Y-18605836D01*
G37*
G36*
X60220024Y-19537726D02*
G01*
X60245810Y-19538534D01*
X60269644Y-19539898D01*
X60291665Y-19541833D01*
X60312017Y-19544352D01*
X60330840Y-19547471D01*
X60348277Y-19551203D01*
X60364470Y-19555563D01*
X60379560Y-19560565D01*
X60393689Y-19566224D01*
X60406999Y-19572554D01*
X60419631Y-19579569D01*
X60431728Y-19587284D01*
X60443431Y-19595714D01*
X60454883Y-19604871D01*
X60466224Y-19614772D01*
X60474430Y-19622471D01*
X60482659Y-19630823D01*
X60490833Y-19639854D01*
X60498876Y-19649592D01*
X60506713Y-19660062D01*
X60514268Y-19671292D01*
X60521464Y-19683307D01*
X60528225Y-19696136D01*
X60534476Y-19709804D01*
X60540140Y-19724338D01*
X60545141Y-19739765D01*
X60549403Y-19756112D01*
X60552851Y-19773405D01*
X60555407Y-19791670D01*
X60556997Y-19810936D01*
X60557544Y-19831227D01*
X60557406Y-19841506D01*
X60556997Y-19851526D01*
X60556328Y-19861288D01*
X60555407Y-19870797D01*
X60554245Y-19880056D01*
X60552851Y-19889068D01*
X60551234Y-19897837D01*
X60549403Y-19906365D01*
X60547369Y-19914657D01*
X60545141Y-19922716D01*
X60542728Y-19930544D01*
X60540140Y-19938146D01*
X60537386Y-19945525D01*
X60534476Y-19952683D01*
X60531419Y-19959625D01*
X60528225Y-19966353D01*
X60521464Y-19979183D01*
X60514268Y-19991200D01*
X60506713Y-20002431D01*
X60498876Y-20012902D01*
X60490833Y-20022639D01*
X60482659Y-20031671D01*
X60474430Y-20040023D01*
X60466224Y-20047722D01*
X60454883Y-20057622D01*
X60443433Y-20066779D01*
X60431731Y-20075206D01*
X60419637Y-20082918D01*
X60407007Y-20089931D01*
X60393699Y-20096257D01*
X60379572Y-20101913D01*
X60364485Y-20106911D01*
X60348294Y-20111268D01*
X60330857Y-20114996D01*
X60312034Y-20118111D01*
X60291682Y-20120628D01*
X60269658Y-20122560D01*
X60245822Y-20123922D01*
X60220030Y-20124728D01*
X60192142Y-20124994D01*
X60164491Y-20124728D01*
X60138910Y-20123922D01*
X60115258Y-20122560D01*
X60093393Y-20120628D01*
X60073177Y-20118111D01*
X60054468Y-20114996D01*
X60037127Y-20111268D01*
X60021014Y-20106911D01*
X60005987Y-20101913D01*
X59991907Y-20096257D01*
X59978633Y-20089931D01*
X59966025Y-20082918D01*
X59953943Y-20075206D01*
X59942246Y-20066779D01*
X59930795Y-20057622D01*
X59919448Y-20047722D01*
X59911241Y-20040023D01*
X59903010Y-20031671D01*
X59894832Y-20022639D01*
X59886783Y-20012902D01*
X59878940Y-20002431D01*
X59871379Y-19991200D01*
X59864176Y-19979183D01*
X59857407Y-19966353D01*
X59851149Y-19952683D01*
X59845478Y-19938146D01*
X59840470Y-19922716D01*
X59836202Y-19906365D01*
X59832749Y-19889068D01*
X59830189Y-19870797D01*
X59828596Y-19851526D01*
X59828048Y-19831227D01*
X59971439Y-19831227D01*
X59971699Y-19840400D01*
X59972464Y-19849444D01*
X59973710Y-19858332D01*
X59975416Y-19867033D01*
X59977559Y-19875520D01*
X59980116Y-19883764D01*
X59983064Y-19891735D01*
X59986381Y-19899405D01*
X59990044Y-19906746D01*
X59994031Y-19913728D01*
X59998318Y-19920323D01*
X60002883Y-19926501D01*
X60007703Y-19932235D01*
X60012756Y-19937495D01*
X60018019Y-19942253D01*
X60020722Y-19944435D01*
X60023470Y-19946480D01*
X60030482Y-19951276D01*
X60037390Y-19955659D01*
X60044315Y-19959643D01*
X60051382Y-19963242D01*
X60058713Y-19966471D01*
X60066433Y-19969343D01*
X60074665Y-19971874D01*
X60083532Y-19974077D01*
X60093157Y-19975968D01*
X60103665Y-19977560D01*
X60115177Y-19978867D01*
X60127819Y-19979905D01*
X60141713Y-19980687D01*
X60156982Y-19981227D01*
X60192142Y-19981643D01*
X60210776Y-19981541D01*
X60227757Y-19981227D01*
X60243208Y-19980687D01*
X60257256Y-19979905D01*
X60270028Y-19978867D01*
X60281648Y-19977560D01*
X60292242Y-19975968D01*
X60301937Y-19974077D01*
X60310858Y-19971874D01*
X60319131Y-19969343D01*
X60326881Y-19966471D01*
X60334235Y-19963242D01*
X60341319Y-19959643D01*
X60348257Y-19955659D01*
X60355176Y-19951276D01*
X60362203Y-19946480D01*
X60367660Y-19942253D01*
X60372927Y-19937495D01*
X60377984Y-19932235D01*
X60382806Y-19926501D01*
X60387372Y-19920323D01*
X60391659Y-19913728D01*
X60395644Y-19906746D01*
X60399306Y-19899405D01*
X60402621Y-19891735D01*
X60405566Y-19883764D01*
X60408121Y-19875520D01*
X60410261Y-19867033D01*
X60411965Y-19858332D01*
X60413210Y-19849444D01*
X60413974Y-19840400D01*
X60414233Y-19831227D01*
X60413973Y-19822061D01*
X60413209Y-19813023D01*
X60411962Y-19804141D01*
X60410256Y-19795443D01*
X60408113Y-19786960D01*
X60405556Y-19778718D01*
X60402608Y-19770749D01*
X60399291Y-19763079D01*
X60395628Y-19755738D01*
X60391641Y-19748754D01*
X60387354Y-19742157D01*
X60382789Y-19735975D01*
X60377969Y-19730237D01*
X60372916Y-19724972D01*
X60367653Y-19720208D01*
X60364950Y-19718023D01*
X60362203Y-19715975D01*
X60355177Y-19711179D01*
X60348260Y-19706797D01*
X60341328Y-19702815D01*
X60334257Y-19699218D01*
X60326924Y-19695993D01*
X60319204Y-19693124D01*
X60310974Y-19690597D01*
X60302111Y-19688397D01*
X60292490Y-19686510D01*
X60281987Y-19684922D01*
X60270479Y-19683618D01*
X60257843Y-19682583D01*
X60243953Y-19681804D01*
X60228687Y-19681265D01*
X60193531Y-19680851D01*
X60174895Y-19680952D01*
X60157913Y-19681265D01*
X60142458Y-19681804D01*
X60128405Y-19682583D01*
X60115629Y-19683618D01*
X60104004Y-19684922D01*
X60093404Y-19686510D01*
X60083705Y-19688397D01*
X60074781Y-19690597D01*
X60066507Y-19693124D01*
X60058756Y-19695993D01*
X60051403Y-19699218D01*
X60044324Y-19702815D01*
X60037392Y-19706797D01*
X60030483Y-19711179D01*
X60023470Y-19715975D01*
X60018013Y-19720208D01*
X60012745Y-19724972D01*
X60007688Y-19730237D01*
X60002866Y-19735975D01*
X59998300Y-19742157D01*
X59994013Y-19748754D01*
X59990028Y-19755738D01*
X59986366Y-19763079D01*
X59983052Y-19770749D01*
X59980106Y-19778719D01*
X59977551Y-19786960D01*
X59975411Y-19795443D01*
X59973707Y-19804141D01*
X59972462Y-19813023D01*
X59971698Y-19822061D01*
X59971439Y-19831227D01*
X59828048Y-19831227D01*
X59828187Y-19820951D01*
X59828596Y-19810936D01*
X59829267Y-19801176D01*
X59830188Y-19791670D01*
X59831353Y-19782414D01*
X59832749Y-19773405D01*
X59834369Y-19764638D01*
X59836202Y-19756112D01*
X59838239Y-19747822D01*
X59840470Y-19739765D01*
X59842886Y-19731938D01*
X59845478Y-19724338D01*
X59848235Y-19716961D01*
X59851149Y-19709804D01*
X59854210Y-19702863D01*
X59857407Y-19696136D01*
X59864176Y-19683307D01*
X59871379Y-19671292D01*
X59878940Y-19660062D01*
X59886783Y-19649592D01*
X59894832Y-19639854D01*
X59903010Y-19630823D01*
X59911241Y-19622471D01*
X59919448Y-19614772D01*
X59930788Y-19604871D01*
X59942235Y-19595714D01*
X59953928Y-19587284D01*
X59966008Y-19579569D01*
X59978615Y-19572554D01*
X59991889Y-19566224D01*
X60005970Y-19560565D01*
X60020999Y-19555563D01*
X60037115Y-19551203D01*
X60054458Y-19547471D01*
X60073169Y-19544352D01*
X60093388Y-19541833D01*
X60115254Y-19539898D01*
X60138909Y-19538534D01*
X60164491Y-19537726D01*
X60192142Y-19537460D01*
X60220024Y-19537726D01*
G37*
G36*
X61372527Y-14506871D02*
G01*
X61383290Y-14506663D01*
X61393715Y-14506043D01*
X61403803Y-14505019D01*
X61413552Y-14503601D01*
X61422964Y-14501796D01*
X61432036Y-14499612D01*
X61440770Y-14497057D01*
X61449165Y-14494140D01*
X61457220Y-14490869D01*
X61464936Y-14487253D01*
X61472312Y-14483298D01*
X61479347Y-14479015D01*
X61486042Y-14474410D01*
X61492396Y-14469492D01*
X61498409Y-14464269D01*
X61504081Y-14458750D01*
X61509411Y-14452942D01*
X61514400Y-14446855D01*
X61519046Y-14440495D01*
X61523350Y-14433872D01*
X61527311Y-14426993D01*
X61530929Y-14419867D01*
X61534204Y-14412501D01*
X61537135Y-14404905D01*
X61539722Y-14397086D01*
X61541966Y-14389053D01*
X61543865Y-14380814D01*
X61545419Y-14372376D01*
X61546628Y-14363749D01*
X61547492Y-14354940D01*
X61548011Y-14345958D01*
X61548184Y-14336810D01*
X61547890Y-14326503D01*
X61547014Y-14316126D01*
X61545567Y-14305709D01*
X61543558Y-14295284D01*
X61540998Y-14284881D01*
X61537896Y-14274533D01*
X61534262Y-14264269D01*
X61530107Y-14254122D01*
X61525440Y-14244121D01*
X61520271Y-14234298D01*
X61514611Y-14224685D01*
X61508469Y-14215311D01*
X61501856Y-14206209D01*
X61494781Y-14197408D01*
X61487255Y-14188942D01*
X61479287Y-14180839D01*
X61567869Y-14076818D01*
X61582597Y-14090239D01*
X61596226Y-14104128D01*
X61608776Y-14118462D01*
X61620268Y-14133214D01*
X61630722Y-14148361D01*
X61640159Y-14163878D01*
X61648600Y-14179741D01*
X61656065Y-14195925D01*
X61662574Y-14212404D01*
X61668149Y-14229156D01*
X61672810Y-14246154D01*
X61676577Y-14263375D01*
X61679471Y-14280794D01*
X61681513Y-14298386D01*
X61682723Y-14316127D01*
X61683122Y-14333992D01*
X61682261Y-14361639D01*
X61679529Y-14389560D01*
X61674705Y-14417472D01*
X61667565Y-14445091D01*
X61657888Y-14472133D01*
X61652029Y-14485349D01*
X61645452Y-14498314D01*
X61638129Y-14510992D01*
X61630034Y-14523349D01*
X61621137Y-14535349D01*
X61611411Y-14546955D01*
X61600829Y-14558134D01*
X61589363Y-14568848D01*
X61576984Y-14579063D01*
X61563666Y-14588743D01*
X61549380Y-14597853D01*
X61534098Y-14606357D01*
X61517793Y-14614220D01*
X61500437Y-14621405D01*
X61482002Y-14627879D01*
X61462461Y-14633604D01*
X61441785Y-14638546D01*
X61419947Y-14642669D01*
X61396919Y-14645938D01*
X61372673Y-14648316D01*
X61347182Y-14649769D01*
X61320418Y-14650262D01*
X61295007Y-14649810D01*
X61270673Y-14648476D01*
X61254417Y-14646950D01*
X61247400Y-14646292D01*
X61225168Y-14643289D01*
X61203960Y-14639500D01*
X61183759Y-14634956D01*
X61164547Y-14629690D01*
X61146306Y-14623733D01*
X61129018Y-14617117D01*
X61112665Y-14609874D01*
X61097230Y-14602035D01*
X61082695Y-14593634D01*
X61069042Y-14584702D01*
X61056254Y-14575270D01*
X61044312Y-14565371D01*
X61033199Y-14555037D01*
X61022897Y-14544299D01*
X61013388Y-14533189D01*
X61004656Y-14521739D01*
X60996680Y-14509982D01*
X60989445Y-14497948D01*
X60982933Y-14485671D01*
X60977124Y-14473181D01*
X60972003Y-14460512D01*
X60967551Y-14447694D01*
X60963750Y-14434759D01*
X60960582Y-14421740D01*
X60958030Y-14408669D01*
X60954703Y-14382496D01*
X60953625Y-14356495D01*
X61088523Y-14356495D01*
X61088692Y-14364339D01*
X61089197Y-14372052D01*
X61090038Y-14379627D01*
X61091212Y-14387057D01*
X61092720Y-14394334D01*
X61094558Y-14401452D01*
X61096727Y-14408403D01*
X61099224Y-14415180D01*
X61102049Y-14421776D01*
X61105201Y-14428184D01*
X61108677Y-14434395D01*
X61112476Y-14440404D01*
X61116598Y-14446203D01*
X61121041Y-14451785D01*
X61125803Y-14457142D01*
X61130884Y-14462267D01*
X61136282Y-14467154D01*
X61141996Y-14471794D01*
X61148024Y-14476181D01*
X61154366Y-14480307D01*
X61161019Y-14484166D01*
X61167983Y-14487749D01*
X61175256Y-14491051D01*
X61182837Y-14494063D01*
X61190725Y-14496778D01*
X61198918Y-14499189D01*
X61207415Y-14501289D01*
X61216215Y-14503071D01*
X61225317Y-14504528D01*
X61234718Y-14505651D01*
X61244419Y-14506435D01*
X61254417Y-14506871D01*
X61254417Y-14206119D01*
X61244419Y-14206678D01*
X61234718Y-14207568D01*
X61225317Y-14208784D01*
X61216215Y-14210318D01*
X61207415Y-14212165D01*
X61198918Y-14214317D01*
X61190725Y-14216769D01*
X61182837Y-14219514D01*
X61175256Y-14222545D01*
X61167983Y-14225856D01*
X61161019Y-14229441D01*
X61154366Y-14233293D01*
X61148025Y-14237406D01*
X61141996Y-14241773D01*
X61136283Y-14246388D01*
X61130885Y-14251244D01*
X61125804Y-14256335D01*
X61121041Y-14261654D01*
X61116598Y-14267196D01*
X61112476Y-14272952D01*
X61108677Y-14278918D01*
X61105201Y-14285087D01*
X61102049Y-14291451D01*
X61099224Y-14298006D01*
X61096727Y-14304743D01*
X61094558Y-14311658D01*
X61092720Y-14318743D01*
X61091212Y-14325991D01*
X61090038Y-14333397D01*
X61089197Y-14340954D01*
X61088692Y-14348656D01*
X61088523Y-14356495D01*
X60953625Y-14356495D01*
X60953965Y-14341804D01*
X60954980Y-14327258D01*
X60956660Y-14312878D01*
X60958997Y-14298685D01*
X60961981Y-14284700D01*
X60965603Y-14270944D01*
X60969855Y-14257438D01*
X60974727Y-14244203D01*
X60980211Y-14231261D01*
X60986297Y-14218633D01*
X60992976Y-14206339D01*
X61000240Y-14194401D01*
X61008080Y-14182839D01*
X61016485Y-14171676D01*
X61025448Y-14160931D01*
X61034960Y-14150627D01*
X61045011Y-14140783D01*
X61055592Y-14131422D01*
X61066695Y-14122564D01*
X61078310Y-14114230D01*
X61090428Y-14106442D01*
X61103041Y-14099221D01*
X61116139Y-14092587D01*
X61129713Y-14086562D01*
X61143755Y-14081167D01*
X61158255Y-14076423D01*
X61173205Y-14072351D01*
X61188594Y-14068971D01*
X61204416Y-14066307D01*
X61220659Y-14064377D01*
X61237316Y-14063204D01*
X61254377Y-14062808D01*
X61372527Y-14062808D01*
X61372527Y-14506871D01*
G37*
G36*
X61132180Y-14756942D02*
G01*
X61127605Y-14763157D01*
X61123386Y-14769174D01*
X61119514Y-14775025D01*
X61115981Y-14780744D01*
X61112778Y-14786364D01*
X61109897Y-14791918D01*
X61107330Y-14797439D01*
X61105069Y-14802960D01*
X61103104Y-14808515D01*
X61101429Y-14814137D01*
X61100034Y-14819858D01*
X61098912Y-14825712D01*
X61098053Y-14831733D01*
X61097450Y-14837952D01*
X61097094Y-14844404D01*
X61096977Y-14851121D01*
X61097509Y-14864273D01*
X61099116Y-14877291D01*
X61101820Y-14890077D01*
X61105640Y-14902531D01*
X61107975Y-14908603D01*
X61110597Y-14914556D01*
X61113508Y-14920376D01*
X61116711Y-14926052D01*
X61120209Y-14931571D01*
X61124003Y-14936922D01*
X61128097Y-14942090D01*
X61132493Y-14947065D01*
X61137193Y-14951834D01*
X61142200Y-14956385D01*
X61147517Y-14960705D01*
X61153146Y-14964782D01*
X61159090Y-14968604D01*
X61165351Y-14972158D01*
X61171932Y-14975432D01*
X61178835Y-14978414D01*
X61186062Y-14981091D01*
X61193617Y-14983451D01*
X61201502Y-14985482D01*
X61209720Y-14987171D01*
X61218272Y-14988506D01*
X61227162Y-14989475D01*
X61236392Y-14990066D01*
X61245964Y-14990265D01*
X61674708Y-14990265D01*
X61674708Y-15133577D01*
X60962118Y-15133577D01*
X60962118Y-14990265D01*
X61038001Y-14990265D01*
X61038001Y-14987408D01*
X61027793Y-14978748D01*
X61018243Y-14969639D01*
X61009350Y-14960094D01*
X61001116Y-14950124D01*
X60993539Y-14939743D01*
X60986621Y-14928962D01*
X60980361Y-14917794D01*
X60974759Y-14906252D01*
X60969816Y-14894347D01*
X60965532Y-14882092D01*
X60961907Y-14869500D01*
X60958940Y-14856582D01*
X60956633Y-14843352D01*
X60954984Y-14829821D01*
X60953995Y-14816003D01*
X60953665Y-14801909D01*
X60953910Y-14791224D01*
X60954637Y-14780760D01*
X60955832Y-14770509D01*
X60957485Y-14760463D01*
X60959583Y-14750613D01*
X60962112Y-14740951D01*
X60965062Y-14731470D01*
X60968419Y-14722161D01*
X60972172Y-14713017D01*
X60976307Y-14704028D01*
X60980814Y-14695187D01*
X60985678Y-14686487D01*
X60990889Y-14677918D01*
X60996433Y-14669473D01*
X61002299Y-14661143D01*
X61008474Y-14652921D01*
X61132180Y-14756942D01*
G37*
G36*
X61674708Y-15434527D02*
G01*
X61611446Y-15434527D01*
X61611446Y-15437305D01*
X61620368Y-15443080D01*
X61628669Y-15449357D01*
X61636354Y-15456179D01*
X61643430Y-15463586D01*
X61649904Y-15471620D01*
X61655782Y-15480321D01*
X61661069Y-15489729D01*
X61665774Y-15499888D01*
X61669901Y-15510836D01*
X61673457Y-15522615D01*
X61676449Y-15535267D01*
X61678882Y-15548831D01*
X61680764Y-15563350D01*
X61682100Y-15578864D01*
X61682897Y-15595414D01*
X61683162Y-15613042D01*
X61682888Y-15627737D01*
X61682074Y-15642042D01*
X61680732Y-15655949D01*
X61678873Y-15669455D01*
X61676510Y-15682554D01*
X61673655Y-15695242D01*
X61670319Y-15707513D01*
X61666513Y-15719363D01*
X61662251Y-15730787D01*
X61657543Y-15741780D01*
X61652402Y-15752337D01*
X61646839Y-15762454D01*
X61640867Y-15772124D01*
X61634497Y-15781344D01*
X61627740Y-15790108D01*
X61620609Y-15798412D01*
X61613116Y-15806251D01*
X61605272Y-15813619D01*
X61597090Y-15820512D01*
X61588580Y-15826926D01*
X61579756Y-15832854D01*
X61570628Y-15838292D01*
X61561209Y-15843236D01*
X61551510Y-15847680D01*
X61541544Y-15851620D01*
X61531322Y-15855050D01*
X61520855Y-15857966D01*
X61510157Y-15860363D01*
X61499238Y-15862236D01*
X61488111Y-15863580D01*
X61476786Y-15864389D01*
X61465277Y-15864660D01*
X61458252Y-15864508D01*
X61454658Y-15864430D01*
X61444152Y-15863738D01*
X61433773Y-15862587D01*
X61423537Y-15860976D01*
X61413458Y-15858907D01*
X61403551Y-15856381D01*
X61393830Y-15853397D01*
X61384311Y-15849958D01*
X61375008Y-15846064D01*
X61365935Y-15841715D01*
X61357107Y-15836913D01*
X61348540Y-15831658D01*
X61340247Y-15825951D01*
X61332243Y-15819793D01*
X61324544Y-15813184D01*
X61317163Y-15806126D01*
X61310116Y-15798620D01*
X61303417Y-15790665D01*
X61297081Y-15782264D01*
X61291122Y-15773416D01*
X61285556Y-15764123D01*
X61280397Y-15754385D01*
X61275659Y-15744203D01*
X61271358Y-15733578D01*
X61267507Y-15722511D01*
X61264122Y-15711003D01*
X61261218Y-15699054D01*
X61258809Y-15686665D01*
X61256910Y-15673837D01*
X61255535Y-15660570D01*
X61254699Y-15646867D01*
X61254417Y-15632727D01*
X61254417Y-15605938D01*
X61372448Y-15605938D01*
X61372546Y-15613713D01*
X61372840Y-15621225D01*
X61373325Y-15628476D01*
X61374000Y-15635467D01*
X61374862Y-15642198D01*
X61375907Y-15648671D01*
X61377134Y-15654887D01*
X61378538Y-15660846D01*
X61380117Y-15666550D01*
X61381869Y-15672000D01*
X61383790Y-15677196D01*
X61385878Y-15682141D01*
X61388129Y-15686834D01*
X61390542Y-15691277D01*
X61393112Y-15695471D01*
X61395838Y-15699417D01*
X61398717Y-15703115D01*
X61401745Y-15706568D01*
X61404919Y-15709776D01*
X61408238Y-15712739D01*
X61411698Y-15715460D01*
X61415295Y-15717939D01*
X61419029Y-15720176D01*
X61422895Y-15722174D01*
X61426890Y-15723933D01*
X61431013Y-15725454D01*
X61435259Y-15726739D01*
X61439627Y-15727787D01*
X61444112Y-15728601D01*
X61448714Y-15729181D01*
X61453428Y-15729528D01*
X61458252Y-15729644D01*
X61467130Y-15729193D01*
X61475824Y-15727822D01*
X61484281Y-15725499D01*
X61492446Y-15722194D01*
X61496403Y-15720164D01*
X61500266Y-15717876D01*
X61504031Y-15715327D01*
X61507688Y-15712513D01*
X61511233Y-15709431D01*
X61514658Y-15706076D01*
X61517957Y-15702445D01*
X61521122Y-15698534D01*
X61524148Y-15694338D01*
X61527027Y-15689855D01*
X61529752Y-15685080D01*
X61532318Y-15680009D01*
X61534717Y-15674639D01*
X61536942Y-15668966D01*
X61538988Y-15662985D01*
X61540846Y-15656694D01*
X61543976Y-15643162D01*
X61546278Y-15628341D01*
X61547699Y-15612199D01*
X61548184Y-15594706D01*
X61548015Y-15573220D01*
X61547425Y-15553524D01*
X61546287Y-15535560D01*
X61544476Y-15519275D01*
X61543279Y-15511744D01*
X61541867Y-15504612D01*
X61540223Y-15497871D01*
X61538333Y-15491515D01*
X61536180Y-15485537D01*
X61533748Y-15479929D01*
X61531023Y-15474686D01*
X61527988Y-15469799D01*
X61524627Y-15465263D01*
X61520926Y-15461069D01*
X61516867Y-15457212D01*
X61512436Y-15453683D01*
X61507616Y-15450477D01*
X61502393Y-15447586D01*
X61496750Y-15445004D01*
X61490671Y-15442723D01*
X61484141Y-15440736D01*
X61477144Y-15439036D01*
X61469665Y-15437617D01*
X61461687Y-15436472D01*
X61453195Y-15435593D01*
X61444173Y-15434974D01*
X61434606Y-15434608D01*
X61424478Y-15434487D01*
X61424478Y-15434488D01*
X61372448Y-15434488D01*
X61372448Y-15605938D01*
X61254417Y-15605938D01*
X61254417Y-15434527D01*
X61179924Y-15434527D01*
X61167786Y-15435042D01*
X61162090Y-15435689D01*
X61156637Y-15436600D01*
X61151426Y-15437778D01*
X61146450Y-15439225D01*
X61141709Y-15440945D01*
X61137196Y-15442940D01*
X61132910Y-15445212D01*
X61128847Y-15447766D01*
X61125002Y-15450603D01*
X61121373Y-15453727D01*
X61117955Y-15457141D01*
X61114746Y-15460846D01*
X61111742Y-15464846D01*
X61108938Y-15469144D01*
X61106332Y-15473743D01*
X61103920Y-15478646D01*
X61099664Y-15489373D01*
X61096141Y-15501347D01*
X61093323Y-15514593D01*
X61091180Y-15529132D01*
X61089685Y-15544987D01*
X61088809Y-15562181D01*
X61088524Y-15580736D01*
X61088692Y-15594249D01*
X61089210Y-15606881D01*
X61090096Y-15618677D01*
X61091368Y-15629679D01*
X61092155Y-15634896D01*
X61093044Y-15639931D01*
X61094040Y-15644789D01*
X61095144Y-15649476D01*
X61096357Y-15653997D01*
X61097684Y-15658358D01*
X61099125Y-15662564D01*
X61100683Y-15666620D01*
X61102361Y-15670531D01*
X61104160Y-15674305D01*
X61106083Y-15677944D01*
X61108133Y-15681456D01*
X61110311Y-15684845D01*
X61112620Y-15688118D01*
X61115063Y-15691278D01*
X61117640Y-15694333D01*
X61120356Y-15697286D01*
X61123211Y-15700144D01*
X61126209Y-15702913D01*
X61129351Y-15705596D01*
X61132640Y-15708201D01*
X61136078Y-15710732D01*
X61139668Y-15713194D01*
X61143412Y-15715594D01*
X61057686Y-15828068D01*
X61044000Y-15817510D01*
X61031407Y-15806384D01*
X61019879Y-15794684D01*
X61009387Y-15782404D01*
X60999901Y-15769539D01*
X60991392Y-15756083D01*
X60983831Y-15742029D01*
X60977190Y-15727371D01*
X60971439Y-15712105D01*
X60966549Y-15696223D01*
X60962491Y-15679720D01*
X60959236Y-15662590D01*
X60956755Y-15644827D01*
X60955019Y-15626426D01*
X60953999Y-15607379D01*
X60953665Y-15587681D01*
X60954371Y-15555403D01*
X60956546Y-15524505D01*
X60960273Y-15495083D01*
X60962745Y-15480956D01*
X60965637Y-15467235D01*
X60968960Y-15453931D01*
X60972723Y-15441057D01*
X60976937Y-15428625D01*
X60981614Y-15416647D01*
X60986763Y-15405135D01*
X60992395Y-15394102D01*
X60998521Y-15383558D01*
X61005150Y-15373518D01*
X61012294Y-15363991D01*
X61019964Y-15354992D01*
X61028169Y-15346532D01*
X61036920Y-15338622D01*
X61046228Y-15331276D01*
X61056104Y-15324504D01*
X61066557Y-15318321D01*
X61077598Y-15312736D01*
X61089239Y-15307763D01*
X61101489Y-15303414D01*
X61114359Y-15299701D01*
X61127859Y-15296636D01*
X61142001Y-15294231D01*
X61156794Y-15292498D01*
X61172249Y-15291449D01*
X61188377Y-15291097D01*
X61674708Y-15291097D01*
X61674708Y-15434527D01*
G37*
G36*
X61674708Y-16103380D02*
G01*
X61674708Y-16229944D01*
X61175716Y-16378931D01*
X61175716Y-16381749D01*
X61674708Y-16530735D01*
X61674708Y-16657220D01*
X60962118Y-16884907D01*
X60962118Y-16733142D01*
X61461069Y-16596775D01*
X61461069Y-16593958D01*
X60962118Y-16432350D01*
X60962118Y-16328329D01*
X61461069Y-16166722D01*
X61461069Y-16163824D01*
X60962118Y-16027577D01*
X60962118Y-15875733D01*
X61674708Y-16103380D01*
G37*
G36*
X61674708Y-17104974D02*
G01*
X61600214Y-17104974D01*
X61609243Y-17113649D01*
X61617885Y-17122798D01*
X61626114Y-17132401D01*
X61633903Y-17142437D01*
X61641224Y-17152885D01*
X61648051Y-17163725D01*
X61654356Y-17174935D01*
X61660112Y-17186497D01*
X61665293Y-17198388D01*
X61669871Y-17210588D01*
X61673819Y-17223076D01*
X61677110Y-17235833D01*
X61679717Y-17248836D01*
X61681612Y-17262066D01*
X61682769Y-17275502D01*
X61683161Y-17289124D01*
X61683046Y-17297224D01*
X61682706Y-17305185D01*
X61682144Y-17313006D01*
X61681365Y-17320687D01*
X61680374Y-17328230D01*
X61679176Y-17335633D01*
X61677774Y-17342898D01*
X61676175Y-17350025D01*
X61674382Y-17357013D01*
X61672399Y-17363864D01*
X61670233Y-17370577D01*
X61667887Y-17377153D01*
X61665366Y-17383592D01*
X61662674Y-17389894D01*
X61656799Y-17402089D01*
X61650297Y-17413741D01*
X61643206Y-17424851D01*
X61635564Y-17435421D01*
X61627406Y-17445455D01*
X61618771Y-17454953D01*
X61609696Y-17463918D01*
X61600217Y-17472353D01*
X61590372Y-17480259D01*
X61580901Y-17487315D01*
X61571334Y-17493737D01*
X61561476Y-17499548D01*
X61551130Y-17504775D01*
X61540101Y-17509441D01*
X61528194Y-17513571D01*
X61515212Y-17517190D01*
X61500961Y-17520323D01*
X61485244Y-17522995D01*
X61467866Y-17525231D01*
X61448631Y-17527054D01*
X61427344Y-17528490D01*
X61377830Y-17530301D01*
X61317759Y-17530860D01*
X61286522Y-17530725D01*
X61258094Y-17530301D01*
X61232279Y-17529564D01*
X61208886Y-17528490D01*
X61187719Y-17527054D01*
X61168585Y-17525230D01*
X61151291Y-17522995D01*
X61135642Y-17520323D01*
X61121446Y-17517190D01*
X61114831Y-17515443D01*
X61108508Y-17513571D01*
X61102450Y-17511571D01*
X61096634Y-17509440D01*
X61091036Y-17507176D01*
X61085631Y-17504775D01*
X61075306Y-17499548D01*
X61065463Y-17493737D01*
X61055911Y-17487315D01*
X61046455Y-17480259D01*
X61036596Y-17472353D01*
X61027108Y-17463918D01*
X61018026Y-17454953D01*
X61009387Y-17445455D01*
X61001228Y-17435421D01*
X60993585Y-17424851D01*
X60986497Y-17413741D01*
X60979998Y-17402089D01*
X60974126Y-17389894D01*
X60968918Y-17377153D01*
X60964411Y-17363864D01*
X60960640Y-17350025D01*
X60957644Y-17335633D01*
X60955458Y-17320687D01*
X60954120Y-17305185D01*
X60953665Y-17289124D01*
X60954057Y-17275595D01*
X60955214Y-17262413D01*
X60957112Y-17249561D01*
X60957949Y-17245547D01*
X61096977Y-17245547D01*
X61097299Y-17257826D01*
X61098251Y-17269378D01*
X61099813Y-17280225D01*
X61101964Y-17290389D01*
X61104684Y-17299891D01*
X61107951Y-17308755D01*
X61111746Y-17317003D01*
X61116048Y-17324655D01*
X61120836Y-17331736D01*
X61126089Y-17338266D01*
X61131787Y-17344268D01*
X61137910Y-17349763D01*
X61144436Y-17354775D01*
X61151345Y-17359326D01*
X61158617Y-17363436D01*
X61166231Y-17367130D01*
X61174167Y-17370428D01*
X61182403Y-17373352D01*
X61199695Y-17378171D01*
X61217944Y-17381762D01*
X61236983Y-17384303D01*
X61256649Y-17385971D01*
X61276777Y-17386944D01*
X61317759Y-17387509D01*
X61338545Y-17387397D01*
X61359169Y-17386944D01*
X61379467Y-17385971D01*
X61399278Y-17384303D01*
X61418439Y-17381762D01*
X61427724Y-17380109D01*
X61436786Y-17378171D01*
X61445604Y-17375926D01*
X61454158Y-17373352D01*
X61462427Y-17370428D01*
X61470391Y-17367130D01*
X61478030Y-17363436D01*
X61485324Y-17359326D01*
X61492252Y-17354775D01*
X61498793Y-17349763D01*
X61504928Y-17344268D01*
X61510636Y-17338266D01*
X61515897Y-17331736D01*
X61520691Y-17324655D01*
X61524996Y-17317003D01*
X61528794Y-17308755D01*
X61532063Y-17299891D01*
X61534783Y-17290389D01*
X61536934Y-17280225D01*
X61538496Y-17269378D01*
X61539448Y-17257826D01*
X61539770Y-17245547D01*
X61539428Y-17233394D01*
X61538419Y-17221960D01*
X61536768Y-17211224D01*
X61534497Y-17201164D01*
X61531631Y-17191757D01*
X61528195Y-17182983D01*
X61524213Y-17174818D01*
X61519709Y-17167242D01*
X61514706Y-17160232D01*
X61509230Y-17153766D01*
X61503303Y-17147823D01*
X61496952Y-17142380D01*
X61490198Y-17137417D01*
X61483068Y-17132910D01*
X61475584Y-17128838D01*
X61467772Y-17125180D01*
X61459655Y-17121912D01*
X61451257Y-17119014D01*
X61433717Y-17114239D01*
X61415344Y-17110679D01*
X61396332Y-17108158D01*
X61376874Y-17106502D01*
X61357163Y-17105536D01*
X61317759Y-17104974D01*
X61298366Y-17105085D01*
X61278805Y-17105536D01*
X61259273Y-17106502D01*
X61239964Y-17108158D01*
X61221074Y-17110679D01*
X61211848Y-17112318D01*
X61202800Y-17114239D01*
X61193955Y-17116464D01*
X61185337Y-17119014D01*
X61176971Y-17121912D01*
X61168881Y-17125180D01*
X61161091Y-17128838D01*
X61153627Y-17132910D01*
X61146513Y-17137417D01*
X61139772Y-17142380D01*
X61133431Y-17147823D01*
X61127512Y-17153766D01*
X61122041Y-17160232D01*
X61117041Y-17167242D01*
X61112539Y-17174818D01*
X61108557Y-17182983D01*
X61105120Y-17191757D01*
X61102254Y-17201164D01*
X61099982Y-17211224D01*
X61098329Y-17221960D01*
X61097319Y-17233394D01*
X61096977Y-17245547D01*
X60957949Y-17245547D01*
X60959727Y-17237021D01*
X60963034Y-17224779D01*
X60967008Y-17212817D01*
X60971624Y-17201118D01*
X60976858Y-17189667D01*
X60982685Y-17178446D01*
X60989080Y-17167440D01*
X60996019Y-17156631D01*
X61003477Y-17146003D01*
X61011428Y-17135540D01*
X61019850Y-17125225D01*
X61028715Y-17115042D01*
X61038001Y-17104974D01*
X60673908Y-17104974D01*
X60673908Y-16961622D01*
X61674708Y-16961622D01*
X61674708Y-17104974D01*
G37*
G36*
X61132180Y-17637778D02*
G01*
X61127605Y-17643994D01*
X61123386Y-17650011D01*
X61119514Y-17655864D01*
X61115981Y-17661585D01*
X61112778Y-17667208D01*
X61109897Y-17672764D01*
X61107330Y-17678287D01*
X61105069Y-17683811D01*
X61103104Y-17689368D01*
X61101429Y-17694990D01*
X61100034Y-17700712D01*
X61098912Y-17706565D01*
X61098053Y-17712583D01*
X61097450Y-17718799D01*
X61097094Y-17725246D01*
X61096977Y-17731957D01*
X61097509Y-17745103D01*
X61099116Y-17758117D01*
X61101820Y-17770902D01*
X61105640Y-17783357D01*
X61107975Y-17789430D01*
X61110597Y-17795383D01*
X61113508Y-17801205D01*
X61116711Y-17806883D01*
X61120209Y-17812405D01*
X61124003Y-17817757D01*
X61128097Y-17822929D01*
X61132493Y-17827906D01*
X61137193Y-17832678D01*
X61142200Y-17837232D01*
X61147517Y-17841555D01*
X61153146Y-17845635D01*
X61159090Y-17849459D01*
X61165351Y-17853016D01*
X61171932Y-17856293D01*
X61178835Y-17859277D01*
X61186062Y-17861957D01*
X61193617Y-17864319D01*
X61201502Y-17866352D01*
X61209720Y-17868043D01*
X61218272Y-17869380D01*
X61227162Y-17870350D01*
X61236392Y-17870941D01*
X61245964Y-17871141D01*
X61674708Y-17871141D01*
X61674708Y-18014492D01*
X60962118Y-18014492D01*
X60962118Y-17871141D01*
X61038001Y-17871141D01*
X61038001Y-17868323D01*
X61027793Y-17859663D01*
X61018243Y-17850553D01*
X61009350Y-17841006D01*
X61001116Y-17831034D01*
X60993539Y-17820649D01*
X60986621Y-17809865D01*
X60980361Y-17798694D01*
X60974759Y-17787147D01*
X60969816Y-17775239D01*
X60965532Y-17762980D01*
X60961907Y-17750385D01*
X60958940Y-17737464D01*
X60956633Y-17724231D01*
X60954984Y-17710699D01*
X60953995Y-17696879D01*
X60953665Y-17682784D01*
X60953910Y-17672087D01*
X60954637Y-17661613D01*
X60955832Y-17651355D01*
X60957485Y-17641305D01*
X60959583Y-17631453D01*
X60962112Y-17621792D01*
X60965062Y-17612313D01*
X60968419Y-17603007D01*
X60972172Y-17593867D01*
X60976307Y-17584883D01*
X60980814Y-17576047D01*
X60985678Y-17567351D01*
X60990889Y-17558787D01*
X60996433Y-17550345D01*
X61002299Y-17542018D01*
X61008474Y-17533797D01*
X61132180Y-17637778D01*
G37*
G36*
X61674708Y-18315363D02*
G01*
X61611446Y-18315363D01*
X61611446Y-18318181D01*
X61620368Y-18323948D01*
X61628669Y-18330218D01*
X61636354Y-18337033D01*
X61643430Y-18344434D01*
X61649904Y-18352461D01*
X61655782Y-18361156D01*
X61661069Y-18370560D01*
X61665774Y-18380713D01*
X61669901Y-18391659D01*
X61673457Y-18403436D01*
X61676449Y-18416086D01*
X61678882Y-18429651D01*
X61680764Y-18444172D01*
X61682100Y-18459689D01*
X61682897Y-18476244D01*
X61683162Y-18493877D01*
X61682888Y-18508573D01*
X61682074Y-18522877D01*
X61680732Y-18536784D01*
X61678873Y-18550289D01*
X61676510Y-18563387D01*
X61673655Y-18576074D01*
X61670319Y-18588344D01*
X61666513Y-18600193D01*
X61662251Y-18611615D01*
X61657543Y-18622607D01*
X61652402Y-18633162D01*
X61646839Y-18643277D01*
X61640867Y-18652945D01*
X61634497Y-18662163D01*
X61627740Y-18670926D01*
X61620609Y-18679228D01*
X61613116Y-18687065D01*
X61605272Y-18694431D01*
X61597090Y-18701323D01*
X61588580Y-18707734D01*
X61579756Y-18713661D01*
X61570628Y-18719098D01*
X61561209Y-18724040D01*
X61551510Y-18728483D01*
X61541544Y-18732421D01*
X61531322Y-18735850D01*
X61520855Y-18738765D01*
X61510157Y-18741161D01*
X61499238Y-18743033D01*
X61488111Y-18744376D01*
X61476786Y-18745186D01*
X61465277Y-18745457D01*
X61458252Y-18745304D01*
X61454658Y-18745226D01*
X61444152Y-18744535D01*
X61433773Y-18743385D01*
X61423537Y-18741776D01*
X61413458Y-18739708D01*
X61403551Y-18737184D01*
X61393830Y-18734203D01*
X61384311Y-18730766D01*
X61375008Y-18726874D01*
X61365935Y-18722528D01*
X61357107Y-18717729D01*
X61348540Y-18712477D01*
X61340247Y-18706773D01*
X61332243Y-18700618D01*
X61324544Y-18694012D01*
X61317163Y-18686957D01*
X61310116Y-18679453D01*
X61303417Y-18671501D01*
X61297081Y-18663102D01*
X61291122Y-18654257D01*
X61285556Y-18644965D01*
X61280397Y-18635229D01*
X61275659Y-18625048D01*
X61271358Y-18614425D01*
X61267507Y-18603358D01*
X61264122Y-18591849D01*
X61261218Y-18579900D01*
X61258809Y-18567510D01*
X61256910Y-18554681D01*
X61255535Y-18541412D01*
X61254699Y-18527706D01*
X61254417Y-18513562D01*
X61254417Y-18315363D01*
X61372448Y-18315363D01*
X61372448Y-18486813D01*
X61372546Y-18494592D01*
X61372840Y-18502108D01*
X61373325Y-18509362D01*
X61374000Y-18516355D01*
X61374862Y-18523089D01*
X61375907Y-18529565D01*
X61377134Y-18535783D01*
X61378538Y-18541744D01*
X61380117Y-18547450D01*
X61381869Y-18552902D01*
X61383790Y-18558100D01*
X61385878Y-18563046D01*
X61388129Y-18567741D01*
X61390542Y-18572185D01*
X61393112Y-18576380D01*
X61395838Y-18580327D01*
X61398717Y-18584026D01*
X61401745Y-18587480D01*
X61404919Y-18590688D01*
X61408238Y-18593652D01*
X61411698Y-18596373D01*
X61415295Y-18598853D01*
X61419029Y-18601091D01*
X61422895Y-18603089D01*
X61426890Y-18604848D01*
X61431013Y-18606369D01*
X61435259Y-18607654D01*
X61439627Y-18608702D01*
X61444112Y-18609516D01*
X61448714Y-18610096D01*
X61453428Y-18610443D01*
X61458252Y-18610559D01*
X61467130Y-18610108D01*
X61475824Y-18608737D01*
X61484281Y-18606414D01*
X61492446Y-18603109D01*
X61496403Y-18601078D01*
X61500266Y-18598790D01*
X61504031Y-18596240D01*
X61507688Y-18593426D01*
X61511233Y-18590343D01*
X61514658Y-18586988D01*
X61517957Y-18583356D01*
X61521122Y-18579444D01*
X61524148Y-18575247D01*
X61527027Y-18570763D01*
X61529752Y-18565986D01*
X61532318Y-18560914D01*
X61534717Y-18555543D01*
X61536942Y-18549868D01*
X61538988Y-18543885D01*
X61540846Y-18537592D01*
X61543976Y-18524056D01*
X61546278Y-18509230D01*
X61547699Y-18493082D01*
X61548184Y-18475582D01*
X61548015Y-18454096D01*
X61547425Y-18434399D01*
X61546287Y-18416436D01*
X61544476Y-18400150D01*
X61543279Y-18392620D01*
X61541867Y-18385487D01*
X61540223Y-18378747D01*
X61538333Y-18372391D01*
X61536180Y-18366412D01*
X61533748Y-18360805D01*
X61531023Y-18355562D01*
X61527988Y-18350675D01*
X61524627Y-18346138D01*
X61520926Y-18341945D01*
X61516867Y-18338087D01*
X61512436Y-18334559D01*
X61507616Y-18331353D01*
X61502393Y-18328462D01*
X61496750Y-18325880D01*
X61490671Y-18323598D01*
X61484141Y-18321611D01*
X61477144Y-18319912D01*
X61469665Y-18318493D01*
X61461687Y-18317348D01*
X61453195Y-18316469D01*
X61444173Y-18315850D01*
X61434606Y-18315484D01*
X61424478Y-18315363D01*
X61372448Y-18315363D01*
X61254417Y-18315363D01*
X61179924Y-18315363D01*
X61167786Y-18315878D01*
X61162090Y-18316525D01*
X61156637Y-18317436D01*
X61151426Y-18318614D01*
X61146450Y-18320061D01*
X61141709Y-18321780D01*
X61137196Y-18323775D01*
X61132910Y-18326048D01*
X61128847Y-18328601D01*
X61125002Y-18331438D01*
X61121373Y-18334561D01*
X61117955Y-18337974D01*
X61114746Y-18341679D01*
X61111742Y-18345678D01*
X61108938Y-18349976D01*
X61106332Y-18354574D01*
X61103920Y-18359475D01*
X61099664Y-18370199D01*
X61096141Y-18382171D01*
X61093323Y-18395412D01*
X61091180Y-18409947D01*
X61089685Y-18425796D01*
X61088809Y-18442984D01*
X61088524Y-18461532D01*
X61088692Y-18475046D01*
X61089210Y-18487681D01*
X61090096Y-18499481D01*
X61091368Y-18510488D01*
X61092155Y-18515708D01*
X61093044Y-18520746D01*
X61094040Y-18525607D01*
X61095144Y-18530298D01*
X61096357Y-18534822D01*
X61097684Y-18539187D01*
X61099125Y-18543396D01*
X61100683Y-18547456D01*
X61102361Y-18551371D01*
X61104160Y-18555148D01*
X61106083Y-18558791D01*
X61108133Y-18562307D01*
X61110311Y-18565699D01*
X61112620Y-18568975D01*
X61115063Y-18572139D01*
X61117640Y-18575196D01*
X61120356Y-18578152D01*
X61123211Y-18581013D01*
X61126209Y-18583783D01*
X61129351Y-18586469D01*
X61132640Y-18589075D01*
X61136078Y-18591607D01*
X61139668Y-18594070D01*
X61143412Y-18596470D01*
X61057686Y-18708904D01*
X61044000Y-18698347D01*
X61031407Y-18687223D01*
X61019879Y-18675527D01*
X61009387Y-18663252D01*
X60999901Y-18650392D01*
X60991392Y-18636942D01*
X60983831Y-18622894D01*
X60977190Y-18608242D01*
X60971439Y-18592981D01*
X60966549Y-18577104D01*
X60962491Y-18560604D01*
X60959236Y-18543476D01*
X60956755Y-18525714D01*
X60955019Y-18507311D01*
X60953999Y-18488261D01*
X60953665Y-18468557D01*
X60954371Y-18436272D01*
X60956546Y-18405369D01*
X60960273Y-18375944D01*
X60962745Y-18361816D01*
X60965637Y-18348094D01*
X60968960Y-18334789D01*
X60972723Y-18321915D01*
X60976937Y-18309483D01*
X60981614Y-18297505D01*
X60986763Y-18285994D01*
X60992395Y-18274961D01*
X60998521Y-18264418D01*
X61005150Y-18254378D01*
X61012294Y-18244853D01*
X61019964Y-18235855D01*
X61028169Y-18227396D01*
X61036920Y-18219487D01*
X61046228Y-18212142D01*
X61056104Y-18205372D01*
X61066557Y-18199190D01*
X61077598Y-18193606D01*
X61089239Y-18188635D01*
X61101489Y-18184287D01*
X61114359Y-18180574D01*
X61127859Y-18177510D01*
X61142001Y-18175105D01*
X61156794Y-18173373D01*
X61172249Y-18172324D01*
X61188377Y-18171972D01*
X61674708Y-18171972D01*
X61674708Y-18315363D01*
G37*
G36*
X57492478Y-14050386D02*
G01*
X57493995Y-14050424D01*
X57495506Y-14050536D01*
X57497011Y-14050722D01*
X57498506Y-14050978D01*
X57499989Y-14051303D01*
X57501459Y-14051696D01*
X57502912Y-14052153D01*
X57504347Y-14052674D01*
X57505761Y-14053257D01*
X57507152Y-14053899D01*
X57508518Y-14054599D01*
X57509856Y-14055354D01*
X57511164Y-14056164D01*
X57512440Y-14057026D01*
X57513682Y-14057938D01*
X57514887Y-14058899D01*
X57516053Y-14059906D01*
X57517178Y-14060958D01*
X57518259Y-14062052D01*
X57519295Y-14063187D01*
X57520283Y-14064362D01*
X57521220Y-14065573D01*
X57522104Y-14066820D01*
X57522934Y-14068100D01*
X57523707Y-14069412D01*
X57524420Y-14070753D01*
X57525072Y-14072122D01*
X57525659Y-14073517D01*
X57526180Y-14074936D01*
X57526633Y-14076377D01*
X57527015Y-14077838D01*
X57527324Y-14079318D01*
X57645751Y-14715707D01*
X57646059Y-14717205D01*
X57646435Y-14718707D01*
X57646879Y-14720209D01*
X57647388Y-14721709D01*
X57648592Y-14724697D01*
X57650030Y-14727649D01*
X57651686Y-14730548D01*
X57653540Y-14733374D01*
X57655576Y-14736108D01*
X57657777Y-14738731D01*
X57660125Y-14741225D01*
X57662602Y-14743570D01*
X57665191Y-14745747D01*
X57667875Y-14747737D01*
X57670636Y-14749522D01*
X57673457Y-14751081D01*
X57676320Y-14752397D01*
X57677762Y-14752958D01*
X57679208Y-14753450D01*
X58175500Y-14952125D01*
X58178323Y-14953355D01*
X58181313Y-14954379D01*
X58184443Y-14955202D01*
X58187689Y-14955823D01*
X58191023Y-14956247D01*
X58194421Y-14956474D01*
X58197856Y-14956507D01*
X58201302Y-14956347D01*
X58204734Y-14955998D01*
X58208126Y-14955460D01*
X58211451Y-14954736D01*
X58214685Y-14953828D01*
X58217800Y-14952738D01*
X58220772Y-14951468D01*
X58223574Y-14950019D01*
X58226181Y-14948395D01*
X58752954Y-14586882D01*
X58754224Y-14586055D01*
X58755532Y-14585292D01*
X58756875Y-14584593D01*
X58758251Y-14583959D01*
X58759656Y-14583387D01*
X58761087Y-14582879D01*
X58762542Y-14582435D01*
X58764017Y-14582053D01*
X58765510Y-14581733D01*
X58767018Y-14581476D01*
X58770067Y-14581148D01*
X58773141Y-14581065D01*
X58776215Y-14581227D01*
X58779268Y-14581630D01*
X58782276Y-14582273D01*
X58785216Y-14583154D01*
X58786653Y-14583683D01*
X58788064Y-14584270D01*
X58789446Y-14584916D01*
X58790797Y-14585620D01*
X58792114Y-14586382D01*
X58793393Y-14587201D01*
X58794632Y-14588078D01*
X58795828Y-14589011D01*
X58796977Y-14590002D01*
X58798078Y-14591049D01*
X59272860Y-15065910D01*
X59273899Y-15067004D01*
X59274883Y-15068147D01*
X59275811Y-15069336D01*
X59276682Y-15070569D01*
X59277496Y-15071843D01*
X59278253Y-15073154D01*
X59279594Y-15075878D01*
X59280704Y-15078719D01*
X59281580Y-15081652D01*
X59282220Y-15084655D01*
X59282623Y-15087703D01*
X59282785Y-15090775D01*
X59282706Y-15093846D01*
X59282382Y-15096893D01*
X59281812Y-15099893D01*
X59280993Y-15102823D01*
X59280490Y-15104254D01*
X59279924Y-15105658D01*
X59279295Y-15107034D01*
X59278603Y-15108377D01*
X59277847Y-15109685D01*
X59277027Y-15110955D01*
X58921864Y-15628441D01*
X58920244Y-15631042D01*
X58918824Y-15633828D01*
X58917604Y-15636774D01*
X58916585Y-15639853D01*
X58915767Y-15643042D01*
X58915149Y-15646314D01*
X58914734Y-15649644D01*
X58914521Y-15653007D01*
X58914511Y-15656378D01*
X58914704Y-15659730D01*
X58915101Y-15663040D01*
X58915702Y-15666280D01*
X58916508Y-15669427D01*
X58917519Y-15672454D01*
X58918735Y-15675337D01*
X58920157Y-15678050D01*
X59041998Y-15906253D01*
X59042646Y-15907618D01*
X59043217Y-15908994D01*
X59043710Y-15910378D01*
X59044126Y-15911770D01*
X59044466Y-15913165D01*
X59044732Y-15914563D01*
X59044923Y-15915960D01*
X59045041Y-15917354D01*
X59045087Y-15918743D01*
X59045061Y-15920124D01*
X59044965Y-15921495D01*
X59044799Y-15922853D01*
X59044565Y-15924197D01*
X59044262Y-15925524D01*
X59043892Y-15926831D01*
X59043456Y-15928116D01*
X59042955Y-15929377D01*
X59042389Y-15930611D01*
X59041760Y-15931816D01*
X59041067Y-15932990D01*
X59040314Y-15934130D01*
X59039499Y-15935233D01*
X59038623Y-15936299D01*
X59037689Y-15937323D01*
X59036696Y-15938304D01*
X59035646Y-15939239D01*
X59034539Y-15940126D01*
X59033377Y-15940963D01*
X59032159Y-15941747D01*
X59030888Y-15942475D01*
X59029563Y-15943147D01*
X59028187Y-15943758D01*
X57891219Y-16414253D01*
X57889805Y-16414797D01*
X57888369Y-16415269D01*
X57886914Y-16415670D01*
X57885443Y-16416001D01*
X57883959Y-16416262D01*
X57882465Y-16416454D01*
X57880962Y-16416580D01*
X57879454Y-16416638D01*
X57877944Y-16416631D01*
X57876433Y-16416559D01*
X57874926Y-16416423D01*
X57873424Y-16416225D01*
X57871930Y-16415964D01*
X57870447Y-16415642D01*
X57868978Y-16415260D01*
X57867526Y-16414819D01*
X57866092Y-16414319D01*
X57864680Y-16413762D01*
X57863293Y-16413148D01*
X57861932Y-16412479D01*
X57860602Y-16411755D01*
X57859304Y-16410977D01*
X57858042Y-16410146D01*
X57856817Y-16409264D01*
X57855633Y-16408330D01*
X57854493Y-16407346D01*
X57853399Y-16406313D01*
X57852353Y-16405232D01*
X57851359Y-16404103D01*
X57850420Y-16402928D01*
X57849537Y-16401707D01*
X57848714Y-16400442D01*
X57813749Y-16343332D01*
X57811131Y-16339221D01*
X57808143Y-16334832D01*
X57804850Y-16330248D01*
X57801317Y-16325552D01*
X57797609Y-16320825D01*
X57793791Y-16316152D01*
X57789929Y-16311614D01*
X57786087Y-16307295D01*
X57760209Y-16269489D01*
X57732113Y-16233409D01*
X57701895Y-16199152D01*
X57669654Y-16166818D01*
X57635487Y-16136504D01*
X57599493Y-16108310D01*
X57561769Y-16082333D01*
X57522413Y-16058673D01*
X57481524Y-16037427D01*
X57439198Y-16018695D01*
X57395534Y-16002574D01*
X57350631Y-15989164D01*
X57304585Y-15978562D01*
X57257494Y-15970868D01*
X57209458Y-15966179D01*
X57160572Y-15964594D01*
X57122358Y-15965560D01*
X57084645Y-15968428D01*
X57047481Y-15973150D01*
X57010912Y-15979680D01*
X56974984Y-15987972D01*
X56939745Y-15997978D01*
X56905241Y-16009653D01*
X56871518Y-16022949D01*
X56838624Y-16037819D01*
X56806605Y-16054218D01*
X56775507Y-16072098D01*
X56745378Y-16091413D01*
X56716264Y-16112116D01*
X56688211Y-16134160D01*
X56661267Y-16157499D01*
X56635477Y-16182086D01*
X56610889Y-16207875D01*
X56587549Y-16234818D01*
X56565504Y-16262870D01*
X56544801Y-16291983D01*
X56525485Y-16322110D01*
X56507605Y-16353206D01*
X56491206Y-16385224D01*
X56476335Y-16418116D01*
X56463039Y-16451836D01*
X56451364Y-16486338D01*
X56441358Y-16521575D01*
X56433066Y-16557499D01*
X56426536Y-16594066D01*
X56421813Y-16631227D01*
X56418946Y-16668936D01*
X56417979Y-16707147D01*
X56418946Y-16745358D01*
X56421813Y-16783067D01*
X56426536Y-16820229D01*
X56433066Y-16856796D01*
X56441358Y-16892722D01*
X56451364Y-16927959D01*
X56463039Y-16962462D01*
X56476335Y-16996184D01*
X56491206Y-17029078D01*
X56507605Y-17061097D01*
X56525485Y-17092194D01*
X56544801Y-17122324D01*
X56565504Y-17151438D01*
X56587549Y-17179492D01*
X56610889Y-17206437D01*
X56635477Y-17232227D01*
X56661267Y-17256816D01*
X56688211Y-17280157D01*
X56716264Y-17302203D01*
X56745378Y-17322908D01*
X56775507Y-17342225D01*
X56806605Y-17360106D01*
X56838624Y-17376506D01*
X56871518Y-17391378D01*
X56905241Y-17404676D01*
X56939745Y-17416351D01*
X56974984Y-17426359D01*
X57010912Y-17434651D01*
X57047481Y-17441182D01*
X57084645Y-17445905D01*
X57122358Y-17448773D01*
X57160572Y-17449740D01*
X57185115Y-17449341D01*
X57209458Y-17448154D01*
X57233588Y-17446191D01*
X57257494Y-17443464D01*
X57281164Y-17439985D01*
X57304585Y-17435768D01*
X57327744Y-17430823D01*
X57350631Y-17425164D01*
X57373232Y-17418802D01*
X57395535Y-17411751D01*
X57417527Y-17404022D01*
X57439198Y-17395628D01*
X57460534Y-17386581D01*
X57481524Y-17376893D01*
X57522413Y-17355645D01*
X57561769Y-17331984D01*
X57599493Y-17306006D01*
X57635487Y-17277812D01*
X57669654Y-17247499D01*
X57701895Y-17215166D01*
X57732113Y-17180913D01*
X57760209Y-17144837D01*
X57786087Y-17107038D01*
X57789929Y-17102694D01*
X57793791Y-17098141D01*
X57797609Y-17093458D01*
X57801317Y-17088727D01*
X57804850Y-17084027D01*
X57808143Y-17079439D01*
X57811131Y-17075044D01*
X57813749Y-17070922D01*
X57848714Y-17013812D01*
X57849537Y-17012539D01*
X57850420Y-17011312D01*
X57851359Y-17010131D01*
X57852353Y-17008997D01*
X57853399Y-17007912D01*
X57854493Y-17006875D01*
X57856817Y-17004951D01*
X57859304Y-17003234D01*
X57861932Y-17001730D01*
X57864680Y-17000446D01*
X57867526Y-16999390D01*
X57870447Y-16998570D01*
X57873424Y-16997991D01*
X57876433Y-16997661D01*
X57879454Y-16997588D01*
X57882465Y-16997778D01*
X57883959Y-16997974D01*
X57885443Y-16998239D01*
X57886914Y-16998573D01*
X57888369Y-16998977D01*
X57889805Y-16999453D01*
X57891219Y-17000000D01*
X59028147Y-17470535D01*
X59029524Y-17471147D01*
X59030849Y-17471818D01*
X59032121Y-17472547D01*
X59033339Y-17473332D01*
X59034503Y-17474169D01*
X59035610Y-17475057D01*
X59036662Y-17475994D01*
X59037655Y-17476976D01*
X59038591Y-17478001D01*
X59039467Y-17479068D01*
X59040283Y-17480173D01*
X59041039Y-17481314D01*
X59041732Y-17482489D01*
X59042363Y-17483695D01*
X59042929Y-17484930D01*
X59043432Y-17486192D01*
X59043869Y-17487478D01*
X59044239Y-17488786D01*
X59044542Y-17490113D01*
X59044777Y-17491457D01*
X59044944Y-17492816D01*
X59045040Y-17494187D01*
X59045065Y-17495568D01*
X59045019Y-17496956D01*
X59044900Y-17498349D01*
X59044707Y-17499745D01*
X59044440Y-17501141D01*
X59044098Y-17502535D01*
X59043680Y-17503924D01*
X59043184Y-17505306D01*
X59042611Y-17506679D01*
X59041958Y-17508040D01*
X58920118Y-17736243D01*
X58918696Y-17738949D01*
X58917481Y-17741827D01*
X58916472Y-17744851D01*
X58915668Y-17747996D01*
X58915070Y-17751236D01*
X58914675Y-17754545D01*
X58914485Y-17757899D01*
X58914497Y-17761271D01*
X58914711Y-17764636D01*
X58915128Y-17767969D01*
X58915745Y-17771243D01*
X58916563Y-17774434D01*
X58917580Y-17777516D01*
X58918796Y-17780464D01*
X58920211Y-17783251D01*
X58921824Y-17785852D01*
X59276988Y-18303298D01*
X59277808Y-18304572D01*
X59278564Y-18305883D01*
X59279256Y-18307229D01*
X59279885Y-18308607D01*
X59280451Y-18310013D01*
X59280954Y-18311446D01*
X59281394Y-18312902D01*
X59281772Y-18314378D01*
X59282088Y-18315871D01*
X59282342Y-18317379D01*
X59282666Y-18320427D01*
X59282746Y-18323498D01*
X59282583Y-18326570D01*
X59282181Y-18329619D01*
X59281541Y-18332622D01*
X59280665Y-18335556D01*
X59280139Y-18336989D01*
X59279555Y-18338397D01*
X59278913Y-18339777D01*
X59278213Y-18341124D01*
X59277456Y-18342437D01*
X59276642Y-18343713D01*
X59275772Y-18344948D01*
X59274844Y-18346140D01*
X59273860Y-18347286D01*
X59272820Y-18348383D01*
X58798039Y-18823244D01*
X58796938Y-18824288D01*
X58795788Y-18825275D01*
X58794593Y-18826205D01*
X58793354Y-18827079D01*
X58792075Y-18827896D01*
X58790758Y-18828655D01*
X58788025Y-18830001D01*
X58785176Y-18831114D01*
X58782237Y-18831992D01*
X58779229Y-18832634D01*
X58776176Y-18833037D01*
X58773101Y-18833199D01*
X58770028Y-18833118D01*
X58766979Y-18832792D01*
X58763978Y-18832218D01*
X58761047Y-18831396D01*
X58759616Y-18830890D01*
X58758211Y-18830322D01*
X58756836Y-18829690D01*
X58755492Y-18828994D01*
X58754184Y-18828235D01*
X58752914Y-18827411D01*
X58226142Y-18465938D01*
X58223535Y-18464300D01*
X58220733Y-18462841D01*
X58217761Y-18461562D01*
X58214645Y-18460465D01*
X58211412Y-18459552D01*
X58208086Y-18458825D01*
X58204695Y-18458286D01*
X58201263Y-18457936D01*
X58197816Y-18457777D01*
X58194381Y-18457811D01*
X58190984Y-18458039D01*
X58187649Y-18458465D01*
X58184404Y-18459088D01*
X58181274Y-18459912D01*
X58178284Y-18460938D01*
X58175461Y-18462167D01*
X57679169Y-18660843D01*
X57677723Y-18661332D01*
X57676281Y-18661890D01*
X57673417Y-18663204D01*
X57670597Y-18664764D01*
X57667836Y-18666551D01*
X57665152Y-18668546D01*
X57662562Y-18670729D01*
X57660085Y-18673081D01*
X57657738Y-18675582D01*
X57655537Y-18678213D01*
X57653501Y-18680954D01*
X57651646Y-18683786D01*
X57649991Y-18686689D01*
X57648553Y-18689644D01*
X57647348Y-18692631D01*
X57646396Y-18695632D01*
X57646019Y-18697131D01*
X57645712Y-18698625D01*
X57527285Y-19335014D01*
X57526976Y-19336498D01*
X57526594Y-19337962D01*
X57526141Y-19339406D01*
X57525620Y-19340827D01*
X57525032Y-19342224D01*
X57524381Y-19343594D01*
X57523667Y-19344937D01*
X57522895Y-19346249D01*
X57522065Y-19347530D01*
X57521180Y-19348777D01*
X57519256Y-19351163D01*
X57517139Y-19353391D01*
X57514848Y-19355449D01*
X57512401Y-19357319D01*
X57509816Y-19358989D01*
X57507112Y-19360442D01*
X57504307Y-19361664D01*
X57502873Y-19362184D01*
X57501419Y-19362640D01*
X57499950Y-19363032D01*
X57498466Y-19363356D01*
X57496971Y-19363612D01*
X57495467Y-19363797D01*
X57493955Y-19363909D01*
X57492439Y-19363947D01*
X56820966Y-19363986D01*
X56819450Y-19363949D01*
X56817940Y-19363837D01*
X56816437Y-19363652D01*
X56814944Y-19363397D01*
X56813463Y-19363074D01*
X56811996Y-19362683D01*
X56810546Y-19362228D01*
X56809115Y-19361709D01*
X56807704Y-19361129D01*
X56806317Y-19360489D01*
X56804955Y-19359792D01*
X56803620Y-19359039D01*
X56802316Y-19358231D01*
X56801043Y-19357372D01*
X56799804Y-19356462D01*
X56798602Y-19355503D01*
X56797439Y-19354498D01*
X56796316Y-19353447D01*
X56795236Y-19352354D01*
X56794202Y-19351220D01*
X56793215Y-19350046D01*
X56792278Y-19348834D01*
X56791392Y-19347587D01*
X56790561Y-19346305D01*
X56789785Y-19344992D01*
X56789069Y-19343649D01*
X56788413Y-19342277D01*
X56787820Y-19340878D01*
X56787292Y-19339455D01*
X56786831Y-19338008D01*
X56786440Y-19336541D01*
X56786121Y-19335054D01*
X56664796Y-18682671D01*
X56664482Y-18681172D01*
X56664101Y-18679666D01*
X56663142Y-18676649D01*
X56661938Y-18673639D01*
X56660504Y-18670654D01*
X56658858Y-18667716D01*
X56657017Y-18664844D01*
X56654997Y-18662057D01*
X56652815Y-18659374D01*
X56650489Y-18656817D01*
X56648035Y-18654404D01*
X56645471Y-18652154D01*
X56642812Y-18650089D01*
X56640077Y-18648226D01*
X56637281Y-18646587D01*
X56634442Y-18645190D01*
X56633012Y-18644589D01*
X56631577Y-18644055D01*
X56165011Y-18444030D01*
X56162218Y-18442742D01*
X56159258Y-18441660D01*
X56156156Y-18440781D01*
X56152938Y-18440105D01*
X56149630Y-18439630D01*
X56146257Y-18439354D01*
X56142844Y-18439275D01*
X56139418Y-18439392D01*
X56136003Y-18439702D01*
X56132625Y-18440205D01*
X56129310Y-18440898D01*
X56126083Y-18441781D01*
X56122970Y-18442850D01*
X56119996Y-18444105D01*
X56117187Y-18445544D01*
X56114568Y-18447165D01*
X55560531Y-18827332D01*
X55559261Y-18828159D01*
X55557953Y-18828922D01*
X55556610Y-18829620D01*
X55555236Y-18830254D01*
X55553832Y-18830824D01*
X55552401Y-18831331D01*
X55550948Y-18831775D01*
X55549474Y-18832156D01*
X55547982Y-18832474D01*
X55546475Y-18832730D01*
X55543430Y-18833056D01*
X55540360Y-18833136D01*
X55537289Y-18832972D01*
X55534240Y-18832568D01*
X55531235Y-18831923D01*
X55528299Y-18831043D01*
X55526864Y-18830514D01*
X55525454Y-18829927D01*
X55524073Y-18829282D01*
X55522723Y-18828579D01*
X55521408Y-18827819D01*
X55520129Y-18827001D01*
X55518891Y-18826127D01*
X55517696Y-18825196D01*
X55516547Y-18824208D01*
X55515446Y-18823165D01*
X55040665Y-18348343D01*
X55039617Y-18347246D01*
X55038627Y-18346100D01*
X55037693Y-18344908D01*
X55036816Y-18343673D01*
X55035997Y-18342397D01*
X55035235Y-18341084D01*
X55033885Y-18338357D01*
X55032769Y-18335516D01*
X55031888Y-18332582D01*
X55031245Y-18329579D01*
X55030842Y-18326530D01*
X55030680Y-18323458D01*
X55030763Y-18320387D01*
X55031091Y-18317339D01*
X55031668Y-18314338D01*
X55032495Y-18311406D01*
X55033003Y-18309973D01*
X55033574Y-18308567D01*
X55034209Y-18307189D01*
X55034907Y-18305843D01*
X55035670Y-18304532D01*
X55036497Y-18303258D01*
X55423371Y-17739537D01*
X55425001Y-17736936D01*
X55426453Y-17734138D01*
X55427725Y-17731168D01*
X55428814Y-17728052D01*
X55429719Y-17724817D01*
X55430439Y-17721489D01*
X55430971Y-17718094D01*
X55431314Y-17714658D01*
X55431465Y-17711208D01*
X55431424Y-17707770D01*
X55431188Y-17704369D01*
X55430755Y-17701033D01*
X55430124Y-17697788D01*
X55429293Y-17694659D01*
X55428259Y-17691673D01*
X55427022Y-17688856D01*
X55241880Y-17236538D01*
X55240789Y-17233659D01*
X55239434Y-17230808D01*
X55237834Y-17228002D01*
X55236009Y-17225257D01*
X55233979Y-17222590D01*
X55231764Y-17220018D01*
X55229382Y-17217558D01*
X55226853Y-17215226D01*
X55224198Y-17213039D01*
X55221435Y-17211014D01*
X55218585Y-17209167D01*
X55215666Y-17207516D01*
X55212699Y-17206077D01*
X55209702Y-17204867D01*
X55206696Y-17203903D01*
X55203701Y-17203200D01*
X54528894Y-17077629D01*
X54527411Y-17077317D01*
X54525947Y-17076932D01*
X54524503Y-17076477D01*
X54523082Y-17075954D01*
X54521685Y-17075366D01*
X54520314Y-17074714D01*
X54518972Y-17074001D01*
X54517660Y-17073229D01*
X54516379Y-17072401D01*
X54515132Y-17071518D01*
X54512746Y-17069597D01*
X54510517Y-17067486D01*
X54508460Y-17065202D01*
X54506589Y-17062763D01*
X54504920Y-17060187D01*
X54503467Y-17057492D01*
X54502826Y-17056106D01*
X54502245Y-17054696D01*
X54501725Y-17053266D01*
X54501268Y-17051818D01*
X54500877Y-17050353D01*
X54500552Y-17048874D01*
X54500297Y-17047383D01*
X54500112Y-17045883D01*
X54500000Y-17044375D01*
X54499962Y-17042863D01*
X54499962Y-16371350D01*
X54500000Y-16369834D01*
X54500112Y-16368323D01*
X54500297Y-16366820D01*
X54500552Y-16365326D01*
X54500877Y-16363845D01*
X54501268Y-16362377D01*
X54501725Y-16360926D01*
X54502245Y-16359494D01*
X54502826Y-16358082D01*
X54503467Y-16356694D01*
X54504166Y-16355331D01*
X54504920Y-16353996D01*
X54505729Y-16352691D01*
X54506589Y-16351418D01*
X54507501Y-16350179D01*
X54508460Y-16348977D01*
X54509466Y-16347813D01*
X54510517Y-16346691D01*
X54511611Y-16345612D01*
X54512746Y-16344578D01*
X54513920Y-16343593D01*
X54515132Y-16342657D01*
X54516379Y-16341774D01*
X54517660Y-16340945D01*
X54518972Y-16340173D01*
X54520314Y-16339459D01*
X54521685Y-16338808D01*
X54523082Y-16338219D01*
X54524503Y-16337696D01*
X54525947Y-16337241D01*
X54527411Y-16336857D01*
X54528894Y-16336544D01*
X55203701Y-16210933D01*
X55205196Y-16210616D01*
X55206696Y-16210231D01*
X55209702Y-16209265D01*
X55212699Y-16208053D01*
X55215666Y-16206612D01*
X55218585Y-16204958D01*
X55221435Y-16203109D01*
X55224198Y-16201082D01*
X55226853Y-16198893D01*
X55229382Y-16196560D01*
X55231764Y-16194098D01*
X55233979Y-16191526D01*
X55236009Y-16188860D01*
X55237834Y-16186117D01*
X55239434Y-16183314D01*
X55240143Y-16181895D01*
X55240789Y-16180468D01*
X55241369Y-16179034D01*
X55241880Y-16177596D01*
X55427022Y-15725317D01*
X55428259Y-15722507D01*
X55429292Y-15719527D01*
X55430124Y-15716404D01*
X55430755Y-15713162D01*
X55431187Y-15709830D01*
X55431424Y-15706432D01*
X55431465Y-15702995D01*
X55431314Y-15699545D01*
X55430971Y-15696109D01*
X55430439Y-15692713D01*
X55429719Y-15689382D01*
X55428814Y-15686144D01*
X55427725Y-15683024D01*
X55426453Y-15680049D01*
X55425001Y-15677244D01*
X55423371Y-15674636D01*
X55036497Y-15110876D01*
X55035670Y-15109606D01*
X55034907Y-15108298D01*
X55034209Y-15106956D01*
X55033574Y-15105582D01*
X55033002Y-15104179D01*
X55032495Y-15102750D01*
X55032050Y-15101297D01*
X55031668Y-15099824D01*
X55031348Y-15098334D01*
X55031091Y-15096829D01*
X55030763Y-15093787D01*
X55030680Y-15090721D01*
X55030842Y-15087653D01*
X55031245Y-15084608D01*
X55031888Y-15081607D01*
X55032769Y-15078674D01*
X55033298Y-15077240D01*
X55033885Y-15075832D01*
X55034531Y-15074452D01*
X55035235Y-15073103D01*
X55035997Y-15071789D01*
X55036816Y-15070512D01*
X55037693Y-15069274D01*
X55038627Y-15068080D01*
X55039617Y-15066930D01*
X55040664Y-15065830D01*
X55515446Y-14591048D01*
X55516547Y-14590001D01*
X55517696Y-14589012D01*
X55518891Y-14588079D01*
X55520129Y-14587203D01*
X55521408Y-14586386D01*
X55522723Y-14585626D01*
X55525454Y-14584280D01*
X55528299Y-14583169D01*
X55531235Y-14582293D01*
X55534240Y-14581655D01*
X55537289Y-14581255D01*
X55540360Y-14581097D01*
X55543430Y-14581182D01*
X55546475Y-14581510D01*
X55549474Y-14582085D01*
X55552401Y-14582908D01*
X55553832Y-14583413D01*
X55555236Y-14583981D01*
X55556610Y-14584611D01*
X55557953Y-14585305D01*
X55559261Y-14586061D01*
X55560531Y-14586882D01*
X56114568Y-14967009D01*
X56117187Y-14968643D01*
X56119996Y-14970094D01*
X56122970Y-14971360D01*
X56126083Y-14972438D01*
X56129310Y-14973328D01*
X56132625Y-14974027D01*
X56136003Y-14974534D01*
X56139418Y-14974847D01*
X56142844Y-14974965D01*
X56146257Y-14974886D01*
X56149630Y-14974608D01*
X56152938Y-14974130D01*
X56156156Y-14973450D01*
X56159258Y-14972567D01*
X56162218Y-14971479D01*
X56165011Y-14970184D01*
X56631577Y-14770198D01*
X56634442Y-14769056D01*
X56637281Y-14767652D01*
X56640077Y-14766005D01*
X56642812Y-14764136D01*
X56645471Y-14762065D01*
X56648035Y-14759811D01*
X56650489Y-14757394D01*
X56652815Y-14754834D01*
X56654997Y-14752150D01*
X56657017Y-14749364D01*
X56658858Y-14746493D01*
X56660504Y-14743559D01*
X56661938Y-14740581D01*
X56663142Y-14737579D01*
X56664101Y-14734573D01*
X56664796Y-14731582D01*
X56786121Y-14079159D01*
X56786440Y-14077680D01*
X56786831Y-14076219D01*
X56787292Y-14074778D01*
X56787820Y-14073360D01*
X56788413Y-14071966D01*
X56789069Y-14070598D01*
X56789786Y-14069258D01*
X56790561Y-14067948D01*
X56792279Y-14065425D01*
X56794204Y-14063043D01*
X56796319Y-14060818D01*
X56798607Y-14058765D01*
X56801050Y-14056898D01*
X56803630Y-14055233D01*
X56806330Y-14053783D01*
X56807719Y-14053145D01*
X56809131Y-14052566D01*
X56810565Y-14052048D01*
X56812017Y-14051594D01*
X56813486Y-14051205D01*
X56814970Y-14050884D01*
X56816466Y-14050631D01*
X56817972Y-14050450D01*
X56819486Y-14050341D01*
X56821006Y-14050306D01*
X57492478Y-14050386D01*
G37*
D10*
X3539987Y-21928570D02*
X2539987Y-21928570D01*
X2539987Y-21928570D02*
X2539987Y-21547618D01*
X2539987Y-21547618D02*
X2587606Y-21452380D01*
X2587606Y-21452380D02*
X2635225Y-21404761D01*
X2635225Y-21404761D02*
X2730463Y-21357142D01*
X2730463Y-21357142D02*
X2873320Y-21357142D01*
X2873320Y-21357142D02*
X2968558Y-21404761D01*
X2968558Y-21404761D02*
X3016177Y-21452380D01*
X3016177Y-21452380D02*
X3063796Y-21547618D01*
X3063796Y-21547618D02*
X3063796Y-21928570D01*
X2539987Y-20928570D02*
X3349510Y-20928570D01*
X3349510Y-20928570D02*
X3444748Y-20880951D01*
X3444748Y-20880951D02*
X3492368Y-20833332D01*
X3492368Y-20833332D02*
X3539987Y-20738094D01*
X3539987Y-20738094D02*
X3539987Y-20547618D01*
X3539987Y-20547618D02*
X3492368Y-20452380D01*
X3492368Y-20452380D02*
X3444748Y-20404761D01*
X3444748Y-20404761D02*
X3349510Y-20357142D01*
X3349510Y-20357142D02*
X2539987Y-20357142D01*
X3539987Y-19404761D02*
X3539987Y-19880951D01*
X3539987Y-19880951D02*
X2539987Y-19880951D01*
X3492368Y-19119046D02*
X3539987Y-18976189D01*
X3539987Y-18976189D02*
X3539987Y-18738094D01*
X3539987Y-18738094D02*
X3492368Y-18642856D01*
X3492368Y-18642856D02*
X3444748Y-18595237D01*
X3444748Y-18595237D02*
X3349510Y-18547618D01*
X3349510Y-18547618D02*
X3254272Y-18547618D01*
X3254272Y-18547618D02*
X3159034Y-18595237D01*
X3159034Y-18595237D02*
X3111415Y-18642856D01*
X3111415Y-18642856D02*
X3063796Y-18738094D01*
X3063796Y-18738094D02*
X3016177Y-18928570D01*
X3016177Y-18928570D02*
X2968558Y-19023808D01*
X2968558Y-19023808D02*
X2920939Y-19071427D01*
X2920939Y-19071427D02*
X2825701Y-19119046D01*
X2825701Y-19119046D02*
X2730463Y-19119046D01*
X2730463Y-19119046D02*
X2635225Y-19071427D01*
X2635225Y-19071427D02*
X2587606Y-19023808D01*
X2587606Y-19023808D02*
X2539987Y-18928570D01*
X2539987Y-18928570D02*
X2539987Y-18690475D01*
X2539987Y-18690475D02*
X2587606Y-18547618D01*
X3254272Y-18166665D02*
X3254272Y-17690475D01*
X3539987Y-18261903D02*
X2539987Y-17928570D01*
X2539987Y-17928570D02*
X3539987Y-17595237D01*
X3539987Y-16690475D02*
X3063796Y-17023808D01*
X3539987Y-17261903D02*
X2539987Y-17261903D01*
X2539987Y-17261903D02*
X2539987Y-16880951D01*
X2539987Y-16880951D02*
X2587606Y-16785713D01*
X2587606Y-16785713D02*
X2635225Y-16738094D01*
X2635225Y-16738094D02*
X2730463Y-16690475D01*
X2730463Y-16690475D02*
X2873320Y-16690475D01*
X2873320Y-16690475D02*
X2968558Y-16738094D01*
X2968558Y-16738094D02*
X3016177Y-16785713D01*
X3016177Y-16785713D02*
X3063796Y-16880951D01*
X3063796Y-16880951D02*
X3063796Y-17261903D01*
X2539987Y-15642855D02*
X2539987Y-15071427D01*
X3539987Y-15357141D02*
X2539987Y-15357141D01*
X3539987Y-14738093D02*
X2539987Y-14738093D01*
X3539987Y-14261903D02*
X2539987Y-14261903D01*
X2539987Y-14261903D02*
X3254272Y-13928570D01*
X3254272Y-13928570D02*
X2539987Y-13595237D01*
X2539987Y-13595237D02*
X3539987Y-13595237D01*
X3539987Y-13119046D02*
X2539987Y-13119046D01*
X3539987Y-12642856D02*
X2539987Y-12642856D01*
X2539987Y-12642856D02*
X3539987Y-12071428D01*
X3539987Y-12071428D02*
X2539987Y-12071428D01*
X2587606Y-11071428D02*
X2539987Y-11166666D01*
X2539987Y-11166666D02*
X2539987Y-11309523D01*
X2539987Y-11309523D02*
X2587606Y-11452380D01*
X2587606Y-11452380D02*
X2682844Y-11547618D01*
X2682844Y-11547618D02*
X2778082Y-11595237D01*
X2778082Y-11595237D02*
X2968558Y-11642856D01*
X2968558Y-11642856D02*
X3111415Y-11642856D01*
X3111415Y-11642856D02*
X3301891Y-11595237D01*
X3301891Y-11595237D02*
X3397129Y-11547618D01*
X3397129Y-11547618D02*
X3492368Y-11452380D01*
X3492368Y-11452380D02*
X3539987Y-11309523D01*
X3539987Y-11309523D02*
X3539987Y-11214285D01*
X3539987Y-11214285D02*
X3492368Y-11071428D01*
X3492368Y-11071428D02*
X3444748Y-11023809D01*
X3444748Y-11023809D02*
X3111415Y-11023809D01*
X3111415Y-11023809D02*
X3111415Y-11214285D01*
X5102312Y-19095237D02*
X5149931Y-18952380D01*
X5149931Y-18952380D02*
X5149931Y-18714285D01*
X5149931Y-18714285D02*
X5102312Y-18619047D01*
X5102312Y-18619047D02*
X5054692Y-18571428D01*
X5054692Y-18571428D02*
X4959454Y-18523809D01*
X4959454Y-18523809D02*
X4864216Y-18523809D01*
X4864216Y-18523809D02*
X4768978Y-18571428D01*
X4768978Y-18571428D02*
X4721359Y-18619047D01*
X4721359Y-18619047D02*
X4673740Y-18714285D01*
X4673740Y-18714285D02*
X4626121Y-18904761D01*
X4626121Y-18904761D02*
X4578502Y-18999999D01*
X4578502Y-18999999D02*
X4530883Y-19047618D01*
X4530883Y-19047618D02*
X4435645Y-19095237D01*
X4435645Y-19095237D02*
X4340407Y-19095237D01*
X4340407Y-19095237D02*
X4245169Y-19047618D01*
X4245169Y-19047618D02*
X4197550Y-18999999D01*
X4197550Y-18999999D02*
X4149931Y-18904761D01*
X4149931Y-18904761D02*
X4149931Y-18666666D01*
X4149931Y-18666666D02*
X4197550Y-18523809D01*
X4673740Y-17904761D02*
X5149931Y-17904761D01*
X4149931Y-18238094D02*
X4673740Y-17904761D01*
X4673740Y-17904761D02*
X4149931Y-17571428D01*
X5102312Y-17285713D02*
X5149931Y-17142856D01*
X5149931Y-17142856D02*
X5149931Y-16904761D01*
X5149931Y-16904761D02*
X5102312Y-16809523D01*
X5102312Y-16809523D02*
X5054692Y-16761904D01*
X5054692Y-16761904D02*
X4959454Y-16714285D01*
X4959454Y-16714285D02*
X4864216Y-16714285D01*
X4864216Y-16714285D02*
X4768978Y-16761904D01*
X4768978Y-16761904D02*
X4721359Y-16809523D01*
X4721359Y-16809523D02*
X4673740Y-16904761D01*
X4673740Y-16904761D02*
X4626121Y-17095237D01*
X4626121Y-17095237D02*
X4578502Y-17190475D01*
X4578502Y-17190475D02*
X4530883Y-17238094D01*
X4530883Y-17238094D02*
X4435645Y-17285713D01*
X4435645Y-17285713D02*
X4340407Y-17285713D01*
X4340407Y-17285713D02*
X4245169Y-17238094D01*
X4245169Y-17238094D02*
X4197550Y-17190475D01*
X4197550Y-17190475D02*
X4149931Y-17095237D01*
X4149931Y-17095237D02*
X4149931Y-16857142D01*
X4149931Y-16857142D02*
X4197550Y-16714285D01*
X4149931Y-16428570D02*
X4149931Y-15857142D01*
X5149931Y-16142856D02*
X4149931Y-16142856D01*
X4626121Y-15523808D02*
X4626121Y-15190475D01*
X5149931Y-15047618D02*
X5149931Y-15523808D01*
X5149931Y-15523808D02*
X4149931Y-15523808D01*
X4149931Y-15523808D02*
X4149931Y-15047618D01*
X5149931Y-14619046D02*
X4149931Y-14619046D01*
X4149931Y-14619046D02*
X4864216Y-14285713D01*
X4864216Y-14285713D02*
X4149931Y-13952380D01*
X4149931Y-13952380D02*
X5149931Y-13952380D01*
X8369819Y-22499999D02*
X7369819Y-22499999D01*
X7369819Y-22499999D02*
X7369819Y-22119047D01*
X7369819Y-22119047D02*
X7417438Y-22023809D01*
X7417438Y-22023809D02*
X7465057Y-21976190D01*
X7465057Y-21976190D02*
X7560295Y-21928571D01*
X7560295Y-21928571D02*
X7703152Y-21928571D01*
X7703152Y-21928571D02*
X7798390Y-21976190D01*
X7798390Y-21976190D02*
X7846009Y-22023809D01*
X7846009Y-22023809D02*
X7893628Y-22119047D01*
X7893628Y-22119047D02*
X7893628Y-22499999D01*
X7369819Y-21499999D02*
X8179342Y-21499999D01*
X8179342Y-21499999D02*
X8274580Y-21452380D01*
X8274580Y-21452380D02*
X8322200Y-21404761D01*
X8322200Y-21404761D02*
X8369819Y-21309523D01*
X8369819Y-21309523D02*
X8369819Y-21119047D01*
X8369819Y-21119047D02*
X8322200Y-21023809D01*
X8322200Y-21023809D02*
X8274580Y-20976190D01*
X8274580Y-20976190D02*
X8179342Y-20928571D01*
X8179342Y-20928571D02*
X7369819Y-20928571D01*
X8369819Y-19976190D02*
X8369819Y-20452380D01*
X8369819Y-20452380D02*
X7369819Y-20452380D01*
X8322200Y-19690475D02*
X8369819Y-19547618D01*
X8369819Y-19547618D02*
X8369819Y-19309523D01*
X8369819Y-19309523D02*
X8322200Y-19214285D01*
X8322200Y-19214285D02*
X8274580Y-19166666D01*
X8274580Y-19166666D02*
X8179342Y-19119047D01*
X8179342Y-19119047D02*
X8084104Y-19119047D01*
X8084104Y-19119047D02*
X7988866Y-19166666D01*
X7988866Y-19166666D02*
X7941247Y-19214285D01*
X7941247Y-19214285D02*
X7893628Y-19309523D01*
X7893628Y-19309523D02*
X7846009Y-19499999D01*
X7846009Y-19499999D02*
X7798390Y-19595237D01*
X7798390Y-19595237D02*
X7750771Y-19642856D01*
X7750771Y-19642856D02*
X7655533Y-19690475D01*
X7655533Y-19690475D02*
X7560295Y-19690475D01*
X7560295Y-19690475D02*
X7465057Y-19642856D01*
X7465057Y-19642856D02*
X7417438Y-19595237D01*
X7417438Y-19595237D02*
X7369819Y-19499999D01*
X7369819Y-19499999D02*
X7369819Y-19261904D01*
X7369819Y-19261904D02*
X7417438Y-19119047D01*
X8084104Y-18738094D02*
X8084104Y-18261904D01*
X8369819Y-18833332D02*
X7369819Y-18499999D01*
X7369819Y-18499999D02*
X8369819Y-18166666D01*
X8369819Y-17261904D02*
X7893628Y-17595237D01*
X8369819Y-17833332D02*
X7369819Y-17833332D01*
X7369819Y-17833332D02*
X7369819Y-17452380D01*
X7369819Y-17452380D02*
X7417438Y-17357142D01*
X7417438Y-17357142D02*
X7465057Y-17309523D01*
X7465057Y-17309523D02*
X7560295Y-17261904D01*
X7560295Y-17261904D02*
X7703152Y-17261904D01*
X7703152Y-17261904D02*
X7798390Y-17309523D01*
X7798390Y-17309523D02*
X7846009Y-17357142D01*
X7846009Y-17357142D02*
X7893628Y-17452380D01*
X7893628Y-17452380D02*
X7893628Y-17833332D01*
X7988866Y-16833332D02*
X7988866Y-16071428D01*
X8369819Y-15023809D02*
X7893628Y-15357142D01*
X8369819Y-15595237D02*
X7369819Y-15595237D01*
X7369819Y-15595237D02*
X7369819Y-15214285D01*
X7369819Y-15214285D02*
X7417438Y-15119047D01*
X7417438Y-15119047D02*
X7465057Y-15071428D01*
X7465057Y-15071428D02*
X7560295Y-15023809D01*
X7560295Y-15023809D02*
X7703152Y-15023809D01*
X7703152Y-15023809D02*
X7798390Y-15071428D01*
X7798390Y-15071428D02*
X7846009Y-15119047D01*
X7846009Y-15119047D02*
X7893628Y-15214285D01*
X7893628Y-15214285D02*
X7893628Y-15595237D01*
X8322200Y-14642856D02*
X8369819Y-14499999D01*
X8369819Y-14499999D02*
X8369819Y-14261904D01*
X8369819Y-14261904D02*
X8322200Y-14166666D01*
X8322200Y-14166666D02*
X8274580Y-14119047D01*
X8274580Y-14119047D02*
X8179342Y-14071428D01*
X8179342Y-14071428D02*
X8084104Y-14071428D01*
X8084104Y-14071428D02*
X7988866Y-14119047D01*
X7988866Y-14119047D02*
X7941247Y-14166666D01*
X7941247Y-14166666D02*
X7893628Y-14261904D01*
X7893628Y-14261904D02*
X7846009Y-14452380D01*
X7846009Y-14452380D02*
X7798390Y-14547618D01*
X7798390Y-14547618D02*
X7750771Y-14595237D01*
X7750771Y-14595237D02*
X7655533Y-14642856D01*
X7655533Y-14642856D02*
X7560295Y-14642856D01*
X7560295Y-14642856D02*
X7465057Y-14595237D01*
X7465057Y-14595237D02*
X7417438Y-14547618D01*
X7417438Y-14547618D02*
X7369819Y-14452380D01*
X7369819Y-14452380D02*
X7369819Y-14214285D01*
X7369819Y-14214285D02*
X7417438Y-14071428D01*
X8369819Y-13642856D02*
X7369819Y-13642856D01*
X7988866Y-13166666D02*
X7988866Y-12404762D01*
X7369819Y-11738095D02*
X7369819Y-11642857D01*
X7369819Y-11642857D02*
X7417438Y-11547619D01*
X7417438Y-11547619D02*
X7465057Y-11500000D01*
X7465057Y-11500000D02*
X7560295Y-11452381D01*
X7560295Y-11452381D02*
X7750771Y-11404762D01*
X7750771Y-11404762D02*
X7988866Y-11404762D01*
X7988866Y-11404762D02*
X8179342Y-11452381D01*
X8179342Y-11452381D02*
X8274580Y-11500000D01*
X8274580Y-11500000D02*
X8322200Y-11547619D01*
X8322200Y-11547619D02*
X8369819Y-11642857D01*
X8369819Y-11642857D02*
X8369819Y-11738095D01*
X8369819Y-11738095D02*
X8322200Y-11833333D01*
X8322200Y-11833333D02*
X8274580Y-11880952D01*
X8274580Y-11880952D02*
X8179342Y-11928571D01*
X8179342Y-11928571D02*
X7988866Y-11976190D01*
X7988866Y-11976190D02*
X7750771Y-11976190D01*
X7750771Y-11976190D02*
X7560295Y-11928571D01*
X7560295Y-11928571D02*
X7465057Y-11880952D01*
X7465057Y-11880952D02*
X7417438Y-11833333D01*
X7417438Y-11833333D02*
X7369819Y-11738095D01*
X8369819Y-10452381D02*
X8369819Y-11023809D01*
X8369819Y-10738095D02*
X7369819Y-10738095D01*
X7369819Y-10738095D02*
X7512676Y-10833333D01*
X7512676Y-10833333D02*
X7607914Y-10928571D01*
X7607914Y-10928571D02*
X7655533Y-11023809D01*
X63649931Y-21500000D02*
X63649931Y-21976190D01*
X63649931Y-21976190D02*
X62649931Y-21976190D01*
X63649931Y-21166666D02*
X62983264Y-21166666D01*
X62649931Y-21166666D02*
X62697550Y-21214285D01*
X62697550Y-21214285D02*
X62745169Y-21166666D01*
X62745169Y-21166666D02*
X62697550Y-21119047D01*
X62697550Y-21119047D02*
X62649931Y-21166666D01*
X62649931Y-21166666D02*
X62745169Y-21166666D01*
X63602312Y-20261905D02*
X63649931Y-20357143D01*
X63649931Y-20357143D02*
X63649931Y-20547619D01*
X63649931Y-20547619D02*
X63602312Y-20642857D01*
X63602312Y-20642857D02*
X63554692Y-20690476D01*
X63554692Y-20690476D02*
X63459454Y-20738095D01*
X63459454Y-20738095D02*
X63173740Y-20738095D01*
X63173740Y-20738095D02*
X63078502Y-20690476D01*
X63078502Y-20690476D02*
X63030883Y-20642857D01*
X63030883Y-20642857D02*
X62983264Y-20547619D01*
X62983264Y-20547619D02*
X62983264Y-20357143D01*
X62983264Y-20357143D02*
X63030883Y-20261905D01*
X63602312Y-19452381D02*
X63649931Y-19547619D01*
X63649931Y-19547619D02*
X63649931Y-19738095D01*
X63649931Y-19738095D02*
X63602312Y-19833333D01*
X63602312Y-19833333D02*
X63507073Y-19880952D01*
X63507073Y-19880952D02*
X63126121Y-19880952D01*
X63126121Y-19880952D02*
X63030883Y-19833333D01*
X63030883Y-19833333D02*
X62983264Y-19738095D01*
X62983264Y-19738095D02*
X62983264Y-19547619D01*
X62983264Y-19547619D02*
X63030883Y-19452381D01*
X63030883Y-19452381D02*
X63126121Y-19404762D01*
X63126121Y-19404762D02*
X63221359Y-19404762D01*
X63221359Y-19404762D02*
X63316597Y-19880952D01*
X62983264Y-18976190D02*
X63649931Y-18976190D01*
X63078502Y-18976190D02*
X63030883Y-18928571D01*
X63030883Y-18928571D02*
X62983264Y-18833333D01*
X62983264Y-18833333D02*
X62983264Y-18690476D01*
X62983264Y-18690476D02*
X63030883Y-18595238D01*
X63030883Y-18595238D02*
X63126121Y-18547619D01*
X63126121Y-18547619D02*
X63649931Y-18547619D01*
X63602312Y-18119047D02*
X63649931Y-18023809D01*
X63649931Y-18023809D02*
X63649931Y-17833333D01*
X63649931Y-17833333D02*
X63602312Y-17738095D01*
X63602312Y-17738095D02*
X63507073Y-17690476D01*
X63507073Y-17690476D02*
X63459454Y-17690476D01*
X63459454Y-17690476D02*
X63364216Y-17738095D01*
X63364216Y-17738095D02*
X63316597Y-17833333D01*
X63316597Y-17833333D02*
X63316597Y-17976190D01*
X63316597Y-17976190D02*
X63268978Y-18071428D01*
X63268978Y-18071428D02*
X63173740Y-18119047D01*
X63173740Y-18119047D02*
X63126121Y-18119047D01*
X63126121Y-18119047D02*
X63030883Y-18071428D01*
X63030883Y-18071428D02*
X62983264Y-17976190D01*
X62983264Y-17976190D02*
X62983264Y-17833333D01*
X62983264Y-17833333D02*
X63030883Y-17738095D01*
X63602312Y-16880952D02*
X63649931Y-16976190D01*
X63649931Y-16976190D02*
X63649931Y-17166666D01*
X63649931Y-17166666D02*
X63602312Y-17261904D01*
X63602312Y-17261904D02*
X63507073Y-17309523D01*
X63507073Y-17309523D02*
X63126121Y-17309523D01*
X63126121Y-17309523D02*
X63030883Y-17261904D01*
X63030883Y-17261904D02*
X62983264Y-17166666D01*
X62983264Y-17166666D02*
X62983264Y-16976190D01*
X62983264Y-16976190D02*
X63030883Y-16880952D01*
X63030883Y-16880952D02*
X63126121Y-16833333D01*
X63126121Y-16833333D02*
X63221359Y-16833333D01*
X63221359Y-16833333D02*
X63316597Y-17309523D01*
X63649931Y-15976190D02*
X62649931Y-15976190D01*
X63602312Y-15976190D02*
X63649931Y-16071428D01*
X63649931Y-16071428D02*
X63649931Y-16261904D01*
X63649931Y-16261904D02*
X63602312Y-16357142D01*
X63602312Y-16357142D02*
X63554692Y-16404761D01*
X63554692Y-16404761D02*
X63459454Y-16452380D01*
X63459454Y-16452380D02*
X63173740Y-16452380D01*
X63173740Y-16452380D02*
X63078502Y-16404761D01*
X63078502Y-16404761D02*
X63030883Y-16357142D01*
X63030883Y-16357142D02*
X62983264Y-16261904D01*
X62983264Y-16261904D02*
X62983264Y-16071428D01*
X62983264Y-16071428D02*
X63030883Y-15976190D01*
X62983264Y-14309523D02*
X63649931Y-14309523D01*
X62983264Y-14738094D02*
X63507073Y-14738094D01*
X63507073Y-14738094D02*
X63602312Y-14690475D01*
X63602312Y-14690475D02*
X63649931Y-14595237D01*
X63649931Y-14595237D02*
X63649931Y-14452380D01*
X63649931Y-14452380D02*
X63602312Y-14357142D01*
X63602312Y-14357142D02*
X63554692Y-14309523D01*
X62983264Y-13833332D02*
X63649931Y-13833332D01*
X63078502Y-13833332D02*
X63030883Y-13785713D01*
X63030883Y-13785713D02*
X62983264Y-13690475D01*
X62983264Y-13690475D02*
X62983264Y-13547618D01*
X62983264Y-13547618D02*
X63030883Y-13452380D01*
X63030883Y-13452380D02*
X63126121Y-13404761D01*
X63126121Y-13404761D02*
X63649931Y-13404761D01*
X63649931Y-12499999D02*
X62649931Y-12499999D01*
X63602312Y-12499999D02*
X63649931Y-12595237D01*
X63649931Y-12595237D02*
X63649931Y-12785713D01*
X63649931Y-12785713D02*
X63602312Y-12880951D01*
X63602312Y-12880951D02*
X63554692Y-12928570D01*
X63554692Y-12928570D02*
X63459454Y-12976189D01*
X63459454Y-12976189D02*
X63173740Y-12976189D01*
X63173740Y-12976189D02*
X63078502Y-12928570D01*
X63078502Y-12928570D02*
X63030883Y-12880951D01*
X63030883Y-12880951D02*
X62983264Y-12785713D01*
X62983264Y-12785713D02*
X62983264Y-12595237D01*
X62983264Y-12595237D02*
X63030883Y-12499999D01*
X63602312Y-11642856D02*
X63649931Y-11738094D01*
X63649931Y-11738094D02*
X63649931Y-11928570D01*
X63649931Y-11928570D02*
X63602312Y-12023808D01*
X63602312Y-12023808D02*
X63507073Y-12071427D01*
X63507073Y-12071427D02*
X63126121Y-12071427D01*
X63126121Y-12071427D02*
X63030883Y-12023808D01*
X63030883Y-12023808D02*
X62983264Y-11928570D01*
X62983264Y-11928570D02*
X62983264Y-11738094D01*
X62983264Y-11738094D02*
X63030883Y-11642856D01*
X63030883Y-11642856D02*
X63126121Y-11595237D01*
X63126121Y-11595237D02*
X63221359Y-11595237D01*
X63221359Y-11595237D02*
X63316597Y-12071427D01*
X63649931Y-11166665D02*
X62983264Y-11166665D01*
X63173740Y-11166665D02*
X63078502Y-11119046D01*
X63078502Y-11119046D02*
X63030883Y-11071427D01*
X63030883Y-11071427D02*
X62983264Y-10976189D01*
X62983264Y-10976189D02*
X62983264Y-10880951D01*
X65164636Y-22071428D02*
X65212256Y-22119047D01*
X65212256Y-22119047D02*
X65259875Y-22261904D01*
X65259875Y-22261904D02*
X65259875Y-22357142D01*
X65259875Y-22357142D02*
X65212256Y-22499999D01*
X65212256Y-22499999D02*
X65117017Y-22595237D01*
X65117017Y-22595237D02*
X65021779Y-22642856D01*
X65021779Y-22642856D02*
X64831303Y-22690475D01*
X64831303Y-22690475D02*
X64688446Y-22690475D01*
X64688446Y-22690475D02*
X64497970Y-22642856D01*
X64497970Y-22642856D02*
X64402732Y-22595237D01*
X64402732Y-22595237D02*
X64307494Y-22499999D01*
X64307494Y-22499999D02*
X64259875Y-22357142D01*
X64259875Y-22357142D02*
X64259875Y-22261904D01*
X64259875Y-22261904D02*
X64307494Y-22119047D01*
X64307494Y-22119047D02*
X64355113Y-22071428D01*
X64736065Y-21642856D02*
X64736065Y-21309523D01*
X65259875Y-21166666D02*
X65259875Y-21642856D01*
X65259875Y-21642856D02*
X64259875Y-21642856D01*
X64259875Y-21642856D02*
X64259875Y-21166666D01*
X65259875Y-20166666D02*
X64783684Y-20499999D01*
X65259875Y-20738094D02*
X64259875Y-20738094D01*
X64259875Y-20738094D02*
X64259875Y-20357142D01*
X64259875Y-20357142D02*
X64307494Y-20261904D01*
X64307494Y-20261904D02*
X64355113Y-20214285D01*
X64355113Y-20214285D02*
X64450351Y-20166666D01*
X64450351Y-20166666D02*
X64593208Y-20166666D01*
X64593208Y-20166666D02*
X64688446Y-20214285D01*
X64688446Y-20214285D02*
X64736065Y-20261904D01*
X64736065Y-20261904D02*
X64783684Y-20357142D01*
X64783684Y-20357142D02*
X64783684Y-20738094D01*
X65259875Y-19738094D02*
X64259875Y-19738094D01*
X64259875Y-19738094D02*
X65259875Y-19166666D01*
X65259875Y-19166666D02*
X64259875Y-19166666D01*
X64878922Y-18690475D02*
X64878922Y-17928571D01*
X64259875Y-17261904D02*
X64259875Y-17071428D01*
X64259875Y-17071428D02*
X64307494Y-16976190D01*
X64307494Y-16976190D02*
X64402732Y-16880952D01*
X64402732Y-16880952D02*
X64593208Y-16833333D01*
X64593208Y-16833333D02*
X64926541Y-16833333D01*
X64926541Y-16833333D02*
X65117017Y-16880952D01*
X65117017Y-16880952D02*
X65212256Y-16976190D01*
X65212256Y-16976190D02*
X65259875Y-17071428D01*
X65259875Y-17071428D02*
X65259875Y-17261904D01*
X65259875Y-17261904D02*
X65212256Y-17357142D01*
X65212256Y-17357142D02*
X65117017Y-17452380D01*
X65117017Y-17452380D02*
X64926541Y-17499999D01*
X64926541Y-17499999D02*
X64593208Y-17499999D01*
X64593208Y-17499999D02*
X64402732Y-17452380D01*
X64402732Y-17452380D02*
X64307494Y-17357142D01*
X64307494Y-17357142D02*
X64259875Y-17261904D01*
X65259875Y-16404761D02*
X64259875Y-16404761D01*
X64736065Y-16404761D02*
X64736065Y-15833333D01*
X65259875Y-15833333D02*
X64259875Y-15833333D01*
X65259875Y-14880952D02*
X65259875Y-15357142D01*
X65259875Y-15357142D02*
X64259875Y-15357142D01*
X64878922Y-14547618D02*
X64878922Y-13785714D01*
X65212256Y-13357142D02*
X65259875Y-13214285D01*
X65259875Y-13214285D02*
X65259875Y-12976190D01*
X65259875Y-12976190D02*
X65212256Y-12880952D01*
X65212256Y-12880952D02*
X65164636Y-12833333D01*
X65164636Y-12833333D02*
X65069398Y-12785714D01*
X65069398Y-12785714D02*
X64974160Y-12785714D01*
X64974160Y-12785714D02*
X64878922Y-12833333D01*
X64878922Y-12833333D02*
X64831303Y-12880952D01*
X64831303Y-12880952D02*
X64783684Y-12976190D01*
X64783684Y-12976190D02*
X64736065Y-13166666D01*
X64736065Y-13166666D02*
X64688446Y-13261904D01*
X64688446Y-13261904D02*
X64640827Y-13309523D01*
X64640827Y-13309523D02*
X64545589Y-13357142D01*
X64545589Y-13357142D02*
X64450351Y-13357142D01*
X64450351Y-13357142D02*
X64355113Y-13309523D01*
X64355113Y-13309523D02*
X64307494Y-13261904D01*
X64307494Y-13261904D02*
X64259875Y-13166666D01*
X64259875Y-13166666D02*
X64259875Y-12928571D01*
X64259875Y-12928571D02*
X64307494Y-12785714D01*
X64593208Y-11690475D02*
X65259875Y-11452380D01*
X65259875Y-11452380D02*
X64593208Y-11214285D01*
X64355113Y-10880951D02*
X64307494Y-10833332D01*
X64307494Y-10833332D02*
X64259875Y-10738094D01*
X64259875Y-10738094D02*
X64259875Y-10499999D01*
X64259875Y-10499999D02*
X64307494Y-10404761D01*
X64307494Y-10404761D02*
X64355113Y-10357142D01*
X64355113Y-10357142D02*
X64450351Y-10309523D01*
X64450351Y-10309523D02*
X64545589Y-10309523D01*
X64545589Y-10309523D02*
X64688446Y-10357142D01*
X64688446Y-10357142D02*
X65259875Y-10928570D01*
X65259875Y-10928570D02*
X65259875Y-10309523D01*
X66869819Y-23714287D02*
X66822200Y-23809525D01*
X66822200Y-23809525D02*
X66774580Y-23857144D01*
X66774580Y-23857144D02*
X66679342Y-23904763D01*
X66679342Y-23904763D02*
X66393628Y-23904763D01*
X66393628Y-23904763D02*
X66298390Y-23857144D01*
X66298390Y-23857144D02*
X66250771Y-23809525D01*
X66250771Y-23809525D02*
X66203152Y-23714287D01*
X66203152Y-23714287D02*
X66203152Y-23571430D01*
X66203152Y-23571430D02*
X66250771Y-23476192D01*
X66250771Y-23476192D02*
X66298390Y-23428573D01*
X66298390Y-23428573D02*
X66393628Y-23380954D01*
X66393628Y-23380954D02*
X66679342Y-23380954D01*
X66679342Y-23380954D02*
X66774580Y-23428573D01*
X66774580Y-23428573D02*
X66822200Y-23476192D01*
X66822200Y-23476192D02*
X66869819Y-23571430D01*
X66869819Y-23571430D02*
X66869819Y-23714287D01*
X66869819Y-22952382D02*
X66203152Y-22952382D01*
X66393628Y-22952382D02*
X66298390Y-22904763D01*
X66298390Y-22904763D02*
X66250771Y-22857144D01*
X66250771Y-22857144D02*
X66203152Y-22761906D01*
X66203152Y-22761906D02*
X66203152Y-22666668D01*
X66869819Y-21142858D02*
X66346009Y-21142858D01*
X66346009Y-21142858D02*
X66250771Y-21190477D01*
X66250771Y-21190477D02*
X66203152Y-21285715D01*
X66203152Y-21285715D02*
X66203152Y-21476191D01*
X66203152Y-21476191D02*
X66250771Y-21571429D01*
X66822200Y-21142858D02*
X66869819Y-21238096D01*
X66869819Y-21238096D02*
X66869819Y-21476191D01*
X66869819Y-21476191D02*
X66822200Y-21571429D01*
X66822200Y-21571429D02*
X66726961Y-21619048D01*
X66726961Y-21619048D02*
X66631723Y-21619048D01*
X66631723Y-21619048D02*
X66536485Y-21571429D01*
X66536485Y-21571429D02*
X66488866Y-21476191D01*
X66488866Y-21476191D02*
X66488866Y-21238096D01*
X66488866Y-21238096D02*
X66441247Y-21142858D01*
X66203152Y-20666667D02*
X66869819Y-20666667D01*
X66298390Y-20666667D02*
X66250771Y-20619048D01*
X66250771Y-20619048D02*
X66203152Y-20523810D01*
X66203152Y-20523810D02*
X66203152Y-20380953D01*
X66203152Y-20380953D02*
X66250771Y-20285715D01*
X66250771Y-20285715D02*
X66346009Y-20238096D01*
X66346009Y-20238096D02*
X66869819Y-20238096D01*
X66203152Y-19857143D02*
X66869819Y-19619048D01*
X66203152Y-19380953D02*
X66869819Y-19619048D01*
X66869819Y-19619048D02*
X67107914Y-19714286D01*
X67107914Y-19714286D02*
X67155533Y-19761905D01*
X67155533Y-19761905D02*
X67203152Y-19857143D01*
X66869819Y-18095238D02*
X66822200Y-18190476D01*
X66822200Y-18190476D02*
X66726961Y-18238095D01*
X66726961Y-18238095D02*
X65869819Y-18238095D01*
X66869819Y-17285714D02*
X66346009Y-17285714D01*
X66346009Y-17285714D02*
X66250771Y-17333333D01*
X66250771Y-17333333D02*
X66203152Y-17428571D01*
X66203152Y-17428571D02*
X66203152Y-17619047D01*
X66203152Y-17619047D02*
X66250771Y-17714285D01*
X66822200Y-17285714D02*
X66869819Y-17380952D01*
X66869819Y-17380952D02*
X66869819Y-17619047D01*
X66869819Y-17619047D02*
X66822200Y-17714285D01*
X66822200Y-17714285D02*
X66726961Y-17761904D01*
X66726961Y-17761904D02*
X66631723Y-17761904D01*
X66631723Y-17761904D02*
X66536485Y-17714285D01*
X66536485Y-17714285D02*
X66488866Y-17619047D01*
X66488866Y-17619047D02*
X66488866Y-17380952D01*
X66488866Y-17380952D02*
X66441247Y-17285714D01*
X66203152Y-16952380D02*
X66203152Y-16571428D01*
X65869819Y-16809523D02*
X66726961Y-16809523D01*
X66726961Y-16809523D02*
X66822200Y-16761904D01*
X66822200Y-16761904D02*
X66869819Y-16666666D01*
X66869819Y-16666666D02*
X66869819Y-16571428D01*
X66822200Y-15857142D02*
X66869819Y-15952380D01*
X66869819Y-15952380D02*
X66869819Y-16142856D01*
X66869819Y-16142856D02*
X66822200Y-16238094D01*
X66822200Y-16238094D02*
X66726961Y-16285713D01*
X66726961Y-16285713D02*
X66346009Y-16285713D01*
X66346009Y-16285713D02*
X66250771Y-16238094D01*
X66250771Y-16238094D02*
X66203152Y-16142856D01*
X66203152Y-16142856D02*
X66203152Y-15952380D01*
X66203152Y-15952380D02*
X66250771Y-15857142D01*
X66250771Y-15857142D02*
X66346009Y-15809523D01*
X66346009Y-15809523D02*
X66441247Y-15809523D01*
X66441247Y-15809523D02*
X66536485Y-16285713D01*
X66869819Y-15380951D02*
X66203152Y-15380951D01*
X66393628Y-15380951D02*
X66298390Y-15333332D01*
X66298390Y-15333332D02*
X66250771Y-15285713D01*
X66250771Y-15285713D02*
X66203152Y-15190475D01*
X66203152Y-15190475D02*
X66203152Y-15095237D01*
X66203152Y-14095236D02*
X66869819Y-13857141D01*
X66869819Y-13857141D02*
X66203152Y-13619046D01*
X66822200Y-12857141D02*
X66869819Y-12952379D01*
X66869819Y-12952379D02*
X66869819Y-13142855D01*
X66869819Y-13142855D02*
X66822200Y-13238093D01*
X66822200Y-13238093D02*
X66726961Y-13285712D01*
X66726961Y-13285712D02*
X66346009Y-13285712D01*
X66346009Y-13285712D02*
X66250771Y-13238093D01*
X66250771Y-13238093D02*
X66203152Y-13142855D01*
X66203152Y-13142855D02*
X66203152Y-12952379D01*
X66203152Y-12952379D02*
X66250771Y-12857141D01*
X66250771Y-12857141D02*
X66346009Y-12809522D01*
X66346009Y-12809522D02*
X66441247Y-12809522D01*
X66441247Y-12809522D02*
X66536485Y-13285712D01*
X66869819Y-12380950D02*
X66203152Y-12380950D01*
X66393628Y-12380950D02*
X66298390Y-12333331D01*
X66298390Y-12333331D02*
X66250771Y-12285712D01*
X66250771Y-12285712D02*
X66203152Y-12190474D01*
X66203152Y-12190474D02*
X66203152Y-12095236D01*
X66822200Y-11809521D02*
X66869819Y-11714283D01*
X66869819Y-11714283D02*
X66869819Y-11523807D01*
X66869819Y-11523807D02*
X66822200Y-11428569D01*
X66822200Y-11428569D02*
X66726961Y-11380950D01*
X66726961Y-11380950D02*
X66679342Y-11380950D01*
X66679342Y-11380950D02*
X66584104Y-11428569D01*
X66584104Y-11428569D02*
X66536485Y-11523807D01*
X66536485Y-11523807D02*
X66536485Y-11666664D01*
X66536485Y-11666664D02*
X66488866Y-11761902D01*
X66488866Y-11761902D02*
X66393628Y-11809521D01*
X66393628Y-11809521D02*
X66346009Y-11809521D01*
X66346009Y-11809521D02*
X66250771Y-11761902D01*
X66250771Y-11761902D02*
X66203152Y-11666664D01*
X66203152Y-11666664D02*
X66203152Y-11523807D01*
X66203152Y-11523807D02*
X66250771Y-11428569D01*
X66869819Y-10952378D02*
X66203152Y-10952378D01*
X65869819Y-10952378D02*
X65917438Y-10999997D01*
X65917438Y-10999997D02*
X65965057Y-10952378D01*
X65965057Y-10952378D02*
X65917438Y-10904759D01*
X65917438Y-10904759D02*
X65869819Y-10952378D01*
X65869819Y-10952378D02*
X65965057Y-10952378D01*
X66869819Y-10333331D02*
X66822200Y-10428569D01*
X66822200Y-10428569D02*
X66774580Y-10476188D01*
X66774580Y-10476188D02*
X66679342Y-10523807D01*
X66679342Y-10523807D02*
X66393628Y-10523807D01*
X66393628Y-10523807D02*
X66298390Y-10476188D01*
X66298390Y-10476188D02*
X66250771Y-10428569D01*
X66250771Y-10428569D02*
X66203152Y-10333331D01*
X66203152Y-10333331D02*
X66203152Y-10190474D01*
X66203152Y-10190474D02*
X66250771Y-10095236D01*
X66250771Y-10095236D02*
X66298390Y-10047617D01*
X66298390Y-10047617D02*
X66393628Y-9999998D01*
X66393628Y-9999998D02*
X66679342Y-9999998D01*
X66679342Y-9999998D02*
X66774580Y-10047617D01*
X66774580Y-10047617D02*
X66822200Y-10095236D01*
X66822200Y-10095236D02*
X66869819Y-10190474D01*
X66869819Y-10190474D02*
X66869819Y-10333331D01*
X66203152Y-9571426D02*
X66869819Y-9571426D01*
X66298390Y-9571426D02*
X66250771Y-9523807D01*
X66250771Y-9523807D02*
X66203152Y-9428569D01*
X66203152Y-9428569D02*
X66203152Y-9285712D01*
X66203152Y-9285712D02*
X66250771Y-9190474D01*
X66250771Y-9190474D02*
X66346009Y-9142855D01*
X66346009Y-9142855D02*
X66869819Y-9142855D01*
X55333333Y-5954819D02*
X55000000Y-5478628D01*
X54761905Y-5954819D02*
X54761905Y-4954819D01*
X54761905Y-4954819D02*
X55142857Y-4954819D01*
X55142857Y-4954819D02*
X55238095Y-5002438D01*
X55238095Y-5002438D02*
X55285714Y-5050057D01*
X55285714Y-5050057D02*
X55333333Y-5145295D01*
X55333333Y-5145295D02*
X55333333Y-5288152D01*
X55333333Y-5288152D02*
X55285714Y-5383390D01*
X55285714Y-5383390D02*
X55238095Y-5431009D01*
X55238095Y-5431009D02*
X55142857Y-5478628D01*
X55142857Y-5478628D02*
X54761905Y-5478628D01*
X56190476Y-5288152D02*
X56190476Y-5954819D01*
X55952381Y-4907200D02*
X55714286Y-5621485D01*
X55714286Y-5621485D02*
X56333333Y-5621485D01*
X40204819Y-5761904D02*
X41014342Y-5761904D01*
X41014342Y-5761904D02*
X41109580Y-5714285D01*
X41109580Y-5714285D02*
X41157200Y-5666666D01*
X41157200Y-5666666D02*
X41204819Y-5571428D01*
X41204819Y-5571428D02*
X41204819Y-5380952D01*
X41204819Y-5380952D02*
X41157200Y-5285714D01*
X41157200Y-5285714D02*
X41109580Y-5238095D01*
X41109580Y-5238095D02*
X41014342Y-5190476D01*
X41014342Y-5190476D02*
X40204819Y-5190476D01*
X41204819Y-4190476D02*
X41204819Y-4761904D01*
X41204819Y-4476190D02*
X40204819Y-4476190D01*
X40204819Y-4476190D02*
X40347676Y-4571428D01*
X40347676Y-4571428D02*
X40442914Y-4666666D01*
X40442914Y-4666666D02*
X40490533Y-4761904D01*
X41454819Y-17666666D02*
X40978628Y-17999999D01*
X41454819Y-18238094D02*
X40454819Y-18238094D01*
X40454819Y-18238094D02*
X40454819Y-17857142D01*
X40454819Y-17857142D02*
X40502438Y-17761904D01*
X40502438Y-17761904D02*
X40550057Y-17714285D01*
X40550057Y-17714285D02*
X40645295Y-17666666D01*
X40645295Y-17666666D02*
X40788152Y-17666666D01*
X40788152Y-17666666D02*
X40883390Y-17714285D01*
X40883390Y-17714285D02*
X40931009Y-17761904D01*
X40931009Y-17761904D02*
X40978628Y-17857142D01*
X40978628Y-17857142D02*
X40978628Y-18238094D01*
X40454819Y-16809523D02*
X40454819Y-16999999D01*
X40454819Y-16999999D02*
X40502438Y-17095237D01*
X40502438Y-17095237D02*
X40550057Y-17142856D01*
X40550057Y-17142856D02*
X40692914Y-17238094D01*
X40692914Y-17238094D02*
X40883390Y-17285713D01*
X40883390Y-17285713D02*
X41264342Y-17285713D01*
X41264342Y-17285713D02*
X41359580Y-17238094D01*
X41359580Y-17238094D02*
X41407200Y-17190475D01*
X41407200Y-17190475D02*
X41454819Y-17095237D01*
X41454819Y-17095237D02*
X41454819Y-16904761D01*
X41454819Y-16904761D02*
X41407200Y-16809523D01*
X41407200Y-16809523D02*
X41359580Y-16761904D01*
X41359580Y-16761904D02*
X41264342Y-16714285D01*
X41264342Y-16714285D02*
X41026247Y-16714285D01*
X41026247Y-16714285D02*
X40931009Y-16761904D01*
X40931009Y-16761904D02*
X40883390Y-16809523D01*
X40883390Y-16809523D02*
X40835771Y-16904761D01*
X40835771Y-16904761D02*
X40835771Y-17095237D01*
X40835771Y-17095237D02*
X40883390Y-17190475D01*
X40883390Y-17190475D02*
X40931009Y-17238094D01*
X40931009Y-17238094D02*
X41026247Y-17285713D01*
X56166666Y-22954819D02*
X56166666Y-23669104D01*
X56166666Y-23669104D02*
X56119047Y-23811961D01*
X56119047Y-23811961D02*
X56023809Y-23907200D01*
X56023809Y-23907200D02*
X55880952Y-23954819D01*
X55880952Y-23954819D02*
X55785714Y-23954819D01*
X56595238Y-23050057D02*
X56642857Y-23002438D01*
X56642857Y-23002438D02*
X56738095Y-22954819D01*
X56738095Y-22954819D02*
X56976190Y-22954819D01*
X56976190Y-22954819D02*
X57071428Y-23002438D01*
X57071428Y-23002438D02*
X57119047Y-23050057D01*
X57119047Y-23050057D02*
X57166666Y-23145295D01*
X57166666Y-23145295D02*
X57166666Y-23240533D01*
X57166666Y-23240533D02*
X57119047Y-23383390D01*
X57119047Y-23383390D02*
X56547619Y-23954819D01*
X56547619Y-23954819D02*
X57166666Y-23954819D01*
X14333333Y-10954819D02*
X14000000Y-10478628D01*
X13761905Y-10954819D02*
X13761905Y-9954819D01*
X13761905Y-9954819D02*
X14142857Y-9954819D01*
X14142857Y-9954819D02*
X14238095Y-10002438D01*
X14238095Y-10002438D02*
X14285714Y-10050057D01*
X14285714Y-10050057D02*
X14333333Y-10145295D01*
X14333333Y-10145295D02*
X14333333Y-10288152D01*
X14333333Y-10288152D02*
X14285714Y-10383390D01*
X14285714Y-10383390D02*
X14238095Y-10431009D01*
X14238095Y-10431009D02*
X14142857Y-10478628D01*
X14142857Y-10478628D02*
X13761905Y-10478628D01*
X14809524Y-10954819D02*
X15000000Y-10954819D01*
X15000000Y-10954819D02*
X15095238Y-10907200D01*
X15095238Y-10907200D02*
X15142857Y-10859580D01*
X15142857Y-10859580D02*
X15238095Y-10716723D01*
X15238095Y-10716723D02*
X15285714Y-10526247D01*
X15285714Y-10526247D02*
X15285714Y-10145295D01*
X15285714Y-10145295D02*
X15238095Y-10050057D01*
X15238095Y-10050057D02*
X15190476Y-10002438D01*
X15190476Y-10002438D02*
X15095238Y-9954819D01*
X15095238Y-9954819D02*
X14904762Y-9954819D01*
X14904762Y-9954819D02*
X14809524Y-10002438D01*
X14809524Y-10002438D02*
X14761905Y-10050057D01*
X14761905Y-10050057D02*
X14714286Y-10145295D01*
X14714286Y-10145295D02*
X14714286Y-10383390D01*
X14714286Y-10383390D02*
X14761905Y-10478628D01*
X14761905Y-10478628D02*
X14809524Y-10526247D01*
X14809524Y-10526247D02*
X14904762Y-10573866D01*
X14904762Y-10573866D02*
X15095238Y-10573866D01*
X15095238Y-10573866D02*
X15190476Y-10526247D01*
X15190476Y-10526247D02*
X15238095Y-10478628D01*
X15238095Y-10478628D02*
X15285714Y-10383390D01*
X55333333Y-9454819D02*
X55000000Y-8978628D01*
X54761905Y-9454819D02*
X54761905Y-8454819D01*
X54761905Y-8454819D02*
X55142857Y-8454819D01*
X55142857Y-8454819D02*
X55238095Y-8502438D01*
X55238095Y-8502438D02*
X55285714Y-8550057D01*
X55285714Y-8550057D02*
X55333333Y-8645295D01*
X55333333Y-8645295D02*
X55333333Y-8788152D01*
X55333333Y-8788152D02*
X55285714Y-8883390D01*
X55285714Y-8883390D02*
X55238095Y-8931009D01*
X55238095Y-8931009D02*
X55142857Y-8978628D01*
X55142857Y-8978628D02*
X54761905Y-8978628D01*
X56238095Y-8454819D02*
X55761905Y-8454819D01*
X55761905Y-8454819D02*
X55714286Y-8931009D01*
X55714286Y-8931009D02*
X55761905Y-8883390D01*
X55761905Y-8883390D02*
X55857143Y-8835771D01*
X55857143Y-8835771D02*
X56095238Y-8835771D01*
X56095238Y-8835771D02*
X56190476Y-8883390D01*
X56190476Y-8883390D02*
X56238095Y-8931009D01*
X56238095Y-8931009D02*
X56285714Y-9026247D01*
X56285714Y-9026247D02*
X56285714Y-9264342D01*
X56285714Y-9264342D02*
X56238095Y-9359580D01*
X56238095Y-9359580D02*
X56190476Y-9407200D01*
X56190476Y-9407200D02*
X56095238Y-9454819D01*
X56095238Y-9454819D02*
X55857143Y-9454819D01*
X55857143Y-9454819D02*
X55761905Y-9407200D01*
X55761905Y-9407200D02*
X55714286Y-9359580D01*
X34333333Y-27109580D02*
X34285714Y-27157200D01*
X34285714Y-27157200D02*
X34142857Y-27204819D01*
X34142857Y-27204819D02*
X34047619Y-27204819D01*
X34047619Y-27204819D02*
X33904762Y-27157200D01*
X33904762Y-27157200D02*
X33809524Y-27061961D01*
X33809524Y-27061961D02*
X33761905Y-26966723D01*
X33761905Y-26966723D02*
X33714286Y-26776247D01*
X33714286Y-26776247D02*
X33714286Y-26633390D01*
X33714286Y-26633390D02*
X33761905Y-26442914D01*
X33761905Y-26442914D02*
X33809524Y-26347676D01*
X33809524Y-26347676D02*
X33904762Y-26252438D01*
X33904762Y-26252438D02*
X34047619Y-26204819D01*
X34047619Y-26204819D02*
X34142857Y-26204819D01*
X34142857Y-26204819D02*
X34285714Y-26252438D01*
X34285714Y-26252438D02*
X34333333Y-26300057D01*
X35285714Y-27204819D02*
X34714286Y-27204819D01*
X35000000Y-27204819D02*
X35000000Y-26204819D01*
X35000000Y-26204819D02*
X34904762Y-26347676D01*
X34904762Y-26347676D02*
X34809524Y-26442914D01*
X34809524Y-26442914D02*
X34714286Y-26490533D01*
X21833333Y-10954819D02*
X21500000Y-10478628D01*
X21261905Y-10954819D02*
X21261905Y-9954819D01*
X21261905Y-9954819D02*
X21642857Y-9954819D01*
X21642857Y-9954819D02*
X21738095Y-10002438D01*
X21738095Y-10002438D02*
X21785714Y-10050057D01*
X21785714Y-10050057D02*
X21833333Y-10145295D01*
X21833333Y-10145295D02*
X21833333Y-10288152D01*
X21833333Y-10288152D02*
X21785714Y-10383390D01*
X21785714Y-10383390D02*
X21738095Y-10431009D01*
X21738095Y-10431009D02*
X21642857Y-10478628D01*
X21642857Y-10478628D02*
X21261905Y-10478628D01*
X22785714Y-10954819D02*
X22214286Y-10954819D01*
X22500000Y-10954819D02*
X22500000Y-9954819D01*
X22500000Y-9954819D02*
X22404762Y-10097676D01*
X22404762Y-10097676D02*
X22309524Y-10192914D01*
X22309524Y-10192914D02*
X22214286Y-10240533D01*
X19333333Y-8204819D02*
X19000000Y-7728628D01*
X18761905Y-8204819D02*
X18761905Y-7204819D01*
X18761905Y-7204819D02*
X19142857Y-7204819D01*
X19142857Y-7204819D02*
X19238095Y-7252438D01*
X19238095Y-7252438D02*
X19285714Y-7300057D01*
X19285714Y-7300057D02*
X19333333Y-7395295D01*
X19333333Y-7395295D02*
X19333333Y-7538152D01*
X19333333Y-7538152D02*
X19285714Y-7633390D01*
X19285714Y-7633390D02*
X19238095Y-7681009D01*
X19238095Y-7681009D02*
X19142857Y-7728628D01*
X19142857Y-7728628D02*
X18761905Y-7728628D01*
X19666667Y-7204819D02*
X20285714Y-7204819D01*
X20285714Y-7204819D02*
X19952381Y-7585771D01*
X19952381Y-7585771D02*
X20095238Y-7585771D01*
X20095238Y-7585771D02*
X20190476Y-7633390D01*
X20190476Y-7633390D02*
X20238095Y-7681009D01*
X20238095Y-7681009D02*
X20285714Y-7776247D01*
X20285714Y-7776247D02*
X20285714Y-8014342D01*
X20285714Y-8014342D02*
X20238095Y-8109580D01*
X20238095Y-8109580D02*
X20190476Y-8157200D01*
X20190476Y-8157200D02*
X20095238Y-8204819D01*
X20095238Y-8204819D02*
X19809524Y-8204819D01*
X19809524Y-8204819D02*
X19714286Y-8157200D01*
X19714286Y-8157200D02*
X19666667Y-8109580D01*
X25833333Y-10954819D02*
X25500000Y-10478628D01*
X25261905Y-10954819D02*
X25261905Y-9954819D01*
X25261905Y-9954819D02*
X25642857Y-9954819D01*
X25642857Y-9954819D02*
X25738095Y-10002438D01*
X25738095Y-10002438D02*
X25785714Y-10050057D01*
X25785714Y-10050057D02*
X25833333Y-10145295D01*
X25833333Y-10145295D02*
X25833333Y-10288152D01*
X25833333Y-10288152D02*
X25785714Y-10383390D01*
X25785714Y-10383390D02*
X25738095Y-10431009D01*
X25738095Y-10431009D02*
X25642857Y-10478628D01*
X25642857Y-10478628D02*
X25261905Y-10478628D01*
X26214286Y-10050057D02*
X26261905Y-10002438D01*
X26261905Y-10002438D02*
X26357143Y-9954819D01*
X26357143Y-9954819D02*
X26595238Y-9954819D01*
X26595238Y-9954819D02*
X26690476Y-10002438D01*
X26690476Y-10002438D02*
X26738095Y-10050057D01*
X26738095Y-10050057D02*
X26785714Y-10145295D01*
X26785714Y-10145295D02*
X26785714Y-10240533D01*
X26785714Y-10240533D02*
X26738095Y-10383390D01*
X26738095Y-10383390D02*
X26166667Y-10954819D01*
X26166667Y-10954819D02*
X26785714Y-10954819D01*
X17357142Y-10954819D02*
X17023809Y-10478628D01*
X16785714Y-10954819D02*
X16785714Y-9954819D01*
X16785714Y-9954819D02*
X17166666Y-9954819D01*
X17166666Y-9954819D02*
X17261904Y-10002438D01*
X17261904Y-10002438D02*
X17309523Y-10050057D01*
X17309523Y-10050057D02*
X17357142Y-10145295D01*
X17357142Y-10145295D02*
X17357142Y-10288152D01*
X17357142Y-10288152D02*
X17309523Y-10383390D01*
X17309523Y-10383390D02*
X17261904Y-10431009D01*
X17261904Y-10431009D02*
X17166666Y-10478628D01*
X17166666Y-10478628D02*
X16785714Y-10478628D01*
X18309523Y-10954819D02*
X17738095Y-10954819D01*
X18023809Y-10954819D02*
X18023809Y-9954819D01*
X18023809Y-9954819D02*
X17928571Y-10097676D01*
X17928571Y-10097676D02*
X17833333Y-10192914D01*
X17833333Y-10192914D02*
X17738095Y-10240533D01*
X18928571Y-9954819D02*
X19023809Y-9954819D01*
X19023809Y-9954819D02*
X19119047Y-10002438D01*
X19119047Y-10002438D02*
X19166666Y-10050057D01*
X19166666Y-10050057D02*
X19214285Y-10145295D01*
X19214285Y-10145295D02*
X19261904Y-10335771D01*
X19261904Y-10335771D02*
X19261904Y-10573866D01*
X19261904Y-10573866D02*
X19214285Y-10764342D01*
X19214285Y-10764342D02*
X19166666Y-10859580D01*
X19166666Y-10859580D02*
X19119047Y-10907200D01*
X19119047Y-10907200D02*
X19023809Y-10954819D01*
X19023809Y-10954819D02*
X18928571Y-10954819D01*
X18928571Y-10954819D02*
X18833333Y-10907200D01*
X18833333Y-10907200D02*
X18785714Y-10859580D01*
X18785714Y-10859580D02*
X18738095Y-10764342D01*
X18738095Y-10764342D02*
X18690476Y-10573866D01*
X18690476Y-10573866D02*
X18690476Y-10335771D01*
X18690476Y-10335771D02*
X18738095Y-10145295D01*
X18738095Y-10145295D02*
X18785714Y-10050057D01*
X18785714Y-10050057D02*
X18833333Y-10002438D01*
X18833333Y-10002438D02*
X18928571Y-9954819D01*
X12166666Y-22954819D02*
X12166666Y-23669104D01*
X12166666Y-23669104D02*
X12119047Y-23811961D01*
X12119047Y-23811961D02*
X12023809Y-23907200D01*
X12023809Y-23907200D02*
X11880952Y-23954819D01*
X11880952Y-23954819D02*
X11785714Y-23954819D01*
X13166666Y-23954819D02*
X12595238Y-23954819D01*
X12880952Y-23954819D02*
X12880952Y-22954819D01*
X12880952Y-22954819D02*
X12785714Y-23097676D01*
X12785714Y-23097676D02*
X12690476Y-23192914D01*
X12690476Y-23192914D02*
X12595238Y-23240533D01*
X53580819Y-17666666D02*
X53104628Y-17999999D01*
X53580819Y-18238094D02*
X52580819Y-18238094D01*
X52580819Y-18238094D02*
X52580819Y-17857142D01*
X52580819Y-17857142D02*
X52628438Y-17761904D01*
X52628438Y-17761904D02*
X52676057Y-17714285D01*
X52676057Y-17714285D02*
X52771295Y-17666666D01*
X52771295Y-17666666D02*
X52914152Y-17666666D01*
X52914152Y-17666666D02*
X53009390Y-17714285D01*
X53009390Y-17714285D02*
X53057009Y-17761904D01*
X53057009Y-17761904D02*
X53104628Y-17857142D01*
X53104628Y-17857142D02*
X53104628Y-18238094D01*
X53009390Y-17095237D02*
X52961771Y-17190475D01*
X52961771Y-17190475D02*
X52914152Y-17238094D01*
X52914152Y-17238094D02*
X52818914Y-17285713D01*
X52818914Y-17285713D02*
X52771295Y-17285713D01*
X52771295Y-17285713D02*
X52676057Y-17238094D01*
X52676057Y-17238094D02*
X52628438Y-17190475D01*
X52628438Y-17190475D02*
X52580819Y-17095237D01*
X52580819Y-17095237D02*
X52580819Y-16904761D01*
X52580819Y-16904761D02*
X52628438Y-16809523D01*
X52628438Y-16809523D02*
X52676057Y-16761904D01*
X52676057Y-16761904D02*
X52771295Y-16714285D01*
X52771295Y-16714285D02*
X52818914Y-16714285D01*
X52818914Y-16714285D02*
X52914152Y-16761904D01*
X52914152Y-16761904D02*
X52961771Y-16809523D01*
X52961771Y-16809523D02*
X53009390Y-16904761D01*
X53009390Y-16904761D02*
X53009390Y-17095237D01*
X53009390Y-17095237D02*
X53057009Y-17190475D01*
X53057009Y-17190475D02*
X53104628Y-17238094D01*
X53104628Y-17238094D02*
X53199866Y-17285713D01*
X53199866Y-17285713D02*
X53390342Y-17285713D01*
X53390342Y-17285713D02*
X53485580Y-17238094D01*
X53485580Y-17238094D02*
X53533200Y-17190475D01*
X53533200Y-17190475D02*
X53580819Y-17095237D01*
X53580819Y-17095237D02*
X53580819Y-16904761D01*
X53580819Y-16904761D02*
X53533200Y-16809523D01*
X53533200Y-16809523D02*
X53485580Y-16761904D01*
X53485580Y-16761904D02*
X53390342Y-16714285D01*
X53390342Y-16714285D02*
X53199866Y-16714285D01*
X53199866Y-16714285D02*
X53104628Y-16761904D01*
X53104628Y-16761904D02*
X53057009Y-16809523D01*
X53057009Y-16809523D02*
X53009390Y-16904761D01*
D12*
%TO.C,R4*%
X44176000Y-5385000D02*
X44946000Y-5385000D01*
X44946000Y-4015000D02*
X44946000Y-6755000D01*
X44946000Y-6755000D02*
X51486000Y-6755000D01*
X51486000Y-4015000D02*
X44946000Y-4015000D01*
X51486000Y-6755000D02*
X51486000Y-4015000D01*
X52256000Y-5385000D02*
X51486000Y-5385000D01*
%TO.C,U1*%
X29350000Y-3995000D02*
X29350000Y-22015000D01*
X29350000Y-22015000D02*
X39630000Y-22015000D01*
X31840000Y-4055000D02*
X31840000Y-21955000D01*
X31840000Y-21955000D02*
X33490000Y-21955000D01*
X35490000Y-21955000D02*
X37140000Y-21955000D01*
X37140000Y-4055000D02*
X31840000Y-4055000D01*
X37140000Y-21955000D02*
X37140000Y-4055000D01*
X39630000Y-3995000D02*
X29350000Y-3995000D01*
X39630000Y-22015000D02*
X39630000Y-3995000D01*
X33490000Y-21955000D02*
G75*
G02*
X35490000Y-21955000I1000000J0D01*
G01*
%TO.C,R6*%
X41766000Y-14230000D02*
X41766000Y-20770000D01*
X41766000Y-20770000D02*
X44506000Y-20770000D01*
X43136000Y-13460000D02*
X43136000Y-14230000D01*
X43136000Y-21540000D02*
X43136000Y-20770000D01*
X44506000Y-14230000D02*
X41766000Y-14230000D01*
X44506000Y-20770000D02*
X44506000Y-14230000D01*
D13*
%TO.C,J2*%
X40329200Y-24673000D02*
X40329200Y-34274200D01*
X40329200Y-34274200D02*
X57372600Y-34274200D01*
X57372600Y-24673000D02*
X40329200Y-24673000D01*
X57372600Y-34274200D02*
X57372600Y-24673000D01*
D14*
X38932200Y-26000000D02*
G75*
G02*
X38170200Y-26000000I-381000J0D01*
G01*
X38170200Y-26000000D02*
G75*
G02*
X38932200Y-26000000I381000J0D01*
G01*
D12*
%TO.C,R9*%
X13064000Y-14230000D02*
X13064000Y-20770000D01*
X13064000Y-20770000D02*
X15804000Y-20770000D01*
X14434000Y-13460000D02*
X14434000Y-14230000D01*
X14434000Y-21540000D02*
X14434000Y-20770000D01*
X15804000Y-14230000D02*
X13064000Y-14230000D01*
X15804000Y-20770000D02*
X15804000Y-14230000D01*
%TO.C,R5*%
X44176000Y-9195000D02*
X44946000Y-9195000D01*
X44946000Y-7825000D02*
X44946000Y-10565000D01*
X44946000Y-10565000D02*
X51486000Y-10565000D01*
X51486000Y-7825000D02*
X44946000Y-7825000D01*
X51486000Y-10565000D02*
X51486000Y-7825000D01*
X52256000Y-9195000D02*
X51486000Y-9195000D01*
%TO.C,C1*%
X30880000Y-25620000D02*
X30880000Y-23380000D01*
X38120000Y-23380000D02*
X30880000Y-23380000D01*
X38120000Y-25620000D02*
X30880000Y-25620000D01*
X38120000Y-25620000D02*
X38120000Y-23380000D01*
%TO.C,R1*%
X20684000Y-14230000D02*
X20684000Y-20770000D01*
X20684000Y-20770000D02*
X23424000Y-20770000D01*
X22054000Y-13460000D02*
X22054000Y-14230000D01*
X22054000Y-21540000D02*
X22054000Y-20770000D01*
X23424000Y-14230000D02*
X20684000Y-14230000D01*
X23424000Y-20770000D02*
X23424000Y-14230000D01*
%TO.C,R3*%
X15474000Y-5385000D02*
X16244000Y-5385000D01*
X16244000Y-4015000D02*
X16244000Y-6755000D01*
X16244000Y-6755000D02*
X22784000Y-6755000D01*
X22784000Y-4015000D02*
X16244000Y-4015000D01*
X22784000Y-6755000D02*
X22784000Y-4015000D01*
X23554000Y-5385000D02*
X22784000Y-5385000D01*
%TO.C,R2*%
X24494000Y-14230000D02*
X24494000Y-20770000D01*
X24494000Y-20770000D02*
X27234000Y-20770000D01*
X25864000Y-13460000D02*
X25864000Y-14230000D01*
X25864000Y-21540000D02*
X25864000Y-20770000D01*
X27234000Y-14230000D02*
X24494000Y-14230000D01*
X27234000Y-20770000D02*
X27234000Y-14230000D01*
%TO.C,R10*%
X16874000Y-14230000D02*
X16874000Y-20770000D01*
X16874000Y-20770000D02*
X19614000Y-20770000D01*
X18244000Y-13460000D02*
X18244000Y-14230000D01*
X18244000Y-21540000D02*
X18244000Y-20770000D01*
X19614000Y-14230000D02*
X16874000Y-14230000D01*
X19614000Y-20770000D02*
X19614000Y-14230000D01*
D13*
%TO.C,J1*%
X11627200Y-24673000D02*
X11627200Y-34274200D01*
X11627200Y-34274200D02*
X28670600Y-34274200D01*
X28670600Y-24673000D02*
X11627200Y-24673000D01*
X28670600Y-34274200D02*
X28670600Y-24673000D01*
D14*
X10230200Y-26000000D02*
G75*
G02*
X9468200Y-26000000I-381000J0D01*
G01*
X9468200Y-26000000D02*
G75*
G02*
X10230200Y-26000000I381000J0D01*
G01*
D12*
%TO.C,R7*%
X45576000Y-14230000D02*
X45576000Y-20770000D01*
X45576000Y-20770000D02*
X48316000Y-20770000D01*
X46946000Y-13460000D02*
X46946000Y-14230000D01*
X46946000Y-21540000D02*
X46946000Y-20770000D01*
X48316000Y-14230000D02*
X45576000Y-14230000D01*
X48316000Y-20770000D02*
X48316000Y-14230000D01*
%TO.C,R8*%
X49386000Y-14230000D02*
X49386000Y-20770000D01*
X49386000Y-20770000D02*
X52126000Y-20770000D01*
X50756000Y-13460000D02*
X50756000Y-14230000D01*
X50756000Y-21540000D02*
X50756000Y-20770000D01*
X52126000Y-14230000D02*
X49386000Y-14230000D01*
X52126000Y-20770000D02*
X52126000Y-14230000D01*
%TD*%
M02*
