M48
; DRILL file {KiCad 8.0.1} date 2024-04-06T13:56:02+0100
; FORMAT={-:-/ absolute / inch / decimal}
; #@! TF.CreationDate,2024-04-06T13:56:02+01:00
; #@! TF.GenerationSoftware,Kicad,Pcbnew,8.0.1
; #@! TF.FileFunction,MixedPlating,1,2
FMAT,2
INCH
; #@! TA.AperFunction,Plated,PTH,ComponentDrill
T1C0.0315
; #@! TA.AperFunction,Plated,PTH,ComponentDrill
T2C0.0470
; #@! TA.AperFunction,Plated,PTH,ViaDrill
T3C0.0984
%
G90
G05
T1
X0.5683Y-0.212
X0.5683Y-0.489
X0.5683Y-0.889
X0.7183Y-0.489
X0.7183Y-0.889
X0.8683Y-0.489
X0.8683Y-0.889
X0.9683Y-0.212
X1.0183Y-0.489
X1.0183Y-0.889
X1.2079Y-0.212
X1.2079Y-0.312
X1.2079Y-0.412
X1.2079Y-0.512
X1.2079Y-0.612
X1.2079Y-0.712
X1.2079Y-0.812
X1.2598Y-0.9646
X1.4567Y-0.9646
X1.5079Y-0.212
X1.5079Y-0.312
X1.5079Y-0.412
X1.5079Y-0.512
X1.5079Y-0.612
X1.5079Y-0.712
X1.5079Y-0.812
X1.6983Y-0.212
X1.6983Y-0.362
X1.6983Y-0.489
X1.6983Y-0.889
X1.8483Y-0.489
X1.8483Y-0.889
X1.9983Y-0.489
X1.9983Y-0.889
X2.0983Y-0.212
X2.0983Y-0.362
T2
X0.5683Y-1.0236
X0.7183Y-1.0236
X0.8683Y-1.0236
X1.0183Y-1.0236
X1.6983Y-1.0236
X1.8483Y-1.0236
X1.9983Y-1.0236
X2.1483Y-1.0236
T3
X0.2165Y-0.2165
X0.2165Y-1.122
X2.5Y-0.2165
X2.5Y-1.122
M30
