%TF.GenerationSoftware,KiCad,Pcbnew,8.0.1*%
%TF.CreationDate,2024-04-06T13:55:48+01:00*%
%TF.ProjectId,RemoteStartInterface,52656d6f-7465-4537-9461-7274496e7465,rev?*%
%TF.SameCoordinates,Original*%
%TF.FileFunction,Copper,L1,Top*%
%TF.FilePolarity,Positive*%
%FSLAX46Y46*%
G04 Gerber Fmt 4.6, Leading zero omitted, Abs format (unit mm)*
G04 Created by KiCad (PCBNEW 8.0.1) date 2024-04-06 13:55:48*
%MOMM*%
%LPD*%
G01*
G04 APERTURE LIST*
%TA.AperFunction,ComponentPad*%
%ADD10C,1.600000*%
%TD*%
%TA.AperFunction,ComponentPad*%
%ADD11O,1.600000X1.600000*%
%TD*%
%TA.AperFunction,ComponentPad*%
%ADD12R,1.600000X1.600000*%
%TD*%
%TA.AperFunction,ComponentPad*%
%ADD13C,1.701800*%
%TD*%
%TA.AperFunction,ViaPad*%
%ADD14C,4.000000*%
%TD*%
%TA.AperFunction,Conductor*%
%ADD15C,1.000000*%
%TD*%
G04 APERTURE END LIST*
D10*
%TO.P,R4,1*%
%TO.N,Net-(U1B-+)*%
X43136000Y-5385000D03*
D11*
%TO.P,R4,2*%
%TO.N,Net-(U1A-+)*%
X53296000Y-5385000D03*
%TD*%
D12*
%TO.P,U1,1*%
%TO.N,Net-(J2-Pad2)*%
X38300000Y-20625000D03*
D11*
%TO.P,U1,2*%
%TO.N,Net-(J2-Pad3)*%
X38300000Y-18085000D03*
%TO.P,U1,3,V+*%
%TO.N,+5VD*%
X38300000Y-15545000D03*
%TO.P,U1,4,-*%
%TO.N,Net-(U1A--)*%
X38300000Y-13005000D03*
%TO.P,U1,5,+*%
%TO.N,Net-(U1A-+)*%
X38300000Y-10465000D03*
%TO.P,U1,6,-*%
%TO.N,Net-(U1A--)*%
X38300000Y-7925000D03*
%TO.P,U1,7,+*%
%TO.N,Net-(U1B-+)*%
X38300000Y-5385000D03*
%TO.P,U1,8,-*%
%TO.N,Net-(U1A--)*%
X30680000Y-5385000D03*
%TO.P,U1,9,+*%
%TO.N,Net-(U1D-+)*%
X30680000Y-7925000D03*
%TO.P,U1,10,-*%
%TO.N,Net-(U1C--)*%
X30680000Y-10465000D03*
%TO.P,U1,11,+*%
%TO.N,GND*%
X30680000Y-13005000D03*
%TO.P,U1,12,V-*%
X30680000Y-15545000D03*
%TO.P,U1,13*%
%TO.N,Net-(U1C--)*%
X30680000Y-18085000D03*
%TO.P,U1,14*%
%TO.N,Net-(J2-Pad1)*%
X30680000Y-20625000D03*
%TD*%
D10*
%TO.P,R6,1*%
%TO.N,+5VD*%
X43136000Y-12420000D03*
D11*
%TO.P,R6,2*%
%TO.N,Net-(J2-Pad1)*%
X43136000Y-22580000D03*
%TD*%
D13*
%TO.P,J2,1,1*%
%TO.N,Net-(J2-Pad1)*%
X43135900Y-26000000D03*
%TO.P,J2,2,2*%
%TO.N,Net-(J2-Pad2)*%
X46945900Y-26000000D03*
%TO.P,J2,3,3*%
%TO.N,Net-(J2-Pad3)*%
X50755900Y-26000000D03*
%TO.P,J2,4,4*%
%TO.N,GND*%
X54565900Y-26000000D03*
%TD*%
D10*
%TO.P,R9,1*%
%TO.N,+5VD*%
X14434000Y-22580000D03*
D11*
%TO.P,R9,2*%
%TO.N,Net-(U1D-+)*%
X14434000Y-12420000D03*
%TD*%
D10*
%TO.P,R5,1*%
%TO.N,Net-(U1A-+)*%
X43136000Y-9195000D03*
D11*
%TO.P,R5,2*%
%TO.N,GND*%
X53296000Y-9195000D03*
%TD*%
D10*
%TO.P,C1,1*%
%TO.N,+5VD*%
X37000000Y-24500000D03*
%TO.P,C1,2*%
%TO.N,GND*%
X32000000Y-24500000D03*
%TD*%
%TO.P,R1,1*%
%TO.N,Net-(J1-Pad3)*%
X22054000Y-22580000D03*
D11*
%TO.P,R1,2*%
%TO.N,Net-(U1A--)*%
X22054000Y-12420000D03*
%TD*%
D10*
%TO.P,R3,1*%
%TO.N,Net-(U1D-+)*%
X14434000Y-5385000D03*
D11*
%TO.P,R3,2*%
%TO.N,Net-(U1B-+)*%
X24594000Y-5385000D03*
%TD*%
D10*
%TO.P,R2,1*%
%TO.N,Net-(U1A--)*%
X25864000Y-12420000D03*
D11*
%TO.P,R2,2*%
%TO.N,GND*%
X25864000Y-22580000D03*
%TD*%
D10*
%TO.P,R10,1*%
%TO.N,Net-(U1D-+)*%
X18244000Y-12420000D03*
D11*
%TO.P,R10,2*%
%TO.N,GND*%
X18244000Y-22580000D03*
%TD*%
D13*
%TO.P,J1,1,1*%
%TO.N,+5VD*%
X14433900Y-26000000D03*
%TO.P,J1,2,2*%
%TO.N,GND*%
X18243900Y-26000000D03*
%TO.P,J1,3,3*%
%TO.N,Net-(J1-Pad3)*%
X22053900Y-26000000D03*
%TO.P,J1,4,4*%
%TO.N,GND*%
X25863900Y-26000000D03*
%TD*%
D10*
%TO.P,R7,1*%
%TO.N,+5VD*%
X46946000Y-12420000D03*
D11*
%TO.P,R7,2*%
%TO.N,Net-(J2-Pad2)*%
X46946000Y-22580000D03*
%TD*%
D10*
%TO.P,R8,1*%
%TO.N,+5VD*%
X50756000Y-12420000D03*
D11*
%TO.P,R8,2*%
%TO.N,Net-(J2-Pad3)*%
X50756000Y-22580000D03*
%TD*%
D14*
%TO.N,*%
X63500000Y-5500000D03*
X63500000Y-28500000D03*
X5500000Y-28500000D03*
X5500000Y-5500000D03*
%TD*%
D15*
%TO.N,+5VD*%
X14433900Y-22580100D02*
X14434000Y-22580000D01*
X14433900Y-26000000D02*
X14433900Y-22580100D01*
%TO.N,GND*%
X53015000Y-27550900D02*
X54565900Y-26000000D01*
X18244000Y-25999900D02*
X18243900Y-26000000D01*
X18244000Y-22580000D02*
X18244000Y-25999900D01*
X25864000Y-25999900D02*
X25863900Y-26000000D01*
X25864000Y-22580000D02*
X25864000Y-25999900D01*
X35050900Y-27550900D02*
X53015000Y-27550900D01*
X32000000Y-24500000D02*
X35050900Y-27550900D01*
%TO.N,Net-(U1A--)*%
X34500000Y-7500000D02*
X35000000Y-8000000D01*
X35000000Y-8000000D02*
X35000000Y-12000000D01*
X36005000Y-13005000D02*
X38300000Y-13005000D01*
X27392000Y-8673000D02*
X27392000Y-10892000D01*
X34925000Y-7925000D02*
X34500000Y-7500000D01*
X32385000Y-5385000D02*
X34500000Y-7500000D01*
X38300000Y-7925000D02*
X34925000Y-7925000D01*
X22054000Y-12420000D02*
X25864000Y-12420000D01*
X30680000Y-5385000D02*
X27392000Y-8673000D01*
X30680000Y-5385000D02*
X32385000Y-5385000D01*
X27392000Y-10892000D02*
X25864000Y-12420000D01*
X35000000Y-12000000D02*
X36005000Y-13005000D01*
%TO.N,Net-(J1-Pad3)*%
X22053900Y-26000000D02*
X22053900Y-22580100D01*
X22053900Y-22580100D02*
X22054000Y-22580000D01*
%TO.N,Net-(U1A-+)*%
X45805000Y-9195000D02*
X49615000Y-5385000D01*
X43136000Y-9195000D02*
X45805000Y-9195000D01*
X49615000Y-5385000D02*
X53296000Y-5385000D01*
X38300000Y-10465000D02*
X41866000Y-10465000D01*
X41866000Y-10465000D02*
X43136000Y-9195000D01*
%TO.N,Net-(U1B-+)*%
X24594000Y-5385000D02*
X26094000Y-3885000D01*
X26094000Y-3885000D02*
X36800000Y-3885000D01*
X36800000Y-3885000D02*
X38300000Y-5385000D01*
X38300000Y-5385000D02*
X43136000Y-5385000D01*
%TO.N,Net-(J2-Pad1)*%
X43136000Y-25999900D02*
X43135900Y-26000000D01*
X43136000Y-22580000D02*
X43136000Y-25999900D01*
X30680000Y-20625000D02*
X32635000Y-22580000D01*
X32635000Y-22580000D02*
X43136000Y-22580000D01*
%TO.N,Net-(J2-Pad2)*%
X38300000Y-20625000D02*
X44991000Y-20625000D01*
X44991000Y-20625000D02*
X46946000Y-22580000D01*
X46946000Y-22580000D02*
X46946000Y-25999900D01*
X46946000Y-25999900D02*
X46945900Y-26000000D01*
%TO.N,Net-(J2-Pad3)*%
X50756000Y-25999900D02*
X50755900Y-26000000D01*
X38300000Y-18085000D02*
X46261000Y-18085000D01*
X50756000Y-22580000D02*
X50756000Y-25999900D01*
X46261000Y-18085000D02*
X50756000Y-22580000D01*
%TO.N,Net-(U1D-+)*%
X19824000Y-14000000D02*
X18244000Y-12420000D01*
X30680000Y-7925000D02*
X29180000Y-9425000D01*
X29180000Y-9425000D02*
X29180000Y-11320000D01*
X14434000Y-12420000D02*
X18244000Y-12420000D01*
X14434000Y-12420000D02*
X14434000Y-5385000D01*
X29180000Y-11320000D02*
X26500000Y-14000000D01*
X26500000Y-14000000D02*
X19824000Y-14000000D01*
%TO.N,Net-(U1C--)*%
X32500000Y-16265000D02*
X30680000Y-18085000D01*
X32500000Y-12285000D02*
X32500000Y-16265000D01*
X30680000Y-10465000D02*
X32500000Y-12285000D01*
%TD*%
%TA.AperFunction,Conductor*%
%TO.N,GND*%
G36*
X30930000Y-15229314D02*
G01*
X30925606Y-15224920D01*
X30834394Y-15172259D01*
X30732661Y-15145000D01*
X30627339Y-15145000D01*
X30525606Y-15172259D01*
X30434394Y-15224920D01*
X30430000Y-15229314D01*
X30430000Y-13320686D01*
X30434394Y-13325080D01*
X30525606Y-13377741D01*
X30627339Y-13405000D01*
X30732661Y-13405000D01*
X30834394Y-13377741D01*
X30925606Y-13325080D01*
X30930000Y-13320686D01*
X30930000Y-15229314D01*
G37*
%TD.AperFunction*%
%TA.AperFunction,Conductor*%
G36*
X68442539Y-520185D02*
G01*
X68488294Y-572989D01*
X68499500Y-624500D01*
X68499500Y-33375500D01*
X68479815Y-33442539D01*
X68427011Y-33488294D01*
X68375500Y-33499500D01*
X624500Y-33499500D01*
X557461Y-33479815D01*
X511706Y-33427011D01*
X500500Y-33375500D01*
X500500Y-28500005D01*
X2994556Y-28500005D01*
X3014310Y-28814004D01*
X3014311Y-28814011D01*
X3073270Y-29123083D01*
X3170497Y-29422316D01*
X3170499Y-29422321D01*
X3304461Y-29707003D01*
X3304464Y-29707009D01*
X3473051Y-29972661D01*
X3473054Y-29972665D01*
X3673606Y-30215090D01*
X3673608Y-30215092D01*
X3902968Y-30430476D01*
X3902978Y-30430484D01*
X4157504Y-30615408D01*
X4157509Y-30615410D01*
X4157516Y-30615416D01*
X4433234Y-30766994D01*
X4433239Y-30766996D01*
X4433241Y-30766997D01*
X4433242Y-30766998D01*
X4725771Y-30882818D01*
X4725774Y-30882819D01*
X5030523Y-30961065D01*
X5030527Y-30961066D01*
X5096010Y-30969338D01*
X5342670Y-31000499D01*
X5342679Y-31000499D01*
X5342682Y-31000500D01*
X5342684Y-31000500D01*
X5657316Y-31000500D01*
X5657318Y-31000500D01*
X5657321Y-31000499D01*
X5657329Y-31000499D01*
X5843593Y-30976968D01*
X5969473Y-30961066D01*
X6274225Y-30882819D01*
X6274228Y-30882818D01*
X6566757Y-30766998D01*
X6566758Y-30766997D01*
X6566756Y-30766997D01*
X6566766Y-30766994D01*
X6842484Y-30615416D01*
X7097030Y-30430478D01*
X7326390Y-30215094D01*
X7526947Y-29972663D01*
X7695537Y-29707007D01*
X7829503Y-29422315D01*
X7926731Y-29123079D01*
X7985688Y-28814015D01*
X8005444Y-28500005D01*
X60994556Y-28500005D01*
X61014310Y-28814004D01*
X61014311Y-28814011D01*
X61073270Y-29123083D01*
X61170497Y-29422316D01*
X61170499Y-29422321D01*
X61304461Y-29707003D01*
X61304464Y-29707009D01*
X61473051Y-29972661D01*
X61473054Y-29972665D01*
X61673606Y-30215090D01*
X61673608Y-30215092D01*
X61902968Y-30430476D01*
X61902978Y-30430484D01*
X62157504Y-30615408D01*
X62157509Y-30615410D01*
X62157516Y-30615416D01*
X62433234Y-30766994D01*
X62433239Y-30766996D01*
X62433241Y-30766997D01*
X62433242Y-30766998D01*
X62725771Y-30882818D01*
X62725774Y-30882819D01*
X63030523Y-30961065D01*
X63030527Y-30961066D01*
X63096010Y-30969338D01*
X63342670Y-31000499D01*
X63342679Y-31000499D01*
X63342682Y-31000500D01*
X63342684Y-31000500D01*
X63657316Y-31000500D01*
X63657318Y-31000500D01*
X63657321Y-31000499D01*
X63657329Y-31000499D01*
X63843593Y-30976968D01*
X63969473Y-30961066D01*
X64274225Y-30882819D01*
X64274228Y-30882818D01*
X64566757Y-30766998D01*
X64566758Y-30766997D01*
X64566756Y-30766997D01*
X64566766Y-30766994D01*
X64842484Y-30615416D01*
X65097030Y-30430478D01*
X65326390Y-30215094D01*
X65526947Y-29972663D01*
X65695537Y-29707007D01*
X65829503Y-29422315D01*
X65926731Y-29123079D01*
X65985688Y-28814015D01*
X66005444Y-28500000D01*
X65985688Y-28185985D01*
X65926731Y-27876921D01*
X65829503Y-27577685D01*
X65695537Y-27292993D01*
X65526947Y-27027337D01*
X65526945Y-27027334D01*
X65326393Y-26784909D01*
X65326391Y-26784907D01*
X65126185Y-26596900D01*
X65097030Y-26569522D01*
X65097027Y-26569520D01*
X65097021Y-26569515D01*
X64842495Y-26384591D01*
X64842488Y-26384586D01*
X64842484Y-26384584D01*
X64566766Y-26233006D01*
X64566763Y-26233004D01*
X64566758Y-26233002D01*
X64566757Y-26233001D01*
X64274228Y-26117181D01*
X64274225Y-26117180D01*
X63969476Y-26038934D01*
X63969463Y-26038932D01*
X63657329Y-25999500D01*
X63657318Y-25999500D01*
X63342682Y-25999500D01*
X63342670Y-25999500D01*
X63030536Y-26038932D01*
X63030523Y-26038934D01*
X62725774Y-26117180D01*
X62725771Y-26117181D01*
X62433242Y-26233001D01*
X62433241Y-26233002D01*
X62157516Y-26384584D01*
X62157504Y-26384591D01*
X61902978Y-26569515D01*
X61902968Y-26569523D01*
X61673608Y-26784907D01*
X61673606Y-26784909D01*
X61473054Y-27027334D01*
X61473051Y-27027338D01*
X61304464Y-27292990D01*
X61304461Y-27292996D01*
X61170499Y-27577678D01*
X61170497Y-27577683D01*
X61073270Y-27876916D01*
X61014311Y-28185988D01*
X61014310Y-28185995D01*
X60994556Y-28499994D01*
X60994556Y-28500005D01*
X8005444Y-28500005D01*
X8005444Y-28500000D01*
X7985688Y-28185985D01*
X7926731Y-27876921D01*
X7829503Y-27577685D01*
X7695537Y-27292993D01*
X7526947Y-27027337D01*
X7526945Y-27027334D01*
X7326393Y-26784909D01*
X7326391Y-26784907D01*
X7126185Y-26596900D01*
X7097030Y-26569522D01*
X7097027Y-26569520D01*
X7097021Y-26569515D01*
X6842495Y-26384591D01*
X6842488Y-26384586D01*
X6842484Y-26384584D01*
X6566766Y-26233006D01*
X6566763Y-26233004D01*
X6566758Y-26233002D01*
X6566757Y-26233001D01*
X6274228Y-26117181D01*
X6274225Y-26117180D01*
X5969476Y-26038934D01*
X5969463Y-26038932D01*
X5661326Y-26000005D01*
X13077868Y-26000005D01*
X13096361Y-26223187D01*
X13096363Y-26223199D01*
X13151341Y-26440301D01*
X13241305Y-26645401D01*
X13363798Y-26832889D01*
X13363806Y-26832900D01*
X13515481Y-26997661D01*
X13515491Y-26997670D01*
X13691683Y-27134806D01*
X13692221Y-27135225D01*
X13692223Y-27135226D01*
X13692226Y-27135228D01*
X13806731Y-27197194D01*
X13889188Y-27241818D01*
X14086383Y-27309515D01*
X14099592Y-27314050D01*
X14101014Y-27314538D01*
X14321920Y-27351400D01*
X14545880Y-27351400D01*
X14766786Y-27314538D01*
X14978612Y-27241818D01*
X15175579Y-27135225D01*
X15352315Y-26997665D01*
X15504000Y-26832892D01*
X15626495Y-26645400D01*
X15716458Y-26440303D01*
X15771437Y-26223196D01*
X15780222Y-26117180D01*
X15789932Y-26000005D01*
X16888370Y-26000005D01*
X16906857Y-26223109D01*
X16961816Y-26440140D01*
X17051744Y-26645155D01*
X17051746Y-26645159D01*
X17128185Y-26762159D01*
X17681817Y-26208527D01*
X17687677Y-26230395D01*
X17766261Y-26366505D01*
X17877395Y-26477639D01*
X18013505Y-26556223D01*
X18035370Y-26562081D01*
X17480088Y-27117363D01*
X17480089Y-27117364D01*
X17502492Y-27134802D01*
X17502499Y-27134806D01*
X17699383Y-27241354D01*
X17699397Y-27241360D01*
X17911133Y-27314050D01*
X18131962Y-27350900D01*
X18355838Y-27350900D01*
X18576666Y-27314050D01*
X18788402Y-27241360D01*
X18788411Y-27241357D01*
X18985306Y-27134802D01*
X18985309Y-27134800D01*
X19007710Y-27117364D01*
X19007710Y-27117363D01*
X18452429Y-26562081D01*
X18474295Y-26556223D01*
X18610405Y-26477639D01*
X18721539Y-26366505D01*
X18800123Y-26230395D01*
X18805981Y-26208528D01*
X19359614Y-26762160D01*
X19436053Y-26645160D01*
X19525983Y-26440140D01*
X19580942Y-26223109D01*
X19599430Y-26000005D01*
X20697868Y-26000005D01*
X20716361Y-26223187D01*
X20716363Y-26223199D01*
X20771341Y-26440301D01*
X20861305Y-26645401D01*
X20983798Y-26832889D01*
X20983806Y-26832900D01*
X21135481Y-26997661D01*
X21135491Y-26997670D01*
X21311683Y-27134806D01*
X21312221Y-27135225D01*
X21312223Y-27135226D01*
X21312226Y-27135228D01*
X21426731Y-27197194D01*
X21509188Y-27241818D01*
X21706383Y-27309515D01*
X21719592Y-27314050D01*
X21721014Y-27314538D01*
X21941920Y-27351400D01*
X22165880Y-27351400D01*
X22386786Y-27314538D01*
X22598612Y-27241818D01*
X22795579Y-27135225D01*
X22972315Y-26997665D01*
X23124000Y-26832892D01*
X23246495Y-26645400D01*
X23336458Y-26440303D01*
X23391437Y-26223196D01*
X23400222Y-26117180D01*
X23409932Y-26000005D01*
X24508370Y-26000005D01*
X24526857Y-26223109D01*
X24581816Y-26440140D01*
X24671744Y-26645155D01*
X24671746Y-26645159D01*
X24748185Y-26762159D01*
X25301817Y-26208527D01*
X25307677Y-26230395D01*
X25386261Y-26366505D01*
X25497395Y-26477639D01*
X25633505Y-26556223D01*
X25655370Y-26562081D01*
X25100088Y-27117363D01*
X25100089Y-27117364D01*
X25122492Y-27134802D01*
X25122499Y-27134806D01*
X25319383Y-27241354D01*
X25319397Y-27241360D01*
X25531133Y-27314050D01*
X25751962Y-27350900D01*
X25975838Y-27350900D01*
X26196666Y-27314050D01*
X26408402Y-27241360D01*
X26408411Y-27241357D01*
X26605306Y-27134802D01*
X26605309Y-27134800D01*
X26627710Y-27117364D01*
X26627710Y-27117363D01*
X26072429Y-26562081D01*
X26094295Y-26556223D01*
X26230405Y-26477639D01*
X26341539Y-26366505D01*
X26420123Y-26230395D01*
X26425981Y-26208528D01*
X26979614Y-26762160D01*
X27056053Y-26645160D01*
X27145983Y-26440140D01*
X27200942Y-26223109D01*
X27219430Y-26000005D01*
X27219430Y-25999994D01*
X27200942Y-25776890D01*
X27145983Y-25559859D01*
X27056053Y-25354839D01*
X26979613Y-25237839D01*
X26425981Y-25791470D01*
X26420123Y-25769605D01*
X26341539Y-25633495D01*
X26230405Y-25522361D01*
X26094295Y-25443777D01*
X26072428Y-25437918D01*
X26627710Y-24882636D01*
X26627709Y-24882634D01*
X26605307Y-24865198D01*
X26605301Y-24865193D01*
X26408416Y-24758645D01*
X26408402Y-24758639D01*
X26196666Y-24685949D01*
X25975838Y-24649100D01*
X25751962Y-24649100D01*
X25531133Y-24685949D01*
X25319397Y-24758639D01*
X25319383Y-24758645D01*
X25122499Y-24865193D01*
X25122497Y-24865194D01*
X25100089Y-24882635D01*
X25655371Y-25437917D01*
X25633505Y-25443777D01*
X25497395Y-25522361D01*
X25386261Y-25633495D01*
X25307677Y-25769605D01*
X25301817Y-25791471D01*
X24748185Y-25237839D01*
X24671745Y-25354842D01*
X24671744Y-25354844D01*
X24581816Y-25559859D01*
X24526857Y-25776890D01*
X24508370Y-25999994D01*
X24508370Y-26000005D01*
X23409932Y-26000005D01*
X23409932Y-25999994D01*
X23391438Y-25776812D01*
X23391436Y-25776800D01*
X23378640Y-25726269D01*
X23336458Y-25559697D01*
X23246495Y-25354600D01*
X23124000Y-25167108D01*
X23087269Y-25127207D01*
X23087169Y-25127098D01*
X23056248Y-25064443D01*
X23054400Y-25043116D01*
X23054400Y-23457730D01*
X23074085Y-23390691D01*
X23076798Y-23386644D01*
X23184568Y-23232734D01*
X23280739Y-23026496D01*
X23339635Y-22806692D01*
X23359468Y-22580000D01*
X23339635Y-22353308D01*
X23333389Y-22329999D01*
X24585127Y-22329999D01*
X24585128Y-22330000D01*
X25548314Y-22330000D01*
X25543920Y-22334394D01*
X25491259Y-22425606D01*
X25464000Y-22527339D01*
X25464000Y-22632661D01*
X25491259Y-22734394D01*
X25543920Y-22825606D01*
X25548314Y-22830000D01*
X24585128Y-22830000D01*
X24637730Y-23026317D01*
X24637734Y-23026326D01*
X24733865Y-23232482D01*
X24864342Y-23418820D01*
X25025179Y-23579657D01*
X25211517Y-23710134D01*
X25417673Y-23806265D01*
X25417682Y-23806269D01*
X25613999Y-23858872D01*
X25614000Y-23858871D01*
X25614000Y-22895686D01*
X25618394Y-22900080D01*
X25709606Y-22952741D01*
X25811339Y-22980000D01*
X25916661Y-22980000D01*
X26018394Y-22952741D01*
X26109606Y-22900080D01*
X26114000Y-22895686D01*
X26114000Y-23858872D01*
X26310317Y-23806269D01*
X26310326Y-23806265D01*
X26516482Y-23710134D01*
X26702820Y-23579657D01*
X26863657Y-23418820D01*
X26994134Y-23232482D01*
X27090265Y-23026326D01*
X27090269Y-23026317D01*
X27142872Y-22830000D01*
X26179686Y-22830000D01*
X26184080Y-22825606D01*
X26236741Y-22734394D01*
X26264000Y-22632661D01*
X26264000Y-22527339D01*
X26236741Y-22425606D01*
X26184080Y-22334394D01*
X26179686Y-22330000D01*
X27142872Y-22330000D01*
X27142872Y-22329999D01*
X27090269Y-22133682D01*
X27090265Y-22133673D01*
X26994134Y-21927517D01*
X26863657Y-21741179D01*
X26702820Y-21580342D01*
X26516482Y-21449865D01*
X26310328Y-21353734D01*
X26114000Y-21301127D01*
X26114000Y-22264314D01*
X26109606Y-22259920D01*
X26018394Y-22207259D01*
X25916661Y-22180000D01*
X25811339Y-22180000D01*
X25709606Y-22207259D01*
X25618394Y-22259920D01*
X25614000Y-22264314D01*
X25614000Y-21301127D01*
X25417671Y-21353734D01*
X25211517Y-21449865D01*
X25025179Y-21580342D01*
X24864342Y-21741179D01*
X24733865Y-21927517D01*
X24637734Y-22133673D01*
X24637730Y-22133682D01*
X24585127Y-22329999D01*
X23333389Y-22329999D01*
X23280739Y-22133504D01*
X23184568Y-21927266D01*
X23054047Y-21740861D01*
X23054045Y-21740858D01*
X22893141Y-21579954D01*
X22706734Y-21449432D01*
X22706732Y-21449431D01*
X22500497Y-21353261D01*
X22500488Y-21353258D01*
X22280697Y-21294366D01*
X22280693Y-21294365D01*
X22280692Y-21294365D01*
X22280691Y-21294364D01*
X22280686Y-21294364D01*
X22054002Y-21274532D01*
X22053998Y-21274532D01*
X21827313Y-21294364D01*
X21827302Y-21294366D01*
X21607511Y-21353258D01*
X21607502Y-21353261D01*
X21401267Y-21449431D01*
X21401265Y-21449432D01*
X21214858Y-21579954D01*
X21053954Y-21740858D01*
X20923432Y-21927265D01*
X20923431Y-21927267D01*
X20827261Y-22133502D01*
X20827258Y-22133511D01*
X20768366Y-22353302D01*
X20768364Y-22353313D01*
X20748532Y-22579998D01*
X20748532Y-22580001D01*
X20768364Y-22806686D01*
X20768366Y-22806697D01*
X20827258Y-23026488D01*
X20827261Y-23026497D01*
X20897337Y-23176773D01*
X20923432Y-23232734D01*
X21010541Y-23357140D01*
X21030975Y-23386322D01*
X21053302Y-23452528D01*
X21053400Y-23457445D01*
X21053400Y-25043116D01*
X21033715Y-25110155D01*
X21020631Y-25127098D01*
X20983801Y-25167106D01*
X20983798Y-25167110D01*
X20861305Y-25354598D01*
X20771341Y-25559698D01*
X20716363Y-25776800D01*
X20716361Y-25776812D01*
X20697868Y-25999994D01*
X20697868Y-26000005D01*
X19599430Y-26000005D01*
X19599430Y-25999994D01*
X19580942Y-25776890D01*
X19525983Y-25559859D01*
X19436053Y-25354839D01*
X19359613Y-25237839D01*
X18805981Y-25791470D01*
X18800123Y-25769605D01*
X18721539Y-25633495D01*
X18610405Y-25522361D01*
X18474295Y-25443777D01*
X18452428Y-25437918D01*
X19007710Y-24882636D01*
X19007709Y-24882634D01*
X18985307Y-24865198D01*
X18985301Y-24865193D01*
X18788416Y-24758645D01*
X18788402Y-24758639D01*
X18576666Y-24685949D01*
X18355838Y-24649100D01*
X18131962Y-24649100D01*
X17911133Y-24685949D01*
X17699397Y-24758639D01*
X17699383Y-24758645D01*
X17502499Y-24865193D01*
X17502497Y-24865194D01*
X17480089Y-24882635D01*
X18035371Y-25437917D01*
X18013505Y-25443777D01*
X17877395Y-25522361D01*
X17766261Y-25633495D01*
X17687677Y-25769605D01*
X17681817Y-25791471D01*
X17128185Y-25237839D01*
X17051745Y-25354842D01*
X17051744Y-25354844D01*
X16961816Y-25559859D01*
X16906857Y-25776890D01*
X16888370Y-25999994D01*
X16888370Y-26000005D01*
X15789932Y-26000005D01*
X15789932Y-25999994D01*
X15771438Y-25776812D01*
X15771436Y-25776800D01*
X15758640Y-25726269D01*
X15716458Y-25559697D01*
X15626495Y-25354600D01*
X15504000Y-25167108D01*
X15467269Y-25127207D01*
X15467169Y-25127098D01*
X15436248Y-25064443D01*
X15434400Y-25043116D01*
X15434400Y-23457730D01*
X15454085Y-23390691D01*
X15456798Y-23386644D01*
X15564568Y-23232734D01*
X15660739Y-23026496D01*
X15719635Y-22806692D01*
X15739468Y-22580000D01*
X15719635Y-22353308D01*
X15713389Y-22329999D01*
X16965127Y-22329999D01*
X16965128Y-22330000D01*
X17928314Y-22330000D01*
X17923920Y-22334394D01*
X17871259Y-22425606D01*
X17844000Y-22527339D01*
X17844000Y-22632661D01*
X17871259Y-22734394D01*
X17923920Y-22825606D01*
X17928314Y-22830000D01*
X16965128Y-22830000D01*
X17017730Y-23026317D01*
X17017734Y-23026326D01*
X17113865Y-23232482D01*
X17244342Y-23418820D01*
X17405179Y-23579657D01*
X17591517Y-23710134D01*
X17797673Y-23806265D01*
X17797682Y-23806269D01*
X17993999Y-23858872D01*
X17994000Y-23858871D01*
X17994000Y-22895686D01*
X17998394Y-22900080D01*
X18089606Y-22952741D01*
X18191339Y-22980000D01*
X18296661Y-22980000D01*
X18398394Y-22952741D01*
X18489606Y-22900080D01*
X18494000Y-22895686D01*
X18494000Y-23858872D01*
X18690317Y-23806269D01*
X18690326Y-23806265D01*
X18896482Y-23710134D01*
X19082820Y-23579657D01*
X19243657Y-23418820D01*
X19374134Y-23232482D01*
X19470265Y-23026326D01*
X19470269Y-23026317D01*
X19522872Y-22830000D01*
X18559686Y-22830000D01*
X18564080Y-22825606D01*
X18616741Y-22734394D01*
X18644000Y-22632661D01*
X18644000Y-22527339D01*
X18616741Y-22425606D01*
X18564080Y-22334394D01*
X18559686Y-22330000D01*
X19522872Y-22330000D01*
X19522872Y-22329999D01*
X19470269Y-22133682D01*
X19470265Y-22133673D01*
X19374134Y-21927517D01*
X19243657Y-21741179D01*
X19082820Y-21580342D01*
X18896482Y-21449865D01*
X18690328Y-21353734D01*
X18494000Y-21301127D01*
X18494000Y-22264314D01*
X18489606Y-22259920D01*
X18398394Y-22207259D01*
X18296661Y-22180000D01*
X18191339Y-22180000D01*
X18089606Y-22207259D01*
X17998394Y-22259920D01*
X17994000Y-22264314D01*
X17994000Y-21301127D01*
X17797671Y-21353734D01*
X17591517Y-21449865D01*
X17405179Y-21580342D01*
X17244342Y-21741179D01*
X17113865Y-21927517D01*
X17017734Y-22133673D01*
X17017730Y-22133682D01*
X16965127Y-22329999D01*
X15713389Y-22329999D01*
X15660739Y-22133504D01*
X15564568Y-21927266D01*
X15434047Y-21740861D01*
X15434045Y-21740858D01*
X15273141Y-21579954D01*
X15086734Y-21449432D01*
X15086732Y-21449431D01*
X14880497Y-21353261D01*
X14880488Y-21353258D01*
X14660697Y-21294366D01*
X14660693Y-21294365D01*
X14660692Y-21294365D01*
X14660691Y-21294364D01*
X14660686Y-21294364D01*
X14434002Y-21274532D01*
X14433998Y-21274532D01*
X14207313Y-21294364D01*
X14207302Y-21294366D01*
X13987511Y-21353258D01*
X13987502Y-21353261D01*
X13781267Y-21449431D01*
X13781265Y-21449432D01*
X13594858Y-21579954D01*
X13433954Y-21740858D01*
X13303432Y-21927265D01*
X13303431Y-21927267D01*
X13207261Y-22133502D01*
X13207258Y-22133511D01*
X13148366Y-22353302D01*
X13148364Y-22353313D01*
X13128532Y-22579998D01*
X13128532Y-22580001D01*
X13148364Y-22806686D01*
X13148366Y-22806697D01*
X13207258Y-23026488D01*
X13207261Y-23026497D01*
X13277337Y-23176773D01*
X13303432Y-23232734D01*
X13390541Y-23357140D01*
X13410975Y-23386322D01*
X13433302Y-23452528D01*
X13433400Y-23457445D01*
X13433400Y-25043116D01*
X13413715Y-25110155D01*
X13400631Y-25127098D01*
X13363801Y-25167106D01*
X13363798Y-25167110D01*
X13241305Y-25354598D01*
X13151341Y-25559698D01*
X13096363Y-25776800D01*
X13096361Y-25776812D01*
X13077868Y-25999994D01*
X13077868Y-26000005D01*
X5661326Y-26000005D01*
X5657329Y-25999500D01*
X5657318Y-25999500D01*
X5342682Y-25999500D01*
X5342670Y-25999500D01*
X5030536Y-26038932D01*
X5030523Y-26038934D01*
X4725774Y-26117180D01*
X4725771Y-26117181D01*
X4433242Y-26233001D01*
X4433241Y-26233002D01*
X4157516Y-26384584D01*
X4157504Y-26384591D01*
X3902978Y-26569515D01*
X3902968Y-26569523D01*
X3673608Y-26784907D01*
X3673606Y-26784909D01*
X3473054Y-27027334D01*
X3473051Y-27027338D01*
X3304464Y-27292990D01*
X3304461Y-27292996D01*
X3170499Y-27577678D01*
X3170497Y-27577683D01*
X3073270Y-27876916D01*
X3014311Y-28185988D01*
X3014310Y-28185995D01*
X2994556Y-28499994D01*
X2994556Y-28500005D01*
X500500Y-28500005D01*
X500500Y-12420001D01*
X13128532Y-12420001D01*
X13148364Y-12646686D01*
X13148366Y-12646697D01*
X13207258Y-12866488D01*
X13207261Y-12866497D01*
X13303431Y-13072732D01*
X13303432Y-13072734D01*
X13433954Y-13259141D01*
X13594858Y-13420045D01*
X13594861Y-13420047D01*
X13781266Y-13550568D01*
X13987504Y-13646739D01*
X14207308Y-13705635D01*
X14369230Y-13719801D01*
X14433998Y-13725468D01*
X14434000Y-13725468D01*
X14434002Y-13725468D01*
X14490673Y-13720509D01*
X14660692Y-13705635D01*
X14880496Y-13646739D01*
X15086734Y-13550568D01*
X15240465Y-13442924D01*
X15306671Y-13420598D01*
X15311588Y-13420500D01*
X17366412Y-13420500D01*
X17433451Y-13440185D01*
X17437523Y-13442917D01*
X17591266Y-13550568D01*
X17797504Y-13646739D01*
X18017308Y-13705635D01*
X18079093Y-13711040D01*
X18144161Y-13736492D01*
X18155966Y-13746887D01*
X19046860Y-14637781D01*
X19046861Y-14637782D01*
X19186218Y-14777139D01*
X19350086Y-14886632D01*
X19456745Y-14930811D01*
X19532164Y-14962051D01*
X19725454Y-15000499D01*
X19725457Y-15000500D01*
X19725459Y-15000500D01*
X26598543Y-15000500D01*
X26697528Y-14980810D01*
X26747022Y-14970965D01*
X26791836Y-14962051D01*
X26845165Y-14939961D01*
X26973914Y-14886632D01*
X27137782Y-14777139D01*
X27277139Y-14637782D01*
X27277139Y-14637780D01*
X27287347Y-14627573D01*
X27287348Y-14627570D01*
X29196423Y-12718497D01*
X29257743Y-12685014D01*
X29327435Y-12689998D01*
X29382477Y-12730693D01*
X29401129Y-12755000D01*
X30364314Y-12755000D01*
X30359920Y-12759394D01*
X30307259Y-12850606D01*
X30280000Y-12952339D01*
X30280000Y-13057661D01*
X30307259Y-13159394D01*
X30359920Y-13250606D01*
X30364314Y-13255000D01*
X29401128Y-13255000D01*
X29453730Y-13451317D01*
X29453734Y-13451326D01*
X29549865Y-13657482D01*
X29680342Y-13843820D01*
X29841179Y-14004657D01*
X30027517Y-14135134D01*
X30086457Y-14162618D01*
X30138896Y-14208790D01*
X30158048Y-14275984D01*
X30137832Y-14342865D01*
X30086457Y-14387382D01*
X30027517Y-14414865D01*
X29841179Y-14545342D01*
X29680342Y-14706179D01*
X29549865Y-14892517D01*
X29453734Y-15098673D01*
X29453730Y-15098682D01*
X29401127Y-15294999D01*
X29401128Y-15295000D01*
X30364314Y-15295000D01*
X30359920Y-15299394D01*
X30307259Y-15390606D01*
X30280000Y-15492339D01*
X30280000Y-15597661D01*
X30307259Y-15699394D01*
X30359920Y-15790606D01*
X30364314Y-15795000D01*
X29401128Y-15795000D01*
X29453730Y-15991317D01*
X29453734Y-15991326D01*
X29549865Y-16197482D01*
X29680342Y-16383820D01*
X29841179Y-16544657D01*
X30027518Y-16675134D01*
X30027520Y-16675135D01*
X30085865Y-16702342D01*
X30138305Y-16748514D01*
X30157457Y-16815707D01*
X30137242Y-16882589D01*
X30085867Y-16927105D01*
X30027268Y-16954431D01*
X30027264Y-16954433D01*
X29840858Y-17084954D01*
X29679954Y-17245858D01*
X29549432Y-17432265D01*
X29549431Y-17432267D01*
X29453261Y-17638502D01*
X29453258Y-17638511D01*
X29394366Y-17858302D01*
X29394364Y-17858313D01*
X29374532Y-18084998D01*
X29374532Y-18085001D01*
X29394364Y-18311686D01*
X29394366Y-18311697D01*
X29453258Y-18531488D01*
X29453261Y-18531497D01*
X29549431Y-18737732D01*
X29549432Y-18737734D01*
X29679954Y-18924141D01*
X29840858Y-19085045D01*
X29869621Y-19105185D01*
X30027266Y-19215568D01*
X30085275Y-19242618D01*
X30137714Y-19288791D01*
X30156866Y-19355984D01*
X30136650Y-19422865D01*
X30085275Y-19467381D01*
X30085118Y-19467455D01*
X30027267Y-19494431D01*
X30027265Y-19494432D01*
X29840858Y-19624954D01*
X29679954Y-19785858D01*
X29549432Y-19972265D01*
X29549431Y-19972267D01*
X29453261Y-20178502D01*
X29453258Y-20178511D01*
X29394366Y-20398302D01*
X29394364Y-20398313D01*
X29374532Y-20624998D01*
X29374532Y-20625001D01*
X29394364Y-20851686D01*
X29394366Y-20851697D01*
X29453258Y-21071488D01*
X29453261Y-21071497D01*
X29549431Y-21277732D01*
X29549432Y-21277734D01*
X29679954Y-21464141D01*
X29840858Y-21625045D01*
X29840861Y-21625047D01*
X30027266Y-21755568D01*
X30233504Y-21851739D01*
X30453308Y-21910635D01*
X30515093Y-21916040D01*
X30580161Y-21941492D01*
X30591966Y-21951887D01*
X31685837Y-23045758D01*
X31719322Y-23107081D01*
X31714338Y-23176773D01*
X31672466Y-23232706D01*
X31630250Y-23253214D01*
X31553680Y-23273731D01*
X31553673Y-23273734D01*
X31347516Y-23369866D01*
X31347512Y-23369868D01*
X31274526Y-23420973D01*
X31274526Y-23420974D01*
X31953553Y-24100000D01*
X31947339Y-24100000D01*
X31845606Y-24127259D01*
X31754394Y-24179920D01*
X31679920Y-24254394D01*
X31627259Y-24345606D01*
X31600000Y-24447339D01*
X31600000Y-24453552D01*
X30920974Y-23774526D01*
X30920973Y-23774526D01*
X30869868Y-23847512D01*
X30869866Y-23847516D01*
X30773734Y-24053673D01*
X30773730Y-24053682D01*
X30714860Y-24273389D01*
X30714858Y-24273400D01*
X30695034Y-24499997D01*
X30695034Y-24500002D01*
X30714858Y-24726599D01*
X30714860Y-24726610D01*
X30773730Y-24946317D01*
X30773735Y-24946331D01*
X30869863Y-25152478D01*
X30920974Y-25225472D01*
X31600000Y-24546446D01*
X31600000Y-24552661D01*
X31627259Y-24654394D01*
X31679920Y-24745606D01*
X31754394Y-24820080D01*
X31845606Y-24872741D01*
X31947339Y-24900000D01*
X31953553Y-24900000D01*
X31274526Y-25579025D01*
X31347513Y-25630132D01*
X31347521Y-25630136D01*
X31553668Y-25726264D01*
X31553682Y-25726269D01*
X31773389Y-25785139D01*
X31773400Y-25785141D01*
X31999998Y-25804966D01*
X32000002Y-25804966D01*
X32226599Y-25785141D01*
X32226610Y-25785139D01*
X32446317Y-25726269D01*
X32446331Y-25726264D01*
X32652478Y-25630136D01*
X32725471Y-25579024D01*
X32046447Y-24900000D01*
X32052661Y-24900000D01*
X32154394Y-24872741D01*
X32245606Y-24820080D01*
X32320080Y-24745606D01*
X32372741Y-24654394D01*
X32400000Y-24552661D01*
X32400000Y-24546447D01*
X33079024Y-25225471D01*
X33130136Y-25152478D01*
X33226264Y-24946331D01*
X33226269Y-24946317D01*
X33285139Y-24726610D01*
X33285141Y-24726599D01*
X33304966Y-24500002D01*
X33304966Y-24499997D01*
X33285141Y-24273400D01*
X33285139Y-24273389D01*
X33226269Y-24053682D01*
X33226265Y-24053673D01*
X33130134Y-23847517D01*
X33079793Y-23775624D01*
X33057466Y-23709418D01*
X33074476Y-23641651D01*
X33125424Y-23593837D01*
X33181368Y-23580500D01*
X35818022Y-23580500D01*
X35885061Y-23600185D01*
X35930816Y-23652989D01*
X35940760Y-23722147D01*
X35919597Y-23775623D01*
X35869432Y-23847265D01*
X35869431Y-23847267D01*
X35773261Y-24053502D01*
X35773258Y-24053511D01*
X35714366Y-24273302D01*
X35714364Y-24273313D01*
X35694532Y-24499998D01*
X35694532Y-24500001D01*
X35714364Y-24726686D01*
X35714366Y-24726697D01*
X35773258Y-24946488D01*
X35773261Y-24946497D01*
X35869431Y-25152732D01*
X35869432Y-25152734D01*
X35999954Y-25339141D01*
X36160858Y-25500045D01*
X36160861Y-25500047D01*
X36347266Y-25630568D01*
X36553504Y-25726739D01*
X36773308Y-25785635D01*
X36935230Y-25799801D01*
X36999998Y-25805468D01*
X37000000Y-25805468D01*
X37000002Y-25805468D01*
X37056673Y-25800509D01*
X37226692Y-25785635D01*
X37446496Y-25726739D01*
X37652734Y-25630568D01*
X37839139Y-25500047D01*
X38000047Y-25339139D01*
X38130568Y-25152734D01*
X38226739Y-24946496D01*
X38285635Y-24726692D01*
X38305468Y-24500000D01*
X38285635Y-24273308D01*
X38226739Y-24053504D01*
X38130568Y-23847266D01*
X38080402Y-23775621D01*
X38058076Y-23709417D01*
X38075086Y-23641650D01*
X38126034Y-23593837D01*
X38181978Y-23580500D01*
X42011500Y-23580500D01*
X42078539Y-23600185D01*
X42124294Y-23652989D01*
X42135500Y-23704500D01*
X42135500Y-25043008D01*
X42115815Y-25110047D01*
X42102730Y-25126990D01*
X42065802Y-25167104D01*
X41943303Y-25354603D01*
X41853341Y-25559698D01*
X41798363Y-25776800D01*
X41798361Y-25776812D01*
X41779868Y-25999994D01*
X41779868Y-26000005D01*
X41798361Y-26223187D01*
X41798363Y-26223199D01*
X41853341Y-26440301D01*
X41943305Y-26645401D01*
X42065798Y-26832889D01*
X42065806Y-26832900D01*
X42217481Y-26997661D01*
X42217491Y-26997670D01*
X42393683Y-27134806D01*
X42394221Y-27135225D01*
X42394223Y-27135226D01*
X42394226Y-27135228D01*
X42508731Y-27197194D01*
X42591188Y-27241818D01*
X42788383Y-27309515D01*
X42801592Y-27314050D01*
X42803014Y-27314538D01*
X43023920Y-27351400D01*
X43247880Y-27351400D01*
X43468786Y-27314538D01*
X43680612Y-27241818D01*
X43877579Y-27135225D01*
X44054315Y-26997665D01*
X44206000Y-26832892D01*
X44328495Y-26645400D01*
X44418458Y-26440303D01*
X44473437Y-26223196D01*
X44482222Y-26117180D01*
X44491932Y-26000005D01*
X44491932Y-25999994D01*
X44473438Y-25776812D01*
X44473436Y-25776800D01*
X44460640Y-25726269D01*
X44418458Y-25559697D01*
X44328495Y-25354600D01*
X44206000Y-25167108D01*
X44192532Y-25152478D01*
X44169269Y-25127207D01*
X44138348Y-25064552D01*
X44136500Y-25043225D01*
X44136500Y-23457588D01*
X44156185Y-23390549D01*
X44158925Y-23386465D01*
X44159025Y-23386322D01*
X44266568Y-23232734D01*
X44362739Y-23026496D01*
X44421635Y-22806692D01*
X44441468Y-22580000D01*
X44421635Y-22353308D01*
X44362739Y-22133504D01*
X44266568Y-21927266D01*
X44191896Y-21820622D01*
X44169569Y-21754416D01*
X44186581Y-21686649D01*
X44237529Y-21638837D01*
X44293472Y-21625500D01*
X44525218Y-21625500D01*
X44592257Y-21645185D01*
X44612899Y-21661819D01*
X45619111Y-22668032D01*
X45652596Y-22729355D01*
X45654958Y-22744903D01*
X45660364Y-22806688D01*
X45660366Y-22806697D01*
X45719258Y-23026488D01*
X45719261Y-23026497D01*
X45789337Y-23176773D01*
X45815432Y-23232734D01*
X45911453Y-23369868D01*
X45923075Y-23386465D01*
X45945402Y-23452671D01*
X45945500Y-23457588D01*
X45945500Y-25043008D01*
X45925815Y-25110047D01*
X45912730Y-25126990D01*
X45875802Y-25167104D01*
X45753303Y-25354603D01*
X45663341Y-25559698D01*
X45608363Y-25776800D01*
X45608361Y-25776812D01*
X45589868Y-25999994D01*
X45589868Y-26000005D01*
X45608361Y-26223187D01*
X45608363Y-26223199D01*
X45663341Y-26440301D01*
X45753305Y-26645401D01*
X45875798Y-26832889D01*
X45875806Y-26832900D01*
X46027481Y-26997661D01*
X46027491Y-26997670D01*
X46203683Y-27134806D01*
X46204221Y-27135225D01*
X46204223Y-27135226D01*
X46204226Y-27135228D01*
X46318731Y-27197194D01*
X46401188Y-27241818D01*
X46598383Y-27309515D01*
X46611592Y-27314050D01*
X46613014Y-27314538D01*
X46833920Y-27351400D01*
X47057880Y-27351400D01*
X47278786Y-27314538D01*
X47490612Y-27241818D01*
X47687579Y-27135225D01*
X47864315Y-26997665D01*
X48016000Y-26832892D01*
X48138495Y-26645400D01*
X48228458Y-26440303D01*
X48283437Y-26223196D01*
X48292222Y-26117180D01*
X48301932Y-26000005D01*
X48301932Y-25999994D01*
X48283438Y-25776812D01*
X48283436Y-25776800D01*
X48270640Y-25726269D01*
X48228458Y-25559697D01*
X48138495Y-25354600D01*
X48016000Y-25167108D01*
X48002532Y-25152478D01*
X47979269Y-25127207D01*
X47948348Y-25064552D01*
X47946500Y-25043225D01*
X47946500Y-23457588D01*
X47966185Y-23390549D01*
X47968925Y-23386465D01*
X47969025Y-23386322D01*
X48076568Y-23232734D01*
X48172739Y-23026496D01*
X48231635Y-22806692D01*
X48251468Y-22580000D01*
X48231635Y-22353308D01*
X48172739Y-22133504D01*
X48076568Y-21927266D01*
X47946047Y-21740861D01*
X47946045Y-21740858D01*
X47785141Y-21579954D01*
X47598734Y-21449432D01*
X47598732Y-21449431D01*
X47392497Y-21353261D01*
X47392488Y-21353258D01*
X47172697Y-21294366D01*
X47172688Y-21294364D01*
X47110903Y-21288958D01*
X47045835Y-21263504D01*
X47034032Y-21253111D01*
X45775209Y-19994289D01*
X45775206Y-19994285D01*
X45775206Y-19994286D01*
X45768139Y-19987219D01*
X45768139Y-19987218D01*
X45628782Y-19847861D01*
X45628781Y-19847860D01*
X45628780Y-19847859D01*
X45464920Y-19738371D01*
X45464911Y-19738366D01*
X45392315Y-19708296D01*
X45336165Y-19685038D01*
X45282836Y-19662949D01*
X45282832Y-19662948D01*
X45282828Y-19662946D01*
X45186188Y-19643724D01*
X45089544Y-19624500D01*
X45089541Y-19624500D01*
X39637180Y-19624500D01*
X39570141Y-19604815D01*
X39537913Y-19574811D01*
X39457546Y-19467454D01*
X39397983Y-19422865D01*
X39342335Y-19381206D01*
X39342328Y-19381202D01*
X39207488Y-19330910D01*
X39204387Y-19330178D01*
X39202228Y-19328949D01*
X39200215Y-19328198D01*
X39200336Y-19327871D01*
X39143670Y-19295606D01*
X39111283Y-19233696D01*
X39117507Y-19164104D01*
X39160368Y-19108925D01*
X39226257Y-19085678D01*
X39232899Y-19085500D01*
X45795218Y-19085500D01*
X45862257Y-19105185D01*
X45882899Y-19121819D01*
X49429111Y-22668031D01*
X49462596Y-22729354D01*
X49464958Y-22744902D01*
X49470364Y-22806688D01*
X49470366Y-22806697D01*
X49529258Y-23026488D01*
X49529261Y-23026497D01*
X49599337Y-23176773D01*
X49625432Y-23232734D01*
X49721453Y-23369868D01*
X49733075Y-23386465D01*
X49755402Y-23452671D01*
X49755500Y-23457588D01*
X49755500Y-25043008D01*
X49735815Y-25110047D01*
X49722730Y-25126990D01*
X49685802Y-25167104D01*
X49563303Y-25354603D01*
X49473341Y-25559698D01*
X49418363Y-25776800D01*
X49418361Y-25776812D01*
X49399868Y-25999994D01*
X49399868Y-26000005D01*
X49418361Y-26223187D01*
X49418363Y-26223199D01*
X49473341Y-26440301D01*
X49563305Y-26645401D01*
X49685798Y-26832889D01*
X49685806Y-26832900D01*
X49837481Y-26997661D01*
X49837491Y-26997670D01*
X50013683Y-27134806D01*
X50014221Y-27135225D01*
X50014223Y-27135226D01*
X50014226Y-27135228D01*
X50128731Y-27197194D01*
X50211188Y-27241818D01*
X50408383Y-27309515D01*
X50421592Y-27314050D01*
X50423014Y-27314538D01*
X50643920Y-27351400D01*
X50867880Y-27351400D01*
X51088786Y-27314538D01*
X51300612Y-27241818D01*
X51497579Y-27135225D01*
X51674315Y-26997665D01*
X51826000Y-26832892D01*
X51948495Y-26645400D01*
X52038458Y-26440303D01*
X52093437Y-26223196D01*
X52102222Y-26117180D01*
X52111932Y-26000005D01*
X53210370Y-26000005D01*
X53228857Y-26223109D01*
X53283816Y-26440140D01*
X53373744Y-26645155D01*
X53373746Y-26645159D01*
X53450185Y-26762159D01*
X54003817Y-26208527D01*
X54009677Y-26230395D01*
X54088261Y-26366505D01*
X54199395Y-26477639D01*
X54335505Y-26556223D01*
X54357370Y-26562081D01*
X53802088Y-27117363D01*
X53802089Y-27117364D01*
X53824492Y-27134802D01*
X53824499Y-27134806D01*
X54021383Y-27241354D01*
X54021397Y-27241360D01*
X54233133Y-27314050D01*
X54453962Y-27350900D01*
X54677838Y-27350900D01*
X54898666Y-27314050D01*
X55110402Y-27241360D01*
X55110411Y-27241357D01*
X55307306Y-27134802D01*
X55307309Y-27134800D01*
X55329710Y-27117364D01*
X55329710Y-27117363D01*
X54774429Y-26562081D01*
X54796295Y-26556223D01*
X54932405Y-26477639D01*
X55043539Y-26366505D01*
X55122123Y-26230395D01*
X55127981Y-26208529D01*
X55681614Y-26762160D01*
X55758053Y-26645160D01*
X55847983Y-26440140D01*
X55902942Y-26223109D01*
X55921430Y-26000005D01*
X55921430Y-25999994D01*
X55902942Y-25776890D01*
X55847983Y-25559859D01*
X55758053Y-25354839D01*
X55681613Y-25237839D01*
X55127981Y-25791470D01*
X55122123Y-25769605D01*
X55043539Y-25633495D01*
X54932405Y-25522361D01*
X54796295Y-25443777D01*
X54774428Y-25437918D01*
X55329710Y-24882636D01*
X55329709Y-24882634D01*
X55307307Y-24865198D01*
X55307301Y-24865193D01*
X55110416Y-24758645D01*
X55110402Y-24758639D01*
X54898666Y-24685949D01*
X54677838Y-24649100D01*
X54453962Y-24649100D01*
X54233133Y-24685949D01*
X54021397Y-24758639D01*
X54021383Y-24758645D01*
X53824499Y-24865193D01*
X53824497Y-24865194D01*
X53802089Y-24882635D01*
X54357371Y-25437917D01*
X54335505Y-25443777D01*
X54199395Y-25522361D01*
X54088261Y-25633495D01*
X54009677Y-25769605D01*
X54003817Y-25791471D01*
X53450185Y-25237839D01*
X53373745Y-25354842D01*
X53373744Y-25354844D01*
X53283816Y-25559859D01*
X53228857Y-25776890D01*
X53210370Y-25999994D01*
X53210370Y-26000005D01*
X52111932Y-26000005D01*
X52111932Y-25999994D01*
X52093438Y-25776812D01*
X52093436Y-25776800D01*
X52080640Y-25726269D01*
X52038458Y-25559697D01*
X51948495Y-25354600D01*
X51826000Y-25167108D01*
X51812532Y-25152478D01*
X51789269Y-25127207D01*
X51758348Y-25064552D01*
X51756500Y-25043225D01*
X51756500Y-23457588D01*
X51776185Y-23390549D01*
X51778925Y-23386465D01*
X51779025Y-23386322D01*
X51886568Y-23232734D01*
X51982739Y-23026496D01*
X52041635Y-22806692D01*
X52061468Y-22580000D01*
X52041635Y-22353308D01*
X51982739Y-22133504D01*
X51886568Y-21927266D01*
X51756047Y-21740861D01*
X51756045Y-21740858D01*
X51595141Y-21579954D01*
X51408734Y-21449432D01*
X51408732Y-21449431D01*
X51202497Y-21353261D01*
X51202488Y-21353258D01*
X50982697Y-21294366D01*
X50982688Y-21294364D01*
X50920902Y-21288958D01*
X50855834Y-21263504D01*
X50844031Y-21253111D01*
X47042479Y-17451559D01*
X47042459Y-17451537D01*
X46898785Y-17307863D01*
X46898781Y-17307860D01*
X46734920Y-17198371D01*
X46734911Y-17198366D01*
X46662315Y-17168296D01*
X46606165Y-17145038D01*
X46552836Y-17122949D01*
X46552832Y-17122948D01*
X46552828Y-17122946D01*
X46456188Y-17103724D01*
X46359544Y-17084500D01*
X46359541Y-17084500D01*
X39177588Y-17084500D01*
X39110549Y-17064815D01*
X39106465Y-17062075D01*
X38952734Y-16954432D01*
X38952728Y-16954429D01*
X38894725Y-16927382D01*
X38842285Y-16881210D01*
X38823133Y-16814017D01*
X38843348Y-16747135D01*
X38894725Y-16702618D01*
X38895317Y-16702342D01*
X38952734Y-16675568D01*
X39139139Y-16545047D01*
X39300047Y-16384139D01*
X39430568Y-16197734D01*
X39526739Y-15991496D01*
X39585635Y-15771692D01*
X39605468Y-15545000D01*
X39585635Y-15318308D01*
X39526739Y-15098504D01*
X39430568Y-14892266D01*
X39300047Y-14705861D01*
X39300045Y-14705858D01*
X39139141Y-14544954D01*
X38952734Y-14414432D01*
X38952728Y-14414429D01*
X38894725Y-14387382D01*
X38842285Y-14341210D01*
X38823133Y-14274017D01*
X38843348Y-14207135D01*
X38894725Y-14162618D01*
X38952734Y-14135568D01*
X39139139Y-14005047D01*
X39300047Y-13844139D01*
X39430568Y-13657734D01*
X39526739Y-13451496D01*
X39585635Y-13231692D01*
X39605468Y-13005000D01*
X39585635Y-12778308D01*
X39526739Y-12558504D01*
X39430568Y-12352266D01*
X39300047Y-12165861D01*
X39300045Y-12165858D01*
X39139141Y-12004954D01*
X38952734Y-11874432D01*
X38952728Y-11874429D01*
X38894725Y-11847382D01*
X38842285Y-11801210D01*
X38823133Y-11734017D01*
X38843348Y-11667135D01*
X38894725Y-11622618D01*
X38952734Y-11595568D01*
X39106465Y-11487924D01*
X39172671Y-11465598D01*
X39177588Y-11465500D01*
X41964533Y-11465500D01*
X41964540Y-11465500D01*
X41964541Y-11465500D01*
X41964548Y-11465498D01*
X41966947Y-11465262D01*
X41968203Y-11465500D01*
X41970633Y-11465500D01*
X41970633Y-11465960D01*
X42035595Y-11478275D01*
X42086309Y-11526335D01*
X42102990Y-11594184D01*
X42080689Y-11659786D01*
X42005431Y-11767267D01*
X41909261Y-11973502D01*
X41909258Y-11973511D01*
X41850366Y-12193302D01*
X41850364Y-12193313D01*
X41830532Y-12419998D01*
X41830532Y-12420001D01*
X41850364Y-12646686D01*
X41850366Y-12646697D01*
X41909258Y-12866488D01*
X41909261Y-12866497D01*
X42005431Y-13072732D01*
X42005432Y-13072734D01*
X42135954Y-13259141D01*
X42296858Y-13420045D01*
X42296861Y-13420047D01*
X42483266Y-13550568D01*
X42689504Y-13646739D01*
X42909308Y-13705635D01*
X43071230Y-13719801D01*
X43135998Y-13725468D01*
X43136000Y-13725468D01*
X43136002Y-13725468D01*
X43192673Y-13720509D01*
X43362692Y-13705635D01*
X43582496Y-13646739D01*
X43788734Y-13550568D01*
X43975139Y-13420047D01*
X44136047Y-13259139D01*
X44266568Y-13072734D01*
X44362739Y-12866496D01*
X44421635Y-12646692D01*
X44441468Y-12420001D01*
X45640532Y-12420001D01*
X45660364Y-12646686D01*
X45660366Y-12646697D01*
X45719258Y-12866488D01*
X45719261Y-12866497D01*
X45815431Y-13072732D01*
X45815432Y-13072734D01*
X45945954Y-13259141D01*
X46106858Y-13420045D01*
X46106861Y-13420047D01*
X46293266Y-13550568D01*
X46499504Y-13646739D01*
X46719308Y-13705635D01*
X46881230Y-13719801D01*
X46945998Y-13725468D01*
X46946000Y-13725468D01*
X46946002Y-13725468D01*
X47002673Y-13720509D01*
X47172692Y-13705635D01*
X47392496Y-13646739D01*
X47598734Y-13550568D01*
X47785139Y-13420047D01*
X47946047Y-13259139D01*
X48076568Y-13072734D01*
X48172739Y-12866496D01*
X48231635Y-12646692D01*
X48251468Y-12420001D01*
X49450532Y-12420001D01*
X49470364Y-12646686D01*
X49470366Y-12646697D01*
X49529258Y-12866488D01*
X49529261Y-12866497D01*
X49625431Y-13072732D01*
X49625432Y-13072734D01*
X49755954Y-13259141D01*
X49916858Y-13420045D01*
X49916861Y-13420047D01*
X50103266Y-13550568D01*
X50309504Y-13646739D01*
X50529308Y-13705635D01*
X50691230Y-13719801D01*
X50755998Y-13725468D01*
X50756000Y-13725468D01*
X50756002Y-13725468D01*
X50812673Y-13720509D01*
X50982692Y-13705635D01*
X51202496Y-13646739D01*
X51408734Y-13550568D01*
X51595139Y-13420047D01*
X51756047Y-13259139D01*
X51886568Y-13072734D01*
X51982739Y-12866496D01*
X52041635Y-12646692D01*
X52061468Y-12420000D01*
X52041635Y-12193308D01*
X51982739Y-11973504D01*
X51886568Y-11767266D01*
X51756047Y-11580861D01*
X51756045Y-11580858D01*
X51595141Y-11419954D01*
X51408734Y-11289432D01*
X51408732Y-11289431D01*
X51202497Y-11193261D01*
X51202488Y-11193258D01*
X50982697Y-11134366D01*
X50982693Y-11134365D01*
X50982692Y-11134365D01*
X50982691Y-11134364D01*
X50982686Y-11134364D01*
X50756002Y-11114532D01*
X50755998Y-11114532D01*
X50529313Y-11134364D01*
X50529302Y-11134366D01*
X50309511Y-11193258D01*
X50309502Y-11193261D01*
X50103267Y-11289431D01*
X50103265Y-11289432D01*
X49916858Y-11419954D01*
X49755954Y-11580858D01*
X49625432Y-11767265D01*
X49625431Y-11767267D01*
X49529261Y-11973502D01*
X49529258Y-11973511D01*
X49470366Y-12193302D01*
X49470364Y-12193313D01*
X49450532Y-12419998D01*
X49450532Y-12420001D01*
X48251468Y-12420001D01*
X48251468Y-12420000D01*
X48231635Y-12193308D01*
X48172739Y-11973504D01*
X48076568Y-11767266D01*
X47946047Y-11580861D01*
X47946045Y-11580858D01*
X47785141Y-11419954D01*
X47598734Y-11289432D01*
X47598732Y-11289431D01*
X47392497Y-11193261D01*
X47392488Y-11193258D01*
X47172697Y-11134366D01*
X47172693Y-11134365D01*
X47172692Y-11134365D01*
X47172691Y-11134364D01*
X47172686Y-11134364D01*
X46946002Y-11114532D01*
X46945998Y-11114532D01*
X46719313Y-11134364D01*
X46719302Y-11134366D01*
X46499511Y-11193258D01*
X46499502Y-11193261D01*
X46293267Y-11289431D01*
X46293265Y-11289432D01*
X46106858Y-11419954D01*
X45945954Y-11580858D01*
X45815432Y-11767265D01*
X45815431Y-11767267D01*
X45719261Y-11973502D01*
X45719258Y-11973511D01*
X45660366Y-12193302D01*
X45660364Y-12193313D01*
X45640532Y-12419998D01*
X45640532Y-12420001D01*
X44441468Y-12420001D01*
X44441468Y-12420000D01*
X44421635Y-12193308D01*
X44362739Y-11973504D01*
X44266568Y-11767266D01*
X44136047Y-11580861D01*
X44136045Y-11580858D01*
X43975141Y-11419954D01*
X43788734Y-11289432D01*
X43788732Y-11289431D01*
X43582497Y-11193261D01*
X43582488Y-11193258D01*
X43362697Y-11134366D01*
X43362693Y-11134365D01*
X43362692Y-11134365D01*
X43362691Y-11134364D01*
X43362686Y-11134364D01*
X43136002Y-11114532D01*
X43135998Y-11114532D01*
X42922395Y-11133220D01*
X42853895Y-11119453D01*
X42803712Y-11070838D01*
X42787779Y-11002810D01*
X42811154Y-10936966D01*
X42823901Y-10922017D01*
X43224033Y-10521885D01*
X43285354Y-10488402D01*
X43300898Y-10486041D01*
X43362692Y-10480635D01*
X43582496Y-10421739D01*
X43788734Y-10325568D01*
X43942465Y-10217924D01*
X44008671Y-10195598D01*
X44013588Y-10195500D01*
X45903542Y-10195500D01*
X45922870Y-10191655D01*
X46000188Y-10176275D01*
X46096836Y-10157051D01*
X46198691Y-10114861D01*
X46278914Y-10081632D01*
X46442782Y-9972139D01*
X46582139Y-9832782D01*
X46582139Y-9832780D01*
X46592347Y-9822573D01*
X46592348Y-9822570D01*
X47469920Y-8944999D01*
X52017127Y-8944999D01*
X52017128Y-8945000D01*
X52980314Y-8945000D01*
X52975920Y-8949394D01*
X52923259Y-9040606D01*
X52896000Y-9142339D01*
X52896000Y-9247661D01*
X52923259Y-9349394D01*
X52975920Y-9440606D01*
X52980314Y-9445000D01*
X52017128Y-9445000D01*
X52069730Y-9641317D01*
X52069734Y-9641326D01*
X52165865Y-9847482D01*
X52296342Y-10033820D01*
X52457179Y-10194657D01*
X52643517Y-10325134D01*
X52849673Y-10421265D01*
X52849682Y-10421269D01*
X53045999Y-10473872D01*
X53046000Y-10473871D01*
X53046000Y-9510686D01*
X53050394Y-9515080D01*
X53141606Y-9567741D01*
X53243339Y-9595000D01*
X53348661Y-9595000D01*
X53450394Y-9567741D01*
X53541606Y-9515080D01*
X53546000Y-9510686D01*
X53546000Y-10473872D01*
X53742317Y-10421269D01*
X53742326Y-10421265D01*
X53948482Y-10325134D01*
X54134820Y-10194657D01*
X54295657Y-10033820D01*
X54426134Y-9847482D01*
X54522265Y-9641326D01*
X54522269Y-9641317D01*
X54574872Y-9445000D01*
X53611686Y-9445000D01*
X53616080Y-9440606D01*
X53668741Y-9349394D01*
X53696000Y-9247661D01*
X53696000Y-9142339D01*
X53668741Y-9040606D01*
X53616080Y-8949394D01*
X53611686Y-8945000D01*
X54574872Y-8945000D01*
X54574872Y-8944999D01*
X54522269Y-8748682D01*
X54522265Y-8748673D01*
X54426134Y-8542517D01*
X54295657Y-8356179D01*
X54134820Y-8195342D01*
X53948482Y-8064865D01*
X53742328Y-7968734D01*
X53546000Y-7916127D01*
X53546000Y-8879314D01*
X53541606Y-8874920D01*
X53450394Y-8822259D01*
X53348661Y-8795000D01*
X53243339Y-8795000D01*
X53141606Y-8822259D01*
X53050394Y-8874920D01*
X53046000Y-8879314D01*
X53046000Y-7916127D01*
X52849671Y-7968734D01*
X52643517Y-8064865D01*
X52457179Y-8195342D01*
X52296342Y-8356179D01*
X52165865Y-8542517D01*
X52069734Y-8748673D01*
X52069730Y-8748682D01*
X52017127Y-8944999D01*
X47469920Y-8944999D01*
X49993102Y-6421819D01*
X50054425Y-6388334D01*
X50080783Y-6385500D01*
X52418412Y-6385500D01*
X52485451Y-6405185D01*
X52489523Y-6407917D01*
X52643266Y-6515568D01*
X52849504Y-6611739D01*
X53069308Y-6670635D01*
X53231230Y-6684801D01*
X53295998Y-6690468D01*
X53296000Y-6690468D01*
X53296002Y-6690468D01*
X53352673Y-6685509D01*
X53522692Y-6670635D01*
X53742496Y-6611739D01*
X53948734Y-6515568D01*
X54135139Y-6385047D01*
X54296047Y-6224139D01*
X54426568Y-6037734D01*
X54522739Y-5831496D01*
X54581635Y-5611692D01*
X54591406Y-5500005D01*
X60994556Y-5500005D01*
X61014310Y-5814004D01*
X61014311Y-5814011D01*
X61073270Y-6123083D01*
X61170497Y-6422316D01*
X61170499Y-6422321D01*
X61304461Y-6707003D01*
X61304464Y-6707009D01*
X61473051Y-6972661D01*
X61473054Y-6972665D01*
X61673606Y-7215090D01*
X61673608Y-7215092D01*
X61902968Y-7430476D01*
X61902978Y-7430484D01*
X62157504Y-7615408D01*
X62157509Y-7615410D01*
X62157516Y-7615416D01*
X62433234Y-7766994D01*
X62433239Y-7766996D01*
X62433241Y-7766997D01*
X62433242Y-7766998D01*
X62725771Y-7882818D01*
X62725774Y-7882819D01*
X62890051Y-7924998D01*
X63030527Y-7961066D01*
X63087458Y-7968258D01*
X63342670Y-8000499D01*
X63342679Y-8000499D01*
X63342682Y-8000500D01*
X63342684Y-8000500D01*
X63657316Y-8000500D01*
X63657318Y-8000500D01*
X63657321Y-8000499D01*
X63657329Y-8000499D01*
X63843593Y-7976968D01*
X63969473Y-7961066D01*
X64274225Y-7882819D01*
X64274228Y-7882818D01*
X64566757Y-7766998D01*
X64566758Y-7766997D01*
X64566756Y-7766997D01*
X64566766Y-7766994D01*
X64842484Y-7615416D01*
X65097030Y-7430478D01*
X65326390Y-7215094D01*
X65526947Y-6972663D01*
X65695537Y-6707007D01*
X65829503Y-6422315D01*
X65926731Y-6123079D01*
X65985688Y-5814015D01*
X65998417Y-5611692D01*
X66005444Y-5500005D01*
X66005444Y-5499994D01*
X65985689Y-5185995D01*
X65985688Y-5185988D01*
X65985688Y-5185985D01*
X65926731Y-4876921D01*
X65829503Y-4577685D01*
X65814526Y-4545858D01*
X65741597Y-4390876D01*
X65695537Y-4292993D01*
X65560071Y-4079532D01*
X65526948Y-4027338D01*
X65526945Y-4027334D01*
X65326393Y-3784909D01*
X65326391Y-3784907D01*
X65097031Y-3569523D01*
X65097021Y-3569515D01*
X64842495Y-3384591D01*
X64842488Y-3384586D01*
X64842484Y-3384584D01*
X64566766Y-3233006D01*
X64566763Y-3233004D01*
X64566758Y-3233002D01*
X64566757Y-3233001D01*
X64274228Y-3117181D01*
X64274225Y-3117180D01*
X63969476Y-3038934D01*
X63969463Y-3038932D01*
X63657329Y-2999500D01*
X63657318Y-2999500D01*
X63342682Y-2999500D01*
X63342670Y-2999500D01*
X63030536Y-3038932D01*
X63030523Y-3038934D01*
X62725774Y-3117180D01*
X62725771Y-3117181D01*
X62433242Y-3233001D01*
X62433241Y-3233002D01*
X62157516Y-3384584D01*
X62157504Y-3384591D01*
X61902978Y-3569515D01*
X61902968Y-3569523D01*
X61673608Y-3784907D01*
X61673606Y-3784909D01*
X61473054Y-4027334D01*
X61473051Y-4027338D01*
X61304464Y-4292990D01*
X61304461Y-4292996D01*
X61170499Y-4577678D01*
X61170497Y-4577683D01*
X61073270Y-4876916D01*
X61073269Y-4876920D01*
X61073269Y-4876921D01*
X61071572Y-4885816D01*
X61014311Y-5185988D01*
X61014310Y-5185995D01*
X60994556Y-5499994D01*
X60994556Y-5500005D01*
X54591406Y-5500005D01*
X54601468Y-5385000D01*
X54581635Y-5158308D01*
X54522739Y-4938504D01*
X54426568Y-4732266D01*
X54296047Y-4545861D01*
X54296045Y-4545858D01*
X54135141Y-4384954D01*
X53948734Y-4254432D01*
X53948732Y-4254431D01*
X53742497Y-4158261D01*
X53742488Y-4158258D01*
X53522697Y-4099366D01*
X53522693Y-4099365D01*
X53522692Y-4099365D01*
X53522691Y-4099364D01*
X53522686Y-4099364D01*
X53296002Y-4079532D01*
X53295998Y-4079532D01*
X53069313Y-4099364D01*
X53069302Y-4099366D01*
X52849511Y-4158258D01*
X52849502Y-4158261D01*
X52643267Y-4254431D01*
X52643265Y-4254432D01*
X52489535Y-4362075D01*
X52423329Y-4384402D01*
X52418412Y-4384500D01*
X49516454Y-4384500D01*
X49484391Y-4390876D01*
X49484392Y-4390877D01*
X49323170Y-4422946D01*
X49323164Y-4422948D01*
X49141088Y-4498366D01*
X49141079Y-4498371D01*
X48977219Y-4607859D01*
X48977215Y-4607862D01*
X45426899Y-8158181D01*
X45365576Y-8191666D01*
X45339218Y-8194500D01*
X44013588Y-8194500D01*
X43946549Y-8174815D01*
X43942465Y-8172075D01*
X43922622Y-8158181D01*
X43788734Y-8064432D01*
X43726085Y-8035218D01*
X43582497Y-7968261D01*
X43582488Y-7968258D01*
X43362697Y-7909366D01*
X43362693Y-7909365D01*
X43362692Y-7909365D01*
X43362691Y-7909364D01*
X43362686Y-7909364D01*
X43136002Y-7889532D01*
X43135998Y-7889532D01*
X42909313Y-7909364D01*
X42909302Y-7909366D01*
X42689511Y-7968258D01*
X42689502Y-7968261D01*
X42483267Y-8064431D01*
X42483265Y-8064432D01*
X42296858Y-8194954D01*
X42135954Y-8355858D01*
X42005432Y-8542265D01*
X42005431Y-8542267D01*
X41909261Y-8748502D01*
X41909258Y-8748511D01*
X41850366Y-8968302D01*
X41850364Y-8968311D01*
X41844958Y-9030096D01*
X41819504Y-9095164D01*
X41809111Y-9106967D01*
X41487897Y-9428182D01*
X41426576Y-9461666D01*
X41400218Y-9464500D01*
X39177588Y-9464500D01*
X39110549Y-9444815D01*
X39106465Y-9442075D01*
X39104367Y-9440606D01*
X38952734Y-9334432D01*
X38894724Y-9307381D01*
X38842285Y-9261210D01*
X38823133Y-9194017D01*
X38843348Y-9127135D01*
X38894725Y-9082618D01*
X38910946Y-9075054D01*
X38952734Y-9055568D01*
X39139139Y-8925047D01*
X39300047Y-8764139D01*
X39430568Y-8577734D01*
X39526739Y-8371496D01*
X39585635Y-8151692D01*
X39605468Y-7925000D01*
X39585635Y-7698308D01*
X39526739Y-7478504D01*
X39430568Y-7272266D01*
X39300047Y-7085861D01*
X39300045Y-7085858D01*
X39139141Y-6924954D01*
X38952734Y-6794432D01*
X38952728Y-6794429D01*
X38894725Y-6767382D01*
X38842285Y-6721210D01*
X38823133Y-6654017D01*
X38843348Y-6587135D01*
X38894725Y-6542618D01*
X38952734Y-6515568D01*
X39106465Y-6407924D01*
X39172671Y-6385598D01*
X39177588Y-6385500D01*
X42258412Y-6385500D01*
X42325451Y-6405185D01*
X42329523Y-6407917D01*
X42483266Y-6515568D01*
X42689504Y-6611739D01*
X42909308Y-6670635D01*
X43071230Y-6684801D01*
X43135998Y-6690468D01*
X43136000Y-6690468D01*
X43136002Y-6690468D01*
X43192673Y-6685509D01*
X43362692Y-6670635D01*
X43582496Y-6611739D01*
X43788734Y-6515568D01*
X43975139Y-6385047D01*
X44136047Y-6224139D01*
X44266568Y-6037734D01*
X44362739Y-5831496D01*
X44421635Y-5611692D01*
X44441468Y-5385000D01*
X44421635Y-5158308D01*
X44362739Y-4938504D01*
X44266568Y-4732266D01*
X44136047Y-4545861D01*
X44136045Y-4545858D01*
X43975141Y-4384954D01*
X43788734Y-4254432D01*
X43788732Y-4254431D01*
X43582497Y-4158261D01*
X43582488Y-4158258D01*
X43362697Y-4099366D01*
X43362693Y-4099365D01*
X43362692Y-4099365D01*
X43362691Y-4099364D01*
X43362686Y-4099364D01*
X43136002Y-4079532D01*
X43135998Y-4079532D01*
X42909313Y-4099364D01*
X42909302Y-4099366D01*
X42689511Y-4158258D01*
X42689502Y-4158261D01*
X42483267Y-4254431D01*
X42483265Y-4254432D01*
X42329535Y-4362075D01*
X42263329Y-4384402D01*
X42258412Y-4384500D01*
X39177588Y-4384500D01*
X39110549Y-4364815D01*
X39106465Y-4362075D01*
X39007809Y-4292996D01*
X38952734Y-4254432D01*
X38952732Y-4254431D01*
X38746497Y-4158261D01*
X38746488Y-4158258D01*
X38526697Y-4099366D01*
X38526688Y-4099364D01*
X38464903Y-4093958D01*
X38399835Y-4068504D01*
X38388032Y-4058111D01*
X37584209Y-3254289D01*
X37584206Y-3254285D01*
X37584206Y-3254286D01*
X37577139Y-3247219D01*
X37577139Y-3247218D01*
X37437782Y-3107861D01*
X37437781Y-3107860D01*
X37437780Y-3107859D01*
X37273916Y-2998369D01*
X37273911Y-2998366D01*
X37201315Y-2968296D01*
X37145165Y-2945038D01*
X37091836Y-2922949D01*
X37091832Y-2922948D01*
X37091828Y-2922946D01*
X36995188Y-2903724D01*
X36898544Y-2884500D01*
X36898541Y-2884500D01*
X26192540Y-2884500D01*
X25995459Y-2884500D01*
X25995456Y-2884500D01*
X25802171Y-2922946D01*
X25802167Y-2922948D01*
X25802165Y-2922948D01*
X25802164Y-2922949D01*
X25726745Y-2954188D01*
X25726743Y-2954189D01*
X25620085Y-2998368D01*
X25620085Y-2998369D01*
X25620084Y-2998369D01*
X25456222Y-3107857D01*
X25456214Y-3107863D01*
X24505966Y-4058111D01*
X24444643Y-4091596D01*
X24429095Y-4093958D01*
X24367307Y-4099365D01*
X24147511Y-4158258D01*
X24147502Y-4158261D01*
X23941267Y-4254431D01*
X23941265Y-4254432D01*
X23754858Y-4384954D01*
X23593954Y-4545858D01*
X23463432Y-4732265D01*
X23463431Y-4732267D01*
X23367261Y-4938502D01*
X23367258Y-4938511D01*
X23308366Y-5158302D01*
X23308364Y-5158313D01*
X23288532Y-5384998D01*
X23288532Y-5385001D01*
X23308364Y-5611686D01*
X23308366Y-5611697D01*
X23367258Y-5831488D01*
X23367261Y-5831497D01*
X23463431Y-6037732D01*
X23463432Y-6037734D01*
X23593954Y-6224141D01*
X23754858Y-6385045D01*
X23754861Y-6385047D01*
X23941266Y-6515568D01*
X24147504Y-6611739D01*
X24367308Y-6670635D01*
X24529230Y-6684801D01*
X24593998Y-6690468D01*
X24594000Y-6690468D01*
X24594002Y-6690468D01*
X24650673Y-6685509D01*
X24820692Y-6670635D01*
X25040496Y-6611739D01*
X25246734Y-6515568D01*
X25433139Y-6385047D01*
X25594047Y-6224139D01*
X25724568Y-6037734D01*
X25820739Y-5831496D01*
X25879635Y-5611692D01*
X25885040Y-5549905D01*
X25910492Y-5484838D01*
X25920879Y-5473040D01*
X26472102Y-4921819D01*
X26533425Y-4888334D01*
X26559783Y-4885500D01*
X29305863Y-4885500D01*
X29372902Y-4905185D01*
X29418657Y-4957989D01*
X29428601Y-5027147D01*
X29425638Y-5041593D01*
X29394366Y-5158302D01*
X29394364Y-5158311D01*
X29388958Y-5220096D01*
X29363504Y-5285164D01*
X29353111Y-5296967D01*
X28038341Y-6611738D01*
X26754221Y-7895858D01*
X26754218Y-7895861D01*
X26689014Y-7961065D01*
X26614859Y-8035219D01*
X26505371Y-8199079D01*
X26505364Y-8199092D01*
X26466950Y-8291835D01*
X26466950Y-8291836D01*
X26429949Y-8381162D01*
X26429948Y-8381163D01*
X26426804Y-8396979D01*
X26426802Y-8396987D01*
X26391500Y-8574456D01*
X26391500Y-10426216D01*
X26371815Y-10493255D01*
X26355181Y-10513897D01*
X25775966Y-11093111D01*
X25714643Y-11126596D01*
X25699095Y-11128958D01*
X25637307Y-11134365D01*
X25417511Y-11193258D01*
X25417502Y-11193261D01*
X25211267Y-11289431D01*
X25211265Y-11289432D01*
X25057535Y-11397075D01*
X24991329Y-11419402D01*
X24986412Y-11419500D01*
X22931588Y-11419500D01*
X22864549Y-11399815D01*
X22860465Y-11397075D01*
X22795565Y-11351632D01*
X22706734Y-11289432D01*
X22605315Y-11242139D01*
X22500497Y-11193261D01*
X22500488Y-11193258D01*
X22280697Y-11134366D01*
X22280693Y-11134365D01*
X22280692Y-11134365D01*
X22280691Y-11134364D01*
X22280686Y-11134364D01*
X22054002Y-11114532D01*
X22053998Y-11114532D01*
X21827313Y-11134364D01*
X21827302Y-11134366D01*
X21607511Y-11193258D01*
X21607502Y-11193261D01*
X21401267Y-11289431D01*
X21401265Y-11289432D01*
X21214858Y-11419954D01*
X21053954Y-11580858D01*
X20923432Y-11767265D01*
X20923431Y-11767267D01*
X20827261Y-11973502D01*
X20827258Y-11973511D01*
X20768366Y-12193302D01*
X20768364Y-12193313D01*
X20748532Y-12419998D01*
X20748532Y-12420001D01*
X20768364Y-12646686D01*
X20768366Y-12646697D01*
X20821074Y-12843407D01*
X20819411Y-12913257D01*
X20780248Y-12971119D01*
X20716020Y-12998623D01*
X20701299Y-12999500D01*
X20289783Y-12999500D01*
X20222744Y-12979815D01*
X20202102Y-12963181D01*
X19570887Y-12331966D01*
X19537402Y-12270643D01*
X19535040Y-12255092D01*
X19529635Y-12193313D01*
X19529635Y-12193308D01*
X19470739Y-11973504D01*
X19374568Y-11767266D01*
X19244047Y-11580861D01*
X19244045Y-11580858D01*
X19083141Y-11419954D01*
X18896734Y-11289432D01*
X18896732Y-11289431D01*
X18690497Y-11193261D01*
X18690488Y-11193258D01*
X18470697Y-11134366D01*
X18470693Y-11134365D01*
X18470692Y-11134365D01*
X18470691Y-11134364D01*
X18470686Y-11134364D01*
X18244002Y-11114532D01*
X18243998Y-11114532D01*
X18017313Y-11134364D01*
X18017302Y-11134366D01*
X17797511Y-11193258D01*
X17797502Y-11193261D01*
X17591267Y-11289431D01*
X17591265Y-11289432D01*
X17437535Y-11397075D01*
X17371329Y-11419402D01*
X17366412Y-11419500D01*
X15558500Y-11419500D01*
X15491461Y-11399815D01*
X15445706Y-11347011D01*
X15434500Y-11295500D01*
X15434500Y-6262588D01*
X15454185Y-6195549D01*
X15456925Y-6191465D01*
X15564568Y-6037734D01*
X15660739Y-5831496D01*
X15719635Y-5611692D01*
X15739468Y-5385000D01*
X15719635Y-5158308D01*
X15660739Y-4938504D01*
X15564568Y-4732266D01*
X15434047Y-4545861D01*
X15434045Y-4545858D01*
X15273141Y-4384954D01*
X15086734Y-4254432D01*
X15086732Y-4254431D01*
X14880497Y-4158261D01*
X14880488Y-4158258D01*
X14660697Y-4099366D01*
X14660693Y-4099365D01*
X14660692Y-4099365D01*
X14660691Y-4099364D01*
X14660686Y-4099364D01*
X14434002Y-4079532D01*
X14433998Y-4079532D01*
X14207313Y-4099364D01*
X14207302Y-4099366D01*
X13987511Y-4158258D01*
X13987502Y-4158261D01*
X13781267Y-4254431D01*
X13781265Y-4254432D01*
X13594858Y-4384954D01*
X13433954Y-4545858D01*
X13303432Y-4732265D01*
X13303431Y-4732267D01*
X13207261Y-4938502D01*
X13207258Y-4938511D01*
X13148366Y-5158302D01*
X13148364Y-5158313D01*
X13128532Y-5384998D01*
X13128532Y-5385001D01*
X13148364Y-5611686D01*
X13148366Y-5611697D01*
X13207258Y-5831488D01*
X13207261Y-5831496D01*
X13303432Y-6037734D01*
X13363193Y-6123083D01*
X13411075Y-6191465D01*
X13433402Y-6257671D01*
X13433500Y-6262588D01*
X13433500Y-11542410D01*
X13413815Y-11609449D01*
X13411076Y-11613532D01*
X13303431Y-11767267D01*
X13207261Y-11973502D01*
X13207258Y-11973511D01*
X13148366Y-12193302D01*
X13148364Y-12193313D01*
X13128532Y-12419998D01*
X13128532Y-12420001D01*
X500500Y-12420001D01*
X500500Y-5500005D01*
X2994556Y-5500005D01*
X3014310Y-5814004D01*
X3014311Y-5814011D01*
X3073270Y-6123083D01*
X3170497Y-6422316D01*
X3170499Y-6422321D01*
X3304461Y-6707003D01*
X3304464Y-6707009D01*
X3473051Y-6972661D01*
X3473054Y-6972665D01*
X3673606Y-7215090D01*
X3673608Y-7215092D01*
X3902968Y-7430476D01*
X3902978Y-7430484D01*
X4157504Y-7615408D01*
X4157509Y-7615410D01*
X4157516Y-7615416D01*
X4433234Y-7766994D01*
X4433239Y-7766996D01*
X4433241Y-7766997D01*
X4433242Y-7766998D01*
X4725771Y-7882818D01*
X4725774Y-7882819D01*
X4890051Y-7924998D01*
X5030527Y-7961066D01*
X5087458Y-7968258D01*
X5342670Y-8000499D01*
X5342679Y-8000499D01*
X5342682Y-8000500D01*
X5342684Y-8000500D01*
X5657316Y-8000500D01*
X5657318Y-8000500D01*
X5657321Y-8000499D01*
X5657329Y-8000499D01*
X5843593Y-7976968D01*
X5969473Y-7961066D01*
X6274225Y-7882819D01*
X6274228Y-7882818D01*
X6566757Y-7766998D01*
X6566758Y-7766997D01*
X6566756Y-7766997D01*
X6566766Y-7766994D01*
X6842484Y-7615416D01*
X7097030Y-7430478D01*
X7326390Y-7215094D01*
X7526947Y-6972663D01*
X7695537Y-6707007D01*
X7829503Y-6422315D01*
X7926731Y-6123079D01*
X7985688Y-5814015D01*
X7998417Y-5611692D01*
X8005444Y-5500005D01*
X8005444Y-5499994D01*
X7985689Y-5185995D01*
X7985688Y-5185988D01*
X7985688Y-5185985D01*
X7926731Y-4876921D01*
X7829503Y-4577685D01*
X7814526Y-4545858D01*
X7741597Y-4390876D01*
X7695537Y-4292993D01*
X7560071Y-4079532D01*
X7526948Y-4027338D01*
X7526945Y-4027334D01*
X7326393Y-3784909D01*
X7326391Y-3784907D01*
X7097031Y-3569523D01*
X7097021Y-3569515D01*
X6842495Y-3384591D01*
X6842488Y-3384586D01*
X6842484Y-3384584D01*
X6566766Y-3233006D01*
X6566763Y-3233004D01*
X6566758Y-3233002D01*
X6566757Y-3233001D01*
X6274228Y-3117181D01*
X6274225Y-3117180D01*
X5969476Y-3038934D01*
X5969463Y-3038932D01*
X5657329Y-2999500D01*
X5657318Y-2999500D01*
X5342682Y-2999500D01*
X5342670Y-2999500D01*
X5030536Y-3038932D01*
X5030523Y-3038934D01*
X4725774Y-3117180D01*
X4725771Y-3117181D01*
X4433242Y-3233001D01*
X4433241Y-3233002D01*
X4157516Y-3384584D01*
X4157504Y-3384591D01*
X3902978Y-3569515D01*
X3902968Y-3569523D01*
X3673608Y-3784907D01*
X3673606Y-3784909D01*
X3473054Y-4027334D01*
X3473051Y-4027338D01*
X3304464Y-4292990D01*
X3304461Y-4292996D01*
X3170499Y-4577678D01*
X3170497Y-4577683D01*
X3073270Y-4876916D01*
X3073269Y-4876920D01*
X3073269Y-4876921D01*
X3071572Y-4885816D01*
X3014311Y-5185988D01*
X3014310Y-5185995D01*
X2994556Y-5499994D01*
X2994556Y-5500005D01*
X500500Y-5500005D01*
X500500Y-624500D01*
X520185Y-557461D01*
X572989Y-511706D01*
X624500Y-500500D01*
X68375500Y-500500D01*
X68442539Y-520185D01*
G37*
%TD.AperFunction*%
%TD*%
M02*
